SplineFontDB: 3.2
FontName: AtkinsonHyperPro-Bold
FullName: Atkinson Hyperlegible Pro Bold
FamilyName: Atkinson Hyperlegible Pro
Weight: Bold
Copyright: Copyright 2020 Braille Institute of America, Inc.
UComments: "Update by Jacob Perez+AAoA-https://jacobxperez.github.io/atkinson-hyperlegible-pro/"
Version: 1.3.2
ItalicAngle: 0
UnderlinePosition: -106
UnderlineWidth: 57
Ascent: 800
Descent: 200
InvalidEm: 0
sfntRevision: 0x00010000
LayerCount: 2
Layer: 0 1 "Back" 1
Layer: 1 1 "Fore" 0
XUID: [1021 466 782043844 10191]
StyleMap: 0x0020
FSType: 0
OS2Version: 4
OS2_WeightWidthSlopeOnly: 0
OS2_UseTypoMetrics: 1
CreationTime: 1615339189
ModificationTime: 1697445215
PfmFamily: 81
TTFWeight: 700
TTFWidth: 5
LineGap: 0
VLineGap: 0
Panose: 0 0 0 0 0 0 0 0 0 0
OS2TypoAscent: 950
OS2TypoAOffset: 0
OS2TypoDescent: -290
OS2TypoDOffset: 0
OS2TypoLinegap: 0
OS2WinAscent: 950
OS2WinAOffset: 0
OS2WinDescent: 290
OS2WinDOffset: 0
HheadAscent: 950
HheadAOffset: 0
HheadDescent: -290
HheadDOffset: 0
OS2SubXSize: 650
OS2SubYSize: 699
OS2SubXOff: 0
OS2SubYOff: 140
OS2SupXSize: 650
OS2SupYSize: 699
OS2SupXOff: 0
OS2SupYOff: 479
OS2StrikeYSize: 49
OS2StrikeYPos: 258
OS2CapHeight: 668
OS2XHeight: 496
OS2Vendor: 'NONE'
OS2CodePages: 20000003.00000000
OS2UnicodeRanges: 800000ef.0000204b.00000000.00000000
Lookup: 4 0 1 "'liga' Standard Ligatures lookup 0" { "'liga' Standard Ligatures lookup 0-1"  } ['liga' ('DFLT' <'dflt' > 'grek' <'dflt' > 'latn' <'MOL ' 'dflt' > ) ]
Lookup: 1 0 0 "'zero' Slashed Zero lookup 0" { "'zero' Slashed Zero lookup 0-1"  } ['zero' ('DFLT' <'dflt' > 'grek' <'dflt' > 'latn' <'MOL ' 'dflt' > ) ]
Lookup: 1 0 0 "'aalt' Access All Alternates lookup 0" { "'aalt' Access All Alternates lookup 0 subtable"  } ['aalt' ('DFLT' <'dflt' > 'grek' <'dflt' > 'latn' <'dflt' > ) ]
Lookup: 3 0 0 "'aalt' Access All Alternates lookup 1" { "'aalt' Access All Alternates lookup 1 subtable"  } ['aalt' ('DFLT' <'dflt' > 'grek' <'dflt' > 'latn' <'dflt' > ) ]

StartChar: .notdef
Encoding: 256 -1 0
Width: 527
GlyphClass: 1
Flags: W
HStem: 0 21<79 449> 680 20<78 449>
VStem: 50 21<49 650> 457 20<47 652>
DStem2: 78 680 71 650 0.513698 -0.857971<22.1432 360.147 396.696 737.787> 71 49 79 21 0.513896 0.857853<0 339.381 374.897 715.649>
LayerCount: 2
Fore
SplineSet
79 21 m 1,0,-1
 449 21 l 1,1,-1
 264 329 l 1,2,-1
 79 21 l 1,0,-1
71 49 m 1,3,-1
 251 350 l 1,4,-1
 71 650 l 1,5,-1
 71 49 l 1,3,-1
457 47 m 1,6,-1
 457 652 l 1,7,-1
 276 350 l 1,8,-1
 457 47 l 1,6,-1
263 371 m 1,9,-1
 449 680 l 1,10,-1
 78 680 l 1,11,-1
 263 371 l 1,9,-1
50 0 m 1,12,-1
 50 700 l 1,13,-1
 477 700 l 1,14,-1
 477 0 l 1,15,-1
 50 0 l 1,12,-1
EndSplineSet
EndChar

StartChar: zero
Encoding: 48 48 5
Width: 652
GlyphClass: 1
Flags: W
HStem: -12 113<267.372 395.235> 567 113<268.119 395.169>
VStem: 45 156<187.237 429.666> 461 157<247.725 482.141>
DStem2: 254 534 209 431 0.570817 -0.821077<58.8842 351.204>
LayerCount: 2
Fore
SplineSet
332.337352103 101 m 0,0,1
 381 101 381 101 412 139 c 1,2,-1
 209 431 l 1,3,4
 205 410 205 410 203.037049747 386.935334528 c 0,5,6
 201 363 201 363 201 334.367524594 c 0,7,8
 201 214 201 214 239.306139396 153.880642336 c 0,9,10
 273 101 273 101 332.337352103 101 c 0,0,1
455 246 m 1,11,12
 461 285 461 285 461 334.819079248 c 0,13,14
 461 456 461 456 423.08179097 515.280580314 c 0,15,16
 390 567 390 567 332.183210507 567 c 0,17,18
 286 567 286 567 254 534 c 1,19,-1
 455 246 l 1,11,12
331.5 -12 m 128,-1,21
 238 -12 238 -12 172.467577337 31.5176244246 c 0,22,23
 110 73 110 73 77.3151080427 151.443740698 c 0,24,25
 45 229 45 229 45 335.672046213 c 0,26,27
 45 496 45 496 116.252893817 585.79816755 c 0,28,29
 191 680 191 680 332.3307337 680 c 0,30,31
 472 680 472 680 546.627666965 585.948693688 c 0,32,33
 618 496 618 496 618 336.578224967 c 0,34,35
 618 229 618 229 585.761720414 151.628128994 c 0,36,37
 553 73 553 73 490.404159308 31.4324495404 c 0,38,20
 425 -12 425 -12 331.5 -12 c 128,-1,21
EndSplineSet
Substitution2: "'zero' Slashed Zero lookup 0-1" zero.alt1
Substitution2: "'aalt' Access All Alternates lookup 0 subtable" zero.alt1
Substitution2: "'tnum' Tabular Numbers lookup 14 subtable" zero.tf
EndChar

StartChar: one
Encoding: 49 49 6
Width: 448
GlyphClass: 1
Flags: W
HStem: 0 21G<199 350> 448 123<47 179.784> 648 20G<226 350>
VStem: 199 151<0 448>
LayerCount: 2
Fore
SplineSet
199 0 m 1,0,-1
 199 448 l 1,1,-1
 47 448 l 1,2,-1
 47 571 l 1,3,4
 100 571 100 571 128.918845524 575.544390011 c 0,5,6
 170 582 170 582 193.516674045 602.514545443 c 128,-1,7
 217 623 217 623 235 668 c 1,8,-1
 350 668 l 1,9,-1
 350 0 l 1,10,-1
 199 0 l 1,0,-1
EndSplineSet
Substitution2: "'tnum' Tabular Numbers lookup 14 subtable" one.tf
Substitution2: "'sups' Superscript lookup 9 subtable" uni00B9
AlternateSubs2: "'aalt' Access All Alternates lookup 1 subtable" uni00B9 one.tf
EndChar

StartChar: two
Encoding: 50 50 7
Width: 586
GlyphClass: 1
Flags: W
HStem: 0 125<228 547> 567 113<233.122 362.287>
VStem: 391 153<416.491 541.779>
LayerCount: 2
Fore
SplineSet
34 0 m 1,0,-1
 34 125 l 1,1,2
 166 218 166 218 239.386648233 278.685112962 c 0,3,4
 322 347 322 347 357.62971795 397.604526944 c 0,5,6
 391 445 391 445 391 487.981622144 c 0,7,8
 391 527 391 527 360.952788384 548.852517539 c 0,9,10
 336 567 336 567 301.691195308 567 c 0,11,12
 268 567 268 567 243.379581179 552.638089021 c 0,13,14
 208 532 208 532 197 485 c 1,15,-1
 59 535 l 1,16,17
 86 605 86 605 153.469783921 643.335104501 c 0,18,19
 218 680 218 680 305.474916812 680 c 0,20,21
 374 680 374 680 427.072316206 657.886534914 c 0,22,23
 482 635 482 635 511.833020007 593.137536441 c 0,24,25
 544 548 544 548 544 485.423133343 c 0,26,27
 544 384 544 384 449.97197249 287.746457046 c 0,28,29
 375 211 375 211 228 125 c 1,30,-1
 547 125 l 1,31,-1
 547 0 l 1,32,-1
 34 0 l 1,0,-1
EndSplineSet
Substitution2: "'tnum' Tabular Numbers lookup 14 subtable" two.tf
Substitution2: "'sups' Superscript lookup 9 subtable" uni00B2
AlternateSubs2: "'aalt' Access All Alternates lookup 1 subtable" uni00B2 two.tf
EndChar

StartChar: three
Encoding: 51 51 8
Width: 605
GlyphClass: 1
Flags: W
HStem: -12 113<217.048 368.033> 291 106<211 338.984> 567 113<212.889 361.468>
VStem: 390 153<438.646 540.017> 398 156<130.311 247.059>
LayerCount: 2
Fore
SplineSet
291.845108808 -12 m 0,0,1
 235 -12 235 -12 185.960883725 3.23545359989 c 0,2,3
 132 20 132 20 94.6266371604 52.1027603879 c 0,4,5
 54 87 54 87 33 140 c 1,6,-1
 171 190 l 1,7,8
 184 141 184 141 223.983650554 118.152199683 c 0,9,10
 254 101 254 101 294.778728034 101 c 0,11,12
 342 101 342 101 369.611959597 123.681252526 c 0,13,14
 398 147 398 147 398 188.900537053 c 0,15,16
 398 229 398 229 369.735633291 253.459548113 c 0,17,18
 346 274 346 274 298.665368035 283.466926393 c 0,19,20
 261 291 261 291 211 291 c 1,21,-1
 211 397 l 1,22,23
 297 397 297 397 343.601825306 421.052554997 c 0,24,25
 390 445 390 445 390 490.505445419 c 0,26,27
 390 528 390 528 355.436910593 549.396198204 c 0,28,29
 327 567 327 567 288.217002224 567 c 0,30,31
 249 567 249 567 222.374256343 551.53989078 c 0,32,33
 187 531 187 531 177 485 c 1,34,-1
 40 535 l 1,35,36
 60 586 60 586 101.467686647 620.024768531 c 0,37,38
 138 650 138 650 191.203565608 665.648107532 c 0,39,40
 240 680 240 680 295.049006852 680 c 0,41,42
 341 680 341 680 382.235436477 670.628309892 c 0,43,44
 429 660 429 660 463.647178624 639.016497453 c 0,45,46
 500 617 500 617 519.825788192 587.03078529 c 0,47,48
 543 552 543 552 543 505.272260705 c 0,49,50
 543 453 543 453 509.729557469 406.53610612 c 0,51,52
 485 372 485 372 450 352 c 1,53,54
 483 340 483 340 508.400638992 311.897165371 c 0,55,56
 530 288 530 288 542.085966282 256.777920439 c 0,57,58
 554 226 554 226 554 189.435816143 c 0,59,60
 554 125 554 125 514.800241281 76.7948913054 c 0,61,62
 480 34 480 34 418.201674818 10.3106420136 c 0,63,64
 360 -12 360 -12 291.845108808 -12 c 0,0,1
EndSplineSet
Substitution2: "'tnum' Tabular Numbers lookup 14 subtable" three.tf
Substitution2: "'sups' Superscript lookup 9 subtable" uni00B3
AlternateSubs2: "'aalt' Access All Alternates lookup 1 subtable" uni00B3 three.tf
EndChar

StartChar: four
Encoding: 52 52 9
Width: 626
GlyphClass: 1
Flags: W
HStem: 0 21G<348 500> 141 134<188 348 500 592> 648 20G<332.375 500>
VStem: 348 152<0 141 275 469>
DStem2: 23 252 188 275 0.615644 0.788024<119.706 371.086>
LayerCount: 2
Fore
SplineSet
188 275 m 1,0,-1
 348 275 l 1,1,-1
 348 469 l 1,2,-1
 188 275 l 1,0,-1
348 0 m 1,3,-1
 348 141 l 1,4,-1
 23 141 l 1,5,-1
 23 252 l 1,6,-1
 348 668 l 1,7,-1
 500 668 l 1,8,-1
 500 275 l 1,9,-1
 592 275 l 1,10,-1
 592 141 l 1,11,-1
 500 141 l 1,12,-1
 500 0 l 1,13,-1
 348 0 l 1,3,-1
EndSplineSet
Substitution2: "'tnum' Tabular Numbers lookup 14 subtable" four.tf
Substitution2: "'sups' Superscript lookup 9 subtable" uni2074
AlternateSubs2: "'aalt' Access All Alternates lookup 1 subtable" four.tf uni2074
EndChar

StartChar: five
Encoding: 53 53 10
Width: 612
GlyphClass: 1
Flags: W
HStem: -12 113<215.198 362.444> 341 113<220.492 362.703> 544 124<213 534>
VStem: 408 157<146.23 295.971>
LayerCount: 2
Fore
SplineSet
294.902079277 -12 m 0,0,1
 208 -12 208 -12 142.482775003 25.3690838874 c 0,2,3
 73 65 73 65 41 139 c 1,4,-1
 173 187 l 1,5,6
 187 138 187 138 223.416297777 116.612650512 c 0,7,8
 250 101 250 101 287.358313721 101 c 0,9,10
 340 101 340 101 372.392082231 130.533957329 c 0,11,12
 408 163 408 163 408 223.045529879 c 128,-1,13
 408 283 408 283 368.560923554 315.217837097 c 0,14,15
 337 341 337 341 290.242215888 341 c 0,16,17
 216 341 216 341 180 276 c 1,18,-1
 45 326 l 1,19,-1
 87 668 l 1,20,-1
 534 668 l 1,21,-1
 534 544 l 1,22,-1
 213 544 l 1,23,-1
 198 419 l 1,24,25
 221 436 221 436 261.422573862 445.701417727 c 0,26,27
 296 454 296 454 330.295450824 454 c 0,28,29
 391 454 391 454 442.131900125 429.150852276 c 0,30,31
 498 402 498 402 529.128344977 354.145977124 c 0,32,33
 565 299 565 299 565 222.854539848 c 0,34,35
 565 145 565 145 524.86957177 89.3524728539 c 0,36,37
 490 41 490 41 427.420074112 14.0346660809 c 0,38,39
 367 -12 367 -12 294.902079277 -12 c 0,0,1
EndSplineSet
Substitution2: "'tnum' Tabular Numbers lookup 14 subtable" five.tf
Substitution2: "'aalt' Access All Alternates lookup 0 subtable" five.tf
EndChar

StartChar: six
Encoding: 54 54 11
Width: 632
GlyphClass: 1
Flags: W
HStem: -12 113<253.811 385.297> 338 114<252.324 385.279> 570 110<263.128 395.608>
VStem: 51 161<156.087 381.88 403 465.846> 425 153<141.877 296.368>
LayerCount: 2
Fore
SplineSet
320 101 m 128,-1,1
 369 101 369 101 397.493896513 134.073272738 c 0,2,3
 425 166 425 166 425 218.764196803 c 0,4,5
 425 272 425 272 397.711011377 304.162022306 c 0,6,7
 369 338 369 338 319.315908052 338 c 0,8,9
 271 338 271 338 241.72034277 306.239015886 c 0,10,11
 212 274 212 274 212 219.899540004 c 0,12,13
 212 166 212 166 241.48858217 133.512578966 c 128,-1,0
 271 101 271 101 320 101 c 128,-1,1
315.940959257 -12 m 0,14,15
 225 -12 225 -12 163.519435477 29.3314719483 c 0,16,17
 106 68 106 68 77.300665748 143.140075133 c 0,18,19
 51 212 51 212 51 305.260119054 c 0,20,21
 51 378 51 378 66.0845705226 441.166639064 c 0,22,23
 83 512 83 512 115.98055178 562.665775199 c 0,24,25
 152 618 152 618 203.880851768 647.241934633 c 0,26,27
 262 680 262 680 343.077268909 680 c 0,28,29
 416 680 416 680 469.768034626 652.061707498 c 0,30,31
 518 627 518 627 544 583 c 1,32,-1
 408 534 l 1,33,34
 398 551 398 551 376.690502534 560.640010758 c 0,35,36
 356 570 356 570 330.351706354 570 c 0,37,38
 277 570 277 570 245.905214508 532.407796644 c 0,39,40
 210 489 210 489 210 403 c 1,41,42
 235 426 235 426 266.855309363 438.003449905 c 0,43,44
 304 452 304 452 348.968100901 452 c 0,45,46
 412 452 412 452 463.491663069 424.504451759 c 128,-1,47
 515 397 515 397 544.726398311 349.343393184 c 0,48,49
 578 296 578 296 578 226.857570763 c 0,50,51
 578 158 578 158 544.384798161 102.993306082 c 0,52,53
 512 50 512 50 456.631404454 20.4064403119 c 0,54,55
 396 -12 396 -12 315.940959257 -12 c 0,14,15
EndSplineSet
Substitution2: "'tnum' Tabular Numbers lookup 14 subtable" six.tf
Substitution2: "'aalt' Access All Alternates lookup 0 subtable" six.tf
EndChar

StartChar: seven
Encoding: 55 55 12
Width: 543
GlyphClass: 1
Flags: W
HStem: 0 21G<83 267.466> 543 125<15 354>
LayerCount: 2
Fore
SplineSet
83 0 m 1,0,-1
 354 543 l 1,1,-1
 15 543 l 1,2,-1
 15 668 l 1,3,-1
 515 668 l 1,4,-1
 515 543 l 1,5,-1
 258 0 l 1,6,-1
 83 0 l 1,0,-1
EndSplineSet
Substitution2: "'tnum' Tabular Numbers lookup 14 subtable" seven.tf
Substitution2: "'aalt' Access All Alternates lookup 0 subtable" seven.tf
EndChar

StartChar: eight
Encoding: 56 56 13
Width: 625
GlyphClass: 1
Flags: W
HStem: -12 126<233.169 390.942> 294 123<263.45 360.125> 555 125<264.656 361.533>
VStem: 38 157<149.933 261.441> 120 124<436.168 534.598> 380 125<438.391 534.024> 430 157<150.974 261.232>
LayerCount: 2
Fore
SplineSet
312.249994108 114 m 0,0,1
 364 114 364 114 397.157854861 140.124370496 c 0,2,3
 430 166 430 166 430 206.950851703 c 128,-1,4
 430 248 430 248 395.812860645 271.827400157 c 0,5,6
 364 294 364 294 312.971687292 294 c 0,7,8
 261 294 261 294 229.220310221 271.850519245 c 0,9,10
 195 248 195 248 195 206.123275709 c 0,11,12
 195 165 195 165 228.310915863 139.259746833 c 0,13,14
 261 114 261 114 312.249994108 114 c 0,0,1
313 417 m 128,-1,16
 341 417 341 417 360.743788098 437.756290052 c 0,17,18
 380 458 380 458 380 486.595437064 c 128,-1,19
 380 515 380 515 361.342149804 534.639842312 c 0,20,21
 342 555 342 555 313.372836244 555 c 0,22,23
 285 555 285 555 264.738589881 535.232770616 c 0,24,25
 244 515 244 515 244 486.417554546 c 128,-1,26
 244 458 244 458 264.575862783 437.424137217 c 128,-1,15
 285 417 285 417 313 417 c 128,-1,16
313 -12 m 128,-1,28
 235 -12 235 -12 174.11582091 12.3536716361 c 0,29,30
 110 38 110 38 75.2743531708 85.2654637397 c 0,31,32
 38 136 38 136 38 206.136231796 c 0,33,34
 38 268 38 268 69.4138468547 310.246207839 c 0,35,36
 96 346 96 346 152 377 c 1,37,38
 137 401 137 401 128.996925652 426.892299362 c 0,39,40
 120 456 120 456 120 487.695748635 c 0,41,42
 120 540 120 540 144.521326738 584.038301081 c 128,-1,43
 169 628 169 628 210.87223124 653.027080741 c 0,44,45
 256 680 256 680 313.523485169 680 c 0,46,47
 370 680 370 680 414.908080589 653.158388613 c 0,48,49
 457 628 457 628 480.886880436 584.207385868 c 0,50,51
 505 540 505 540 505 487.922673332 c 0,52,53
 505 427 505 427 472 378 c 1,54,55
 528 347 528 347 554.974140813 310.882082641 c 0,56,57
 587 268 587 268 587 203.929541812 c 0,58,59
 587 136 587 136 549.791179839 85.3546614475 c 0,60,61
 515 38 515 38 452.102823379 12.6382352333 c 0,62,27
 391 -12 391 -12 313 -12 c 128,-1,28
EndSplineSet
Substitution2: "'tnum' Tabular Numbers lookup 14 subtable" eight.tf
Substitution2: "'aalt' Access All Alternates lookup 0 subtable" eight.tf
EndChar

StartChar: nine
Encoding: 57 57 14
Width: 561
GlyphClass: 1
Flags: W
HStem: 0 21G<170 350.5> 202 133<213.785 278> 544 135<210.543 342.558>
VStem: 38 135<374.865 506.001> 381.003 134.997<375.333 505.905>
DStem2: 228.61 105.868 330 0 0.435335 0.900269<-51.1709 108.046>
LayerCount: 2
Fore
SplineSet
278.763635436 335 m 0,0,1
 322 335 322 335 351.574253152 366.05296581 c 0,2,3
 382 398 382 398 381.002728438 444.871763399 c 0,4,5
 380 492 380 492 345.369936486 520.136926605 c 0,6,7
 316 544 316 544 274.874106628 544 c 0,8,9
 228 544 228 544 198.92325182 511.222574779 c 0,10,11
 173 482 173 482 173 439.06914926 c 0,12,13
 173 391 173 391 208.045099958 360.807298497 c 0,14,15
 238 335 238 335 278.763635436 335 c 0,0,1
170 0 m 1,16,17
 199 50 199 50 228.609985545 105.867897254 c 0,18,19
 252 150 252 150 278 202 c 1,20,-1
 267 202 l 2,21,22
 204 205 204 205 150.978177014 238.138639366 c 0,23,24
 100 270 100 270 70.252546946 320.85854877 c 0,25,26
 38 376 38 376 38 441.62872555 c 0,27,28
 38 507 38 507 70.8032639138 562.355507855 c 0,29,30
 102 615 102 615 154.378383756 646.039042226 c 0,31,32
 210 679 210 679 275.730619208 679 c 0,33,34
 341 679 341 679 397.219091728 645.779627616 c 0,35,36
 451 614 451 614 482.507254352 561.164758087 c 0,37,38
 516 505 516 505 516 440.49554362 c 0,39,40
 516 408 516 408 506.893203661 376.929753665 c 0,41,42
 499 350 499 350 456.564035796 261.733194456 c 0,43,44
 449 246 449 246 439.299802012 225.853434948 c 0,45,46
 371 84 371 84 330 0 c 1,47,-1
 170 0 l 1,16,17
EndSplineSet
Substitution2: "'tnum' Tabular Numbers lookup 14 subtable" nine.tf
Substitution2: "'aalt' Access All Alternates lookup 0 subtable" nine.tf
EndChar

StartChar: A
Encoding: 65 65 15
Width: 690
GlyphClass: 2
Flags: W
HStem: 0 21G<5 183.723 506.277 685> 119 128<260 430> 648 20G<250.425 439.575>
DStem2: 5 0 177 0 0.35419 0.935173<60.9207 186.374 321.306 484.629> 432 668 344 501 0.35419 -0.935173<125.005 393> 685 0 473 119 0.35419 -0.935173<-558.903 -321.306 -186.374 -60.9207>
AnchorPoint: "Anchor-2" 685 0 basechar 0
AnchorPoint: "Anchor-1" 345 0 basechar 0
AnchorPoint: "Anchor-0" 345 668 basechar 0
LayerCount: 2
Fore
SplineSet
260 247 m 1,0,-1
 430 247 l 1,1,-1
 344 501 l 1,2,-1
 260 247 l 1,0,-1
5 0 m 1,3,-1
 258 668 l 1,4,-1
 432 668 l 1,5,-1
 685 0 l 1,6,-1
 513 0 l 1,7,-1
 473 119 l 1,8,-1
 217 119 l 1,9,-1
 177 0 l 1,10,-1
 5 0 l 1,3,-1
EndSplineSet
Substitution2: "Single Substitution lookup 12 subtable" ordfeminine
Substitution2: "'aalt' Access All Alternates lookup 0 subtable" ordfeminine
EndChar

StartChar: B
Encoding: 66 66 16
Width: 639
GlyphClass: 1
Flags: W
HStem: 0 131<202 424.457> 282 122<202 403.115> 539 129<202 402.705>
VStem: 44 158<131 282 404 539> 426 164<423.27 520.489> 450 167<154.953 258.62>
AnchorPoint: "Anchor-0" 286 668 basechar 0
LayerCount: 2
Fore
SplineSet
202 131 m 1,0,-1
 348 131 l 2,1,2
 399 131 399 131 425.508152277 152.31047536 c 0,3,4
 450 172 450 172 450 206.647053275 c 0,5,6
 450 242 450 242 425.287047817 261.382707595 c 0,7,8
 399 282 399 282 348 282 c 2,9,-1
 202 282 l 1,10,-1
 202 131 l 1,0,-1
202 404 m 1,11,-1
 341 404 l 2,12,13
 381 404 381 404 403.832681411 422.773538049 c 0,14,15
 426 441 426 441 426 472.382692647 c 0,16,17
 426 504 426 504 403.409214985 521.570610567 c 128,-1,18
 381 539 381 539 341 539 c 2,19,-1
 202 539 l 1,20,-1
 202 404 l 1,11,-1
44 0 m 1,21,-1
 44 668 l 1,22,-1
 336 668 l 2,23,24
 409 668 409 668 459.685028119 655.106440215 c 0,25,26
 523 639 523 639 554.447520551 603.797551622 c 0,27,28
 590 564 590 564 590 498.066557769 c 0,29,30
 590 448 590 448 568.585326357 411.438362073 c 0,31,32
 549 378 549 378 511 355 c 1,33,34
 558 339 558 339 584.642633745 306.48695543 c 0,35,36
 617 267 617 267 617 199.589948758 c 0,37,38
 617 131 617 131 582.578312191 84.7619118978 c 0,39,40
 550 41 550 41 486.152780156 19.5431474295 c 0,41,42
 428 0 428 0 347 0 c 2,43,-1
 44 0 l 1,21,-1
EndSplineSet
EndChar

StartChar: C
Encoding: 67 67 17
Width: 673
GlyphClass: 2
Flags: W
HStem: -12 130<289.96 458.72> 550 130<289.886 453.863>
VStem: 35 167<217.94 449.654>
AnchorPoint: "Anchor-1" 357 0 basechar 0
AnchorPoint: "Anchor-0" 357 668 basechar 0
LayerCount: 2
Fore
SplineSet
364.797906862 -12 m 0,0,1
 265 -12 265 -12 189.90352168 30.0540278595 c 128,-1,2
 115 72 115 72 75.1793431896 149.65028078 c 0,3,4
 35 228 35 228 35 333.142997685 c 0,5,6
 35 440 35 440 77.2475484547 518.896024223 c 0,7,8
 118 595 118 595 192.531744721 636.678936193 c 0,9,10
 270 680 270 680 369.766476357 680 c 0,11,12
 468 680 468 680 541.858476946 635.999205223 c 0,13,14
 609 596 609 596 647 525 c 1,15,-1
 507 474 l 1,16,17
 485 515 485 515 442.353669236 534.639757588 c 0,18,19
 409 550 409 550 370.983173381 550 c 0,20,21
 322 550 322 550 284.247199305 524.665883744 c 0,22,23
 246 499 246 499 224.813020972 452.292341687 c 0,24,25
 202 402 202 402 202 331.619684855 c 0,26,27
 202 229 202 229 253.328346653 170.263438366 c 0,28,29
 299 118 299 118 369.173160572 118 c 0,30,31
 408 118 408 118 440.570376195 130.867309114 c 0,32,33
 489 150 489 150 512 193 c 1,34,-1
 651 142 l 1,35,36
 611 71 611 71 540.177121269 31.0115718729 c 0,37,38
 464 -12 464 -12 364.797906862 -12 c 0,0,1
EndSplineSet
EndChar

StartChar: D
Encoding: 68 68 18
Width: 686
GlyphClass: 2
Flags: W
HStem: 0 133<202 397.041> 537 131<202 394.497>
VStem: 44 158<133 537> 488 163<219.998 449.007>
AnchorPoint: "Anchor-1" 343 0 basechar 0
AnchorPoint: "Anchor-0" 326 668 basechar 0
LayerCount: 2
Fore
SplineSet
202 133 m 1,0,-1
 267 133 l 2,1,2
 310 133 310 133 342.928228366 138.835382242 c 0,3,4
 389 147 389 147 418.458561525 166.171444802 c 0,5,6
 452 188 452 188 468.989069045 225.753486767 c 0,7,8
 488 268 488 268 488 334.901543014 c 0,9,10
 488 400 488 400 468.847751544 443.092559026 c 0,11,12
 452 481 452 481 417.423201214 503.502361115 c 0,13,14
 389 522 389 522 344.852011616 530.38252944 c 0,15,16
 310 537 310 537 267 537 c 2,17,-1
 202 537 l 1,18,-1
 202 133 l 1,0,-1
44 0 m 1,19,-1
 44 668 l 1,20,-1
 264 668 l 2,21,22
 346 668 346 668 411.015985507 652.783492754 c 0,23,24
 487 635 487 635 537.897434572 597.675214647 c 0,25,26
 592 558 592 558 620.105019847 496.550041351 c 0,27,28
 651 429 651 429 651 332.396941622 c 0,29,30
 651 238 651 238 619.844402882 170.408196083 c 0,31,32
 592 110 592 110 537.826374885 70.2726749155 c 0,33,34
 487 33 487 33 411.583886271 15.349420191 c 0,35,36
 346 0 346 0 264 0 c 2,37,-1
 44 0 l 1,19,-1
EndSplineSet
EndChar

StartChar: E
Encoding: 69 69 19
Width: 580
GlyphClass: 2
Flags: W
HStem: 0 139<202 558> 274 139<202 419> 529 139<202 558>
VStem: 44 158<139 274 413 529>
AnchorPoint: "Anchor-2" 522 0 basechar 0
AnchorPoint: "Anchor-1" 290 0 basechar 0
AnchorPoint: "Anchor-0" 303 668 basechar 0
LayerCount: 2
Fore
SplineSet
44 0 m 1,0,-1
 44 668 l 1,1,-1
 558 668 l 1,2,-1
 558 529 l 1,3,-1
 202 529 l 1,4,-1
 202 413 l 1,5,-1
 419 413 l 1,6,-1
 419 274 l 1,7,-1
 202 274 l 1,8,-1
 202 139 l 1,9,-1
 558 139 l 1,10,-1
 558 0 l 1,11,-1
 44 0 l 1,0,-1
EndSplineSet
EndChar

StartChar: F
Encoding: 70 70 20
Width: 544
GlyphClass: 1
Flags: W
HStem: 0 21G<44 202> 274 139<202 522> 529 139<202 522>
VStem: 44 158<0 274 413 529>
AnchorPoint: "Anchor-0" 273 668 basechar 0
LayerCount: 2
Fore
SplineSet
44 0 m 1,0,-1
 44 668 l 1,1,-1
 522 668 l 1,2,-1
 522 529 l 1,3,-1
 202 529 l 1,4,-1
 202 413 l 1,5,-1
 522 413 l 1,6,-1
 522 274 l 1,7,-1
 202 274 l 1,8,-1
 202 0 l 1,9,-1
 44 0 l 1,0,-1
EndSplineSet
EndChar

StartChar: G
Encoding: 71 71 21
Width: 719
GlyphClass: 2
Flags: W
HStem: -12 130<290.903 471.734> 0 21G<573.054 683> 250 128<375 525> 550 130<290.872 462.95>
VStem: 35 167<218.584 452.202> 525 158<164.801 250>
AnchorPoint: "Anchor-1" 350 0 basechar 0
AnchorPoint: "Anchor-0" 370 668 basechar 0
LayerCount: 2
Fore
SplineSet
352.658079177 -12 m 0,0,1
 254 -12 254 -12 181.883148295 31.1685379923 c 0,2,3
 112 73 112 73 73.9977280485 150.485151901 c 0,4,5
 35 230 35 230 35 333.411551434 c 0,6,7
 35 442 35 442 79.4379270674 521.574892656 c 0,8,9
 121 596 121 596 196.126062271 637.245681247 c 0,10,11
 274 680 274 680 373.223945074 680 c 0,12,13
 463 680 463 680 532.141314352 645.67452479 c 0,14,15
 604 610 604 610 644 542 c 1,16,-1
 508 486 l 1,17,18
 492 512 492 512 463.121181944 528.379031136 c 0,19,20
 425 550 425 550 376.791535597 550 c 0,21,22
 326 550 326 550 287.630970165 526.388289332 c 0,23,24
 248 502 248 502 226.215685402 457.010654635 c 0,25,26
 202 407 202 407 202 333.907305593 c 0,27,28
 202 231 202 231 251.368591153 172.889054163 c 0,29,30
 298 118 298 118 378.007079304 118 c 0,31,32
 413 118 413 118 442.59149183 127.138548947 c 0,33,34
 481 139 481 139 501.469689574 162.26101088 c 0,35,36
 525 189 525 189 525 231 c 2,37,-1
 525 250 l 1,38,-1
 375 250 l 1,39,-1
 375 378 l 1,40,-1
 683 378 l 1,41,-1
 683 0 l 1,42,-1
 579 0 l 1,43,-1
 557 74 l 1,44,45
 493 -12 493 -12 352.658079177 -12 c 0,0,1
EndSplineSet
EndChar

StartChar: H
Encoding: 72 72 22
Width: 679
GlyphClass: 2
Flags: W
HStem: 0 21G<44 202 477 635> 274 139<202 477> 648 20G<44 202 477 635>
VStem: 44 158<0 274 413 668> 477 158<0 274 413 668>
AnchorPoint: "Anchor-1" 340 0 basechar 0
AnchorPoint: "Anchor-0" 340 668 basechar 0
LayerCount: 2
Fore
SplineSet
44 0 m 1,0,-1
 44 668 l 1,1,-1
 202 668 l 1,2,-1
 202 413 l 1,3,-1
 477 413 l 1,4,-1
 477 668 l 1,5,-1
 635 668 l 1,6,-1
 635 0 l 1,7,-1
 477 0 l 1,8,-1
 477 274 l 1,9,-1
 202 274 l 1,10,-1
 202 0 l 1,11,-1
 44 0 l 1,0,-1
EndSplineSet
EndChar

StartChar: I
Encoding: 73 73 23
Width: 458
GlyphClass: 2
Flags: W
HStem: 0 124<57 151 309 401> 544 124<57 151 309 401>
VStem: 57 344<0 124 544 668>
AnchorPoint: "Anchor-2" 331 0 basechar 0
AnchorPoint: "Anchor-1" 229 0 basechar 0
AnchorPoint: "Anchor-0" 231 668 basechar 0
LayerCount: 2
Fore
SplineSet
57 0 m 1,0,-1
 57 124 l 1,1,-1
 151 124 l 1,2,-1
 151 544 l 1,3,-1
 57 544 l 1,4,-1
 57 668 l 1,5,-1
 401 668 l 1,6,-1
 401 544 l 1,7,-1
 309 544 l 1,8,-1
 309 124 l 1,9,-1
 401 124 l 1,10,-1
 401 0 l 1,11,-1
 57 0 l 1,0,-1
EndSplineSet
EndChar

StartChar: J
Encoding: 74 74 24
Width: 560
GlyphClass: 1
Flags: W
HStem: -12 125<196.883 321.161> 648 20G<358 516>
VStem: 358 158<154.008 668>
AnchorPoint: "Anchor-0" 441 668 basechar 0
LayerCount: 2
Fore
SplineSet
256.682820219 -12 m 0,0,1
 150 -12 150 -12 83.9898030531 42.2987103918 c 0,2,3
 26 90 26 90 5 175 c 1,4,-1
 150 228 l 1,5,6
 156 200 156 200 166.559070825 177.614769851 c 0,7,8
 181 147 181 147 201.187838238 131.037523253 c 0,9,10
 224 113 224 113 258.891249782 113 c 0,11,12
 305 113 305 113 329.001988991 141.530666159 c 0,13,14
 358 176 358 176 358 256 c 2,15,-1
 358 668 l 1,16,-1
 516 668 l 1,17,-1
 516 256 l 2,18,19
 516 131 516 131 450.879308217 60.9830156021 c 0,20,21
 383 -12 383 -12 256.682820219 -12 c 0,0,1
EndSplineSet
EndChar

StartChar: K
Encoding: 75 75 25
Width: 659
GlyphClass: 2
Flags: W
HStem: 0 21G<44 202 451.588 649> 648 20G<44 202 424.811 636>
VStem: 44 158<0 197 403 668> 443 193<475 668> 466 183<0 183>
DStem2: 202 403 372 382 0.677631 0.735402<99.7539 358.191> 372 382 270 272 0.587037 -0.80956<29.1738 364.433>
AnchorPoint: "Anchor-1" 319 0 basechar 0
AnchorPoint: "Anchor-0" 330 668 basechar 0
LayerCount: 2
Fore
SplineSet
44 0 m 1,0,-1
 44 668 l 1,1,-1
 202 668 l 1,2,-1
 202 403 l 1,3,-1
 443 668 l 1,4,-1
 636 668 l 1,5,-1
 372 382 l 1,6,-1
 649 0 l 1,7,-1
 466 0 l 1,8,-1
 270 272 l 1,9,-1
 202 197 l 1,10,-1
 202 0 l 1,11,-1
 44 0 l 1,0,-1
EndSplineSet
EndChar

StartChar: L
Encoding: 76 76 26
Width: 537
GlyphClass: 2
Flags: W
HStem: 0 139<202 522> 648 20G<44 202>
VStem: 44 158<139 668>
AnchorPoint: "Anchor-1" 269 0 basechar 0
AnchorPoint: "Anchor-0" 127 668 basechar 0
LayerCount: 2
Fore
SplineSet
44 0 m 1,0,-1
 44 668 l 1,1,-1
 202 668 l 1,2,-1
 202 139 l 1,3,-1
 522 139 l 1,4,-1
 522 0 l 1,5,-1
 44 0 l 1,0,-1
EndSplineSet
EndChar

StartChar: M
Encoding: 77 77 27
Width: 842
GlyphClass: 1
Flags: W
HStem: 0 21G<44 197 348.981 491.057 644 798> 648 20G<44 286.804 555.113 798>
VStem: 44 153<0 525> 644 154<0 525>
DStem2: 281 668 197 525 0.288184 -0.957575<112.726 498.736> 420 189 485 0 0.289856 0.95707<0 386.503>
AnchorPoint: "Anchor-0" 420 668 basechar 0
LayerCount: 2
Fore
SplineSet
44 0 m 1,0,-1
 44 668 l 1,1,-1
 281 668 l 1,2,-1
 420 189 l 1,3,-1
 561 668 l 1,4,-1
 798 668 l 1,5,-1
 798 0 l 1,6,-1
 644 0 l 1,7,-1
 644 525 l 1,8,-1
 485 0 l 1,9,-1
 355 0 l 1,10,-1
 197 525 l 1,11,-1
 197 0 l 1,12,-1
 44 0 l 1,0,-1
EndSplineSet
EndChar

StartChar: N
Encoding: 78 78 28
Width: 700
GlyphClass: 2
Flags: W
HStem: 0 21G<44 196 443.16 656> 648 20G<44 255.84 503 656>
VStem: 44 152<0 476> 503 153<192 668>
DStem2: 245 668 196 476 0.476521 -0.879163<145.45 541.424>
AnchorPoint: "Anchor-1" 322 0 basechar 0
AnchorPoint: "Anchor-0" 365 668 basechar 0
LayerCount: 2
Fore
SplineSet
44 0 m 1,0,-1
 44 668 l 1,1,-1
 245 668 l 1,2,-1
 503 192 l 1,3,-1
 503 668 l 1,4,-1
 656 668 l 1,5,-1
 656 0 l 1,6,-1
 454 0 l 1,7,-1
 196 476 l 1,8,-1
 196 0 l 1,9,-1
 44 0 l 1,0,-1
EndSplineSet
EndChar

StartChar: O
Encoding: 79 79 29
Width: 764
GlyphClass: 2
Flags: W
HStem: -12 130<296.47 464.866> 550 130<296.758 465.206>
VStem: 35 167<221.927 446.834> 561 168<221.112 446.119>
AnchorPoint: "Anchor-2" 688 10 basechar 0
AnchorPoint: "Anchor-1" 382 0 basechar 0
AnchorPoint: "Anchor-0" 382 668 basechar 0
LayerCount: 2
Fore
SplineSet
381.5 118 m 128,-1,1
 430 118 430 118 469.558568784 141.638656956 c 0,2,3
 512 167 512 167 535.240111465 212.531646952 c 0,4,5
 561 263 561 263 561 334.890035229 c 0,6,7
 561 405 561 405 535.106135509 455.730836553 c 0,8,9
 512 501 512 501 470.263575828 525.940058347 c 0,10,11
 430 550 430 550 381.719762085 550 c 0,12,13
 333 550 333 550 293.395147016 526.333685412 c 0,14,15
 251 501 251 501 227.766553988 455.481411895 c 0,16,17
 202 405 202 405 202 333.105373221 c 0,18,19
 202 263 202 263 227.893464645 212.269946818 c 0,20,21
 251 167 251 167 292.841691609 141.997037941 c 0,22,0
 333 118 333 118 381.5 118 c 128,-1,1
381.5 -12 m 128,-1,24
 279 -12 279 -12 200.022522253 31.5388659375 c 0,25,26
 123 74 123 74 80.1026099478 150.045373274 c 0,27,28
 35 230 35 230 35 334.643504298 c 0,29,30
 35 438 35 438 79.8957222132 517.587871196 c 0,31,32
 123 594 123 594 199.716877465 636.292637577 c 0,33,34
 279 680 279 680 381.918106679 680 c 0,35,36
 484 680 484 680 562.99803881 636.449799118 c 0,37,38
 640 594 640 594 683.199114983 518.28020295 c 0,39,40
 729 438 729 438 729 333.250843101 c 0,41,42
 729 230 729 230 683.422650017 150.111611266 c 0,43,44
 640 74 640 74 563.555497838 31.8575180389 c 0,45,23
 484 -12 484 -12 381.5 -12 c 128,-1,24
EndSplineSet
Substitution2: "Single Substitution lookup 12 subtable" ordmasculine
Substitution2: "'aalt' Access All Alternates lookup 0 subtable" ordmasculine
EndChar

StartChar: P
Encoding: 80 80 30
Width: 626
GlyphClass: 1
Flags: W
HStem: 0 21G<44 202> 232 131<202 406.407> 535 133<202 408.085>
VStem: 44 158<0 232 363 535> 437 167<393.738 506.218>
AnchorPoint: "Anchor-0" 292 668 basechar 0
LayerCount: 2
Fore
SplineSet
202 363 m 1,0,-1
 306 363 l 2,1,2
 343 363 343 363 368.647372512 369.085817206 c 0,3,4
 402 377 402 377 418.570820788 394.991176856 c 0,5,6
 437 415 437 415 437 450.452650361 c 0,7,8
 437 485 437 485 418.032986657 505.050842677 c 0,9,10
 402 522 402 522 368.844999046 529.305339193 c 0,11,12
 343 535 343 535 306 535 c 2,13,-1
 202 535 l 1,14,-1
 202 363 l 1,0,-1
44 0 m 1,15,-1
 44 668 l 1,16,-1
 301 668 l 2,17,18
 388 668 388 668 448.468488813 652.110470093 c 0,19,20
 525 632 525 632 562.375683464 587.527667776 c 0,21,22
 604 538 604 538 604 449.354168639 c 0,23,24
 604 363 604 363 561.60436035 312.017901687 c 0,25,26
 525 268 525 268 449.527160586 248.16772103 c 0,27,28
 388 232 388 232 301 232 c 2,29,-1
 202 232 l 1,30,-1
 202 0 l 1,31,-1
 44 0 l 1,15,-1
EndSplineSet
EndChar

StartChar: Q
Encoding: 81 81 31
Width: 781
GlyphClass: 1
Flags: W
HStem: -12 130<296.411 465.085> 550 130<296.76 465.236>
VStem: 35 167<221.925 446.834> 561 168<251.761 446.327>
DStem2: 421 372 338 285 0.727013 -0.686624<0 176.866 342.458 493.803>
LayerCount: 2
Fore
SplineSet
382.415060569 118 m 0,0,1
 438 118 438 118 481 149 c 1,2,-1
 338 285 l 1,3,-1
 421 372 l 1,4,-1
 550 251 l 1,5,6
 556 270 556 270 558.669954772 291.893629129 c 0,7,8
 561 311 561 311 561 333.155932978 c 0,9,10
 561 405 561 405 534.957020835 456.022979589 c 0,11,12
 512 501 512 501 470.329918687 525.900414443 c 0,13,14
 430 550 430 550 381.699800367 550 c 0,15,16
 333 550 333 550 293.399342682 526.336192578 c 0,17,18
 251 501 251 501 227.765949472 455.480227537 c 0,19,20
 202 405 202 405 202 333.105789597 c 0,21,22
 202 263 202 263 227.893500906 212.269875777 c 0,23,24
 251 167 251 167 292.650151934 142.111494576 c 0,25,26
 333 118 333 118 382.415060569 118 c 0,0,1
698 -55 m 1,27,-1
 589 48 l 1,28,29
 503 -12 503 -12 381.693464052 -12 c 0,30,31
 279 -12 279 -12 199.985757582 31.5591336408 c 0,32,33
 123 74 123 74 80.1078584477 150.036069115 c 0,34,35
 35 230 35 230 35 334.646529573 c 0,36,37
 35 438 35 438 79.8954003687 517.587300654 c 0,38,39
 123 594 123 594 199.717023025 636.292717821 c 0,40,41
 279 680 279 680 381.918059634 680 c 0,42,43
 484 680 484 680 562.998047795 636.449794164 c 0,44,45
 640 594 640 594 683.199113686 518.280205224 c 0,46,47
 729 438 729 438 729 334.33070325 c 0,48,49
 729 276 729 276 713.842982231 223.734421488 c 0,50,51
 700 176 700 176 674 135 c 1,52,-1
 781 34 l 1,53,-1
 698 -55 l 1,27,-1
EndSplineSet
EndChar

StartChar: R
Encoding: 82 82 32
Width: 654
GlyphClass: 2
Flags: W
HStem: 0 21G<44 202 439.635 637> 252 132<202 273> 535 133<202 410.081>
VStem: 44 158<0 252 384 535> 437 167<409.321 510.427> 454 183<0 183>
DStem2: 443 269 273 252 0.58494 -0.811077<0 224.614>
AnchorPoint: "Anchor-1" 327 0 basechar 0
AnchorPoint: "Anchor-0" 307 668 basechar 0
LayerCount: 2
Fore
SplineSet
202 384 m 1,0,-1
 306 384 l 2,1,2
 362 384 362 384 392.518487703 395.800481912 c 0,3,4
 437 413 437 413 437 461.483563381 c 0,5,6
 437 506 437 506 392.815621646 523.084626297 c 0,7,8
 362 535 362 535 306 535 c 2,9,-1
 202 535 l 1,10,-1
 202 384 l 1,0,-1
44 0 m 1,11,-1
 44 668 l 1,12,-1
 301 668 l 2,13,14
 388 668 388 668 448.172820699 653.066599243 c 0,15,16
 525 634 525 634 562.599349648 591.165297869 c 0,17,18
 604 544 604 544 604 467.491051465 c 0,19,20
 604 423 604 423 591.125602029 388.515005434 c 0,21,22
 576 348 576 348 545.010833565 320.154662044 c 0,23,24
 507 286 507 286 443 269 c 1,25,-1
 637 0 l 1,26,-1
 454 0 l 1,27,-1
 273 252 l 1,28,-1
 202 252 l 1,29,-1
 202 0 l 1,30,-1
 44 0 l 1,11,-1
EndSplineSet
EndChar

StartChar: S
Encoding: 83 83 33
Width: 619
GlyphClass: 2
Flags: W
HStem: -12 127<223.248 407.29> 553 127<217.678 384.052>
VStem: 28 162<445.771 530.245> 434 162<140.358 229.805>
DStem2: 266 421 231 285 0.980581 -0.196116<-69.2764 185.595>
AnchorPoint: "Anchor-1" 329 0 basechar 0
AnchorPoint: "Anchor-0" 304 668 basechar 0
LayerCount: 2
Fore
SplineSet
307.493825791 -12 m 0,0,1
 205 -12 205 -12 130.579560228 32.4524774478 c 128,-1,2
 56 77 56 77 25 157 c 1,3,-1
 169 209 l 1,4,5
 183 161 183 161 223.304114152 136.92221752 c 0,6,7
 260 115 260 115 314.385802067 115 c 0,8,9
 344 115 344 115 367.983822223 120.773883128 c 0,10,11
 398 128 398 128 414.501383172 142.209524398 c 0,12,13
 434 159 434 159 434 185.287467312 c 0,14,15
 434 220 434 220 395.738696056 241.943983144 c 0,16,17
 366 259 366 259 312 269 c 2,18,-1
 231 285 l 2,19,20
 177 296 177 296 135.817397429 315.92706576 c 0,21,22
 84 341 84 341 57.7581430443 376.145344137 c 0,23,24
 28 416 28 416 28 473.915871827 c 0,25,26
 28 527 28 527 54.8063450952 568.817898348 c 0,27,28
 78 605 78 605 121.898944028 631.445147005 c 0,29,30
 161 655 161 655 212.218006425 667.804501606 c 0,31,32
 261 680 261 680 310.311616151 680 c 0,33,34
 365 680 365 680 413.118663511 665.70732767 c 0,35,36
 466 650 466 650 502.878202674 620.958415394 c 0,37,38
 546 587 546 587 567 535 c 1,39,-1
 424 483 l 1,40,41
 411 517 411 517 376.935447937 535.303341407 c 0,42,43
 344 553 344 553 296.686153384 553 c 0,44,45
 251 553 251 553 222.225661679 537.433554679 c 0,46,47
 190 520 190 520 190 489.013716257 c 0,48,49
 190 464 190 464 211.639826031 445.451577688 c 0,50,51
 232 428 232 428 266 421 c 2,52,-1
 356 403 l 2,53,54
 397 395 397 395 430.102954407 385.147930236 c 0,55,56
 481 370 481 370 512.942275628 351.554460553 c 0,57,58
 552 329 552 329 572.250648423 297.703543346 c 0,59,60
 596 261 596 261 596 208.90841406 c 0,61,62
 596 156 596 156 569.880806341 111.757284211 c 0,63,64
 547 73 547 73 505.14686038 44.0644960652 c 0,65,66
 466 17 466 17 416.960371003 2.77850759092 c 0,67,68
 366 -12 366 -12 307.493825791 -12 c 0,0,1
EndSplineSet
EndChar

StartChar: T
Encoding: 84 84 34
Width: 617
GlyphClass: 2
Flags: W
HStem: 0 21G<230 387> 529 139<15 230 387 602>
VStem: 230 157<0 529>
AnchorPoint: "Anchor-1" 309 0 basechar 0
AnchorPoint: "Anchor-0" 309 668 basechar 0
LayerCount: 2
Fore
SplineSet
230 0 m 1,0,-1
 230 529 l 1,1,-1
 15 529 l 1,2,-1
 15 668 l 1,3,-1
 602 668 l 1,4,-1
 602 529 l 1,5,-1
 387 529 l 1,6,-1
 387 0 l 1,7,-1
 230 0 l 1,0,-1
EndSplineSet
EndChar

StartChar: U
Encoding: 85 85 35
Width: 663
GlyphClass: 2
Flags: W
HStem: -12 129<249.559 415.738> 648 20G<44 202 461 619>
VStem: 44 158<165.594 668> 461 158<165.563 668>
AnchorPoint: "Anchor-2" 440 0 basechar 0
AnchorPoint: "Anchor-1" 332 0 basechar 0
AnchorPoint: "Anchor-0" 332 668 basechar 0
LayerCount: 2
Fore
SplineSet
331 -12 m 128,-1,1
 175 -12 175 -12 107.072022954 65.7801263881 c 0,2,3
 44 138 44 138 44 292 c 2,4,-1
 44 668 l 1,5,-1
 202 668 l 1,6,-1
 202 279 l 2,7,8
 202 230 202 230 210.130398172 198.762154391 c 0,9,10
 221 157 221 157 247.988557053 137.722459248 c 0,11,12
 277 117 277 117 332.487917313 117 c 0,13,14
 387 117 387 117 416.50737078 138.459906022 c 0,15,16
 442 157 442 157 452.640983916 197.88378031 c 0,17,18
 461 230 461 230 461 279 c 2,19,-1
 461 668 l 1,20,-1
 619 668 l 1,21,-1
 619 292 l 2,22,23
 619 138 619 138 555.321199063 65.6377262084 c 0,24,0
 487 -12 487 -12 331 -12 c 128,-1,1
EndSplineSet
EndChar

StartChar: V
Encoding: 86 86 36
Width: 656
GlyphClass: 1
Flags: W
HStem: 0 21G<229.234 425.796> 648 20G<10 180.232 474.727 646>
VStem: 10 164<504 668> 481 165<503 668>
DStem2: 174 668 10 668 0.320479 -0.947256<0 514.136> 327 177 419 0 0.32175 0.946825<0 514.44>
LayerCount: 2
Fore
SplineSet
236 0 m 1,0,-1
 10 668 l 1,1,-1
 174 668 l 1,2,-1
 327 177 l 1,3,-1
 481 668 l 1,4,-1
 646 668 l 1,5,-1
 419 0 l 1,6,-1
 236 0 l 1,0,-1
EndSplineSet
EndChar

StartChar: W
Encoding: 87 87 37
Width: 883
GlyphClass: 1
Flags: W
HStem: 0 21G<166.18 344.298 538.66 716.82> 648 20G<10 172.017 354.767 527.276 710.983 873>
VStem: 10 158<510 668> 715 158<510 668>
DStem2: 261 205 340 0 0.210097 0.97768<0 296.903> 523 668 441 470 0.212084 -0.977251<176.105 473.464>
AnchorPoint: "Anchor-0" 441 668 basechar 0
LayerCount: 2
Fore
SplineSet
171 0 m 1,0,-1
 10 668 l 1,1,-1
 168 668 l 1,2,-1
 261 205 l 1,3,-1
 359 668 l 1,4,-1
 523 668 l 1,5,-1
 622 205 l 1,6,-1
 715 668 l 1,7,-1
 873 668 l 1,8,-1
 712 0 l 1,9,-1
 543 0 l 1,10,-1
 441 470 l 1,11,-1
 340 0 l 1,12,-1
 171 0 l 1,0,-1
EndSplineSet
EndChar

StartChar: X
Encoding: 88 88 38
Width: 699
GlyphClass: 1
Flags: W
HStem: 0 21G<10 214.123 484.782 689> 648 20G<24 227.167 471.729 675>
VStem: 10 190<0 190> 24 189<479 668> 486 189<479 668> 499 190<0 190>
DStem2: 10 0 200 0 0.580315 0.814392<110.26 368.564 584.377 820.244> 213 668 24 668 0.580315 -0.814392<0 235.286 451.1 709.984>
LayerCount: 2
Fore
SplineSet
10 0 m 1,0,-1
 255 343 l 1,1,-1
 24 668 l 1,2,-1
 213 668 l 1,3,-1
 349 476 l 1,4,-1
 486 668 l 1,5,-1
 675 668 l 1,6,-1
 444 343 l 1,7,-1
 689 0 l 1,8,-1
 499 0 l 1,9,-1
 349 211 l 1,10,-1
 200 0 l 1,11,-1
 10 0 l 1,0,-1
EndSplineSet
EndChar

StartChar: Y
Encoding: 89 89 39
Width: 687
GlyphClass: 2
Flags: W
HStem: 0 21G<265 422> 648 20G<10 205.595 480.405 677>
VStem: 10 184<484 668> 265 157<0 260> 492 185<483 668>
DStem2: 194 668 10 668 0.529999 -0.847998<0 296.905> 343 411 422 260 0.529999 0.847998<0 296.905>
AnchorPoint: "Anchor-1" 344 0 basechar 0
AnchorPoint: "Anchor-0" 344 668 basechar 0
LayerCount: 2
Fore
SplineSet
265 0 m 1,0,-1
 265 260 l 1,1,-1
 10 668 l 1,2,-1
 194 668 l 1,3,-1
 343 411 l 1,4,-1
 492 668 l 1,5,-1
 677 668 l 1,6,-1
 422 260 l 1,7,-1
 422 0 l 1,8,-1
 265 0 l 1,0,-1
EndSplineSet
EndChar

StartChar: Z
Encoding: 90 90 40
Width: 621
GlyphClass: 2
Flags: W
HStem: 0 139<240 589> 529 139<47 369>
DStem2: 32 121 240 139 0.636833 0.771002<146.339 529.181>
AnchorPoint: "Anchor-1" 311 0 basechar 0
AnchorPoint: "Anchor-0" 311 668 basechar 0
LayerCount: 2
Fore
SplineSet
32 0 m 1,0,-1
 32 121 l 1,1,-1
 369 529 l 1,2,-1
 47 529 l 1,3,-1
 47 668 l 1,4,-1
 574 668 l 1,5,-1
 574 547 l 1,6,-1
 240 139 l 1,7,-1
 589 139 l 1,8,-1
 589 0 l 1,9,-1
 32 0 l 1,0,-1
EndSplineSet
EndChar

StartChar: a
Encoding: 97 97 41
Width: 553
GlyphClass: 2
Flags: W
HStem: -12 104<195.917 301.761> 0 21G<373 520> 220 90<229.915 353> 407 103<206.341 335.201>
VStem: 24 157<106.461 183.869> 356 147<126.067 220 308.606 383.35>
AnchorPoint: "Anchor-2" 520 0 basechar 0
AnchorPoint: "Anchor-1" 277 0 basechar 0
AnchorPoint: "Anchor-0" 285 496 basechar 0
LayerCount: 2
Fore
SplineSet
253.800721891 92 m 0,0,1
 296 92 296 92 320.801140071 111.840912056 c 0,2,3
 356 140 356 140 356 208 c 2,4,-1
 356 220 l 1,5,6
 277 213 277 213 238.91539122 201.495274431 c 0,7,8
 181 184 181 184 181 144.318685022 c 0,9,10
 181 121 181 121 200.901941144 106.571092671 c 128,-1,11
 221 92 221 92 253.800721891 92 c 0,0,1
199.087470692 -12 m 0,12,13
 148 -12 148 -12 108.273070665 6.335505847 c 0,14,15
 70 24 70 24 48.215716995 54.7821390288 c 0,16,17
 24 89 24 89 24 134.595590486 c 0,18,19
 24 195 24 195 69.6972099854 233.708224929 c 0,20,21
 109 267 109 267 189.871370533 286.671414454 c 0,22,23
 257 303 257 303 353 310 c 1,24,25
 353 363 353 363 336.761758894 384.014194372 c 0,26,27
 319 407 319 407 274.412984954 407 c 0,28,29
 239 407 239 407 216.305728029 392.997151337 c 0,30,31
 192 378 192 378 184 348 c 1,32,-1
 56 394 l 1,33,34
 81 444 81 444 135.273931525 474.616063937 c 0,35,36
 198 510 198 510 286.733491518 510 c 0,37,38
 389 510 389 510 441.836322576 466.4332077 c 0,39,40
 503 416 503 416 503 303 c 2,41,-1
 503 194 l 2,42,43
 503 162 503 162 504.876240246 127.289555457 c 0,44,45
 507 88 507 88 511.122915921 53.9859436492 c 0,46,47
 515 22 515 22 520 0 c 1,48,-1
 379 0 l 1,49,-1
 361 60 l 1,50,51
 333 21 333 21 286.338539792 2.884374272 c 0,52,53
 248 -12 248 -12 199.087470692 -12 c 0,12,13
EndSplineSet
Substitution2: "Single Substitution lookup 12 subtable" ordfeminine
Substitution2: "'aalt' Access All Alternates lookup 0 subtable" ordfeminine
EndChar

StartChar: b
Encoding: 98 98 42
Width: 596
GlyphClass: 1
Flags: W
HStem: -12 118<263.801 364.079> 0 21G<50 188.672> 392 118<267.257 367.197> 648 20G<50 202>
VStem: 50 152<428 668> 50 145<154.158 342.762> 414 158<160.331 340.464>
AnchorPoint: "Anchor-1" 353 -12 basechar 0
AnchorPoint: "Anchor-0" 355 496 basechar 0
LayerCount: 2
Fore
SplineSet
302.785922158 106 m 0,0,1
 349 106 349 106 379.621938086 142.275218963 c 0,2,3
 414 183 414 183 414 252.461994188 c 0,4,5
 414 320 414 320 378.855307156 358.92950592 c 0,6,7
 349 392 349 392 304.643556185 392 c 0,8,9
 260 392 260 392 231.555214817 362.679990658 c 0,10,11
 195 325 195 325 195 246.251858052 c 0,12,13
 195 172 195 172 231.829009625 134.604390227 c 0,14,15
 260 106 260 106 302.785922158 106 c 0,0,1
358.261248095 -12 m 0,16,17
 313 -12 313 -12 274.203063268 4.9457884577 c 0,18,19
 226 26 226 26 202 67 c 1,20,-1
 183 0 l 1,21,-1
 50 0 l 1,22,-1
 50 668 l 1,23,-1
 202 668 l 1,24,-1
 202 428 l 1,25,26
 226 469 226 469 274.418898326 491.81810151 c 0,27,28
 313 510 313 510 358.104559269 510 c 0,29,30
 417 510 417 510 465.507447566 479.621598494 c 0,31,32
 516 448 516 448 543.182404351 392.178991066 c 0,33,34
 572 333 572 333 572 251.417181636 c 0,35,36
 572 171 572 171 543.340699389 110.098986203 c 0,37,38
 516 52 516 52 465.725815407 19.4995170305 c 0,39,40
 417 -12 417 -12 358.261248095 -12 c 0,16,17
EndSplineSet
EndChar

StartChar: c
Encoding: 99 99 43
Width: 520
GlyphClass: 2
Flags: W
HStem: -12 118<224.118 354.655> 392 118<223.21 351.105>
VStem: 24 155<154.011 345.506>
AnchorPoint: "Anchor-1" 275 0 basechar 0
AnchorPoint: "Anchor-0" 280 496 basechar 0
LayerCount: 2
Fore
SplineSet
273.344900738 -12 m 0,0,1
 196 -12 196 -12 138.561253403 21.5482944723 c 0,2,3
 83 54 83 54 53.3490903195 113.804377152 c 0,4,5
 24 173 24 173 24 249.314012799 c 0,6,7
 24 329 24 329 56.6881362086 388.757999006 c 0,8,9
 88 446 88 446 144.822056198 477.622709536 c 0,10,11
 203 510 203 510 276.346866722 510 c 0,12,13
 321 510 321 510 359.6139398 499.097240527 c 0,14,15
 406 486 406 486 439.817288165 459.5947202 c 0,16,17
 479 429 479 429 502 380 c 1,18,-1
 375 334 l 1,19,20
 363 366 363 366 336.820973675 380.482014563 c 0,21,22
 316 392 316 392 289.11087604 392 c 0,23,24
 260 392 260 392 237.270915075 379.72629414 c 0,25,26
 210 365 210 365 195.606499179 336.212998358 c 0,27,28
 179 303 179 303 179 249.002391947 c 0,29,30
 179 196 179 196 196.684167115 161.184295992 c 0,31,32
 211 133 211 133 237.39842432 118.453929456 c 0,33,34
 260 106 260 106 289.472768173 106 c 128,-1,35
 319 106 319 106 341.758941002 118.931216478 c 0,36,37
 363 131 363 131 376 153 c 1,38,-1
 500 108 l 1,39,40
 475 63 475 63 434.591052658 34.0584566337 c 0,41,42
 401 10 401 10 356.939105451 -1.67879132617 c 0,43,44
 318 -12 318 -12 273.344900738 -12 c 0,0,1
EndSplineSet
EndChar

StartChar: d
Encoding: 100 100 44
Width: 596
GlyphClass: 2
Flags: W
HStem: -12 118<231.51 332.901> 0 21G<412.03 563> 392 118<229.75 329.453> 648 20G<394 546>
VStem: 24 158<160.462 340.387> 394 152<428 668> 401 145<154.249 342.963>
AnchorPoint: "Anchor-1" 243 -12 basechar 0
AnchorPoint: "Anchor-0" 240 496 basechar 0
LayerCount: 2
Fore
SplineSet
293.214077842 106 m 0,0,1
 336 106 336 106 363.881304158 134.310247299 c 0,2,3
 401 172 401 172 401 251.040408643 c 0,4,5
 401 325 401 325 364.546358959 362.575291534 c 0,6,7
 336 392 336 392 293.741837176 392 c 0,8,9
 247 392 247 392 216.711365249 358.449512276 c 0,10,11
 182 320 182 320 182 250.372813133 c 0,12,13
 182 183 182 183 216.184742464 142.504228158 c 0,14,15
 247 106 247 106 293.214077842 106 c 0,0,1
239 -12 m 0,16,17
 179 -12 179 -12 130.306143714 19.4788565887 c 0,18,19
 80 52 80 52 52.5967994031 110.231801268 c 0,20,21
 24 171 24 171 24 252.427074464 c 0,22,23
 24 333 24 333 52.9194643703 392.38818576 c 0,24,25
 80 448 80 448 129.05090283 478.718747227 c 0,26,27
 179 510 179 510 237.026002874 510 c 0,28,29
 284 510 284 510 324.021221663 490.920115254 c 0,30,31
 370 469 370 469 394 428 c 1,32,-1
 394 668 l 1,33,-1
 546 668 l 1,34,-1
 546 194 l 2,35,36
 546 157 546 157 548.728191283 117.246355587 c 0,37,38
 553 55 553 55 563 0 c 1,39,-1
 418 0 l 1,40,-1
 398 67 l 1,41,42
 367 24 367 24 321.210931499 4.13968113198 c 0,43,44
 284 -12 284 -12 239 -12 c 0,16,17
EndSplineSet
EndChar

StartChar: e
Encoding: 101 101 45
Width: 566
GlyphClass: 2
Flags: W
HStem: -12 118<221.288 374.466> 210 90<177 403> 397 113<219.476 365.549>
VStem: 24 153<150.403 210 300 354.863>
AnchorPoint: "Anchor-2" 404 10 basechar 0
AnchorPoint: "Anchor-1" 283 0 basechar 0
AnchorPoint: "Anchor-0" 284 496 basechar 0
LayerCount: 2
Fore
SplineSet
177 300 m 1,0,-1
 403 300 l 1,1,2
 402 348 402 348 367.302456634 374.565306639 c 0,3,4
 338 397 338 397 294.770627892 397 c 0,5,6
 251 397 251 397 221.086934774 376.462671636 c 0,7,8
 184 351 184 351 177 300 c 1,0,-1
289.215561524 -12 m 0,9,10
 216 -12 216 -12 155.994349002 18.7346017305 c 0,11,12
 93 51 93 51 59.2163121651 108.775002384 c 0,13,14
 24 169 24 169 24 248.779486451 c 0,15,16
 24 330 24 330 62.6523381208 391.420153726 c 0,17,18
 97 446 97 446 156.82171957 477.641240103 c 0,19,20
 218 510 218 510 291.656963534 510 c 0,21,22
 372 510 372 510 431.988848664 470.520159426 c 0,23,24
 489 433 489 433 518.329018586 367.009708183 c 0,25,26
 549 298 549 298 544 210 c 1,27,-1
 177 210 l 1,28,29
 181 158 181 158 219.251794269 129.172560841 c 0,30,31
 250 106 250 106 296.021158142 106 c 0,32,33
 327 106 327 106 353.902099995 117.077335292 c 0,34,35
 378 127 378 127 392 143 c 1,36,-1
 513 99 l 1,37,38
 474 42 474 42 412.279632702 13.5136766318 c 0,39,40
 357 -12 357 -12 289.215561524 -12 c 0,9,10
EndSplineSet
EndChar

StartChar: f
Encoding: 102 102 46
Width: 367
GlyphClass: 1
Flags: W
HStem: 0 21G<87 239> 380 116<5 87 239 347> 608 120<252.929 347>
VStem: 87 152<0 380 496 600.062>
AnchorPoint: "Anchor-0" 80 668 basechar 0
LayerCount: 2
Fore
SplineSet
87 0 m 1,0,-1
 87 380 l 1,1,-1
 5 380 l 1,2,-1
 5 496 l 1,3,-1
 87 496 l 1,4,-1
 87 577 l 2,5,6
 87 636 87 636 107.234203838 669.386436332 c 0,7,8
 127 702 127 702 171.569345762 715.795273688 c 0,9,10
 211 728 211 728 278 728 c 2,11,-1
 347 728 l 1,12,-1
 347 608 l 1,13,-1
 305 608 l 2,14,15
 265 608 265 608 252.532455579 600.327664972 c 0,16,17
 239 592 239 592 239 563 c 2,18,-1
 239 496 l 1,19,-1
 347 496 l 1,20,-1
 347 380 l 1,21,-1
 239 380 l 1,22,-1
 239 0 l 1,23,-1
 87 0 l 1,0,-1
EndSplineSet
EndChar

StartChar: g
Encoding: 103 103 47
Width: 597
GlyphClass: 2
Flags: W
HStem: -203 116<217.953 364.904> 18 118<226.485 327.059> 392 119<224.101 324.4> 476 20G<409.118 546>
VStem: 24 158<183.201 348.205> 395 151<-56.507 96 168.179 358.505>
AnchorPoint: "Anchor-1" 299 -251 basechar 0
AnchorPoint: "Anchor-0" 297 496 basechar 0
LayerCount: 2
Fore
SplineSet
294.026375253 136 m 0,0,1
 322 136 322 136 343.648678282 146.1616245 c 0,2,3
 371 159 371 159 385.146263239 185.406358046 c 0,4,5
 401 215 401 215 401 264.757819767 c 0,6,7
 401 336 401 336 363.415780282 368.380250834 c 0,8,9
 336 392 336 392 294.156981238 392 c 0,10,11
 247 392 247 392 217.746834947 364.997078413 c 0,12,13
 182 332 182 332 182 264.941040072 c 0,14,15
 182 201 182 201 216.991530613 166.008469387 c 0,16,17
 247 136 247 136 294.026375253 136 c 0,0,1
299.75722226 -203 m 0,18,19
 252 -203 252 -203 213.700839676 -193.425209919 c 0,20,21
 168 -182 168 -182 134.463823127 -157.779427814 c 0,22,23
 96 -130 96 -130 73 -85 c 1,24,-1
 197 -40 l 1,25,26
 211 -67 211 -67 241.949219081 -78.9035458003 c 0,27,28
 263 -87 263 -87 290.746203132 -87 c 0,29,30
 337 -87 337 -87 363.746487235 -66.2484150762 c 0,31,32
 395 -42 395 -42 395 7 c 2,33,-1
 395 96 l 1,34,35
 363 56 363 56 318.637527107 35.6894702416 c 0,36,37
 280 18 280 18 237.901900373 18 c 0,38,39
 184 18 184 18 136.361772629 46.194052934 c 0,40,41
 86 76 86 76 56.9998798759 126.516338281 c 0,42,43
 24 184 24 184 24 266.265860447 c 0,44,45
 24 346 24 346 57.3380240821 405.685817308 c 0,46,47
 86 457 86 457 136.450095396 485.37817866 c 0,48,49
 182 511 182 511 233.434787004 511 c 0,50,51
 280 511 280 511 321.31657489 491.054067294 c 0,52,53
 367 469 367 469 395 428 c 1,54,-1
 415 496 l 1,55,-1
 546 496 l 1,56,-1
 546 37 l 2,57,58
 546 -87 546 -87 474.920281349 -148.531696743 c 0,59,60
 412 -203 412 -203 299.75722226 -203 c 0,18,19
EndSplineSet
EndChar

StartChar: h
Encoding: 104 104 48
Width: 572
GlyphClass: 2
Flags: W
HStem: 0 21G<50 202 370 522> 392 118<267.191 407.609> 648 20G<50 202>
VStem: 50 152<0 356.464 430 668> 370 152<0 370.585>
AnchorPoint: "Anchor-1" 286 0 basechar 0
AnchorPoint: "Anchor-0" 126 668 basechar 0
LayerCount: 2
Fore
SplineSet
50 0 m 1,0,-1
 50 668 l 1,1,-1
 202 668 l 1,2,-1
 202 430 l 1,3,4
 219 458 219 458 250.676482764 478.850343085 c 0,5,6
 298 510 298 510 364.218288688 510 c 0,7,8
 451 510 451 510 488.79033034 453.048375403 c 0,9,10
 522 403 522 403 522 302 c 2,11,-1
 522 0 l 1,12,-1
 370 0 l 1,13,-1
 370 264 l 2,14,15
 370 299 370 299 366.977053605 320.916361364 c 0,16,17
 362 357 362 357 347.72088259 373.121584173 c 0,18,19
 331 392 331 392 294.858156419 392 c 0,20,21
 246 392 246 392 223.343876892 356.471079672 c 0,22,23
 202 323 202 323 202 255 c 2,24,-1
 202 0 l 1,25,-1
 50 0 l 1,0,-1
EndSplineSet
EndChar

StartChar: i
Encoding: 105 105 49
Width: 315
GlyphClass: 1
Flags: W
HStem: 0 21G<118 271> 380 116<24 118> 578 180<136.746 253.964>
VStem: 105 180<609.673 727.083> 118 153<0 380>
AnchorPoint: "Anchor-2" 271 0 basechar 0
LayerCount: 2
Fore
SplineSet
118 0 m 1,0,-1
 118 380 l 1,1,-1
 24 380 l 1,2,-1
 24 496 l 1,3,-1
 271 496 l 1,4,-1
 271 0 l 1,5,-1
 118 0 l 1,0,-1
195.5 578 m 128,-1,7
 158 578 158 578 131.411072824 604.588927176 c 128,-1,8
 105 631 105 631 105 668.468487017 c 128,-1,9
 105 706 105 706 131.720681656 732.216517851 c 0,10,11
 158 758 158 758 195.421601884 758 c 128,-1,12
 233 758 233 758 258.927481036 732.072518964 c 128,-1,13
 285 706 285 706 285 668.473887738 c 128,-1,14
 285 631 285 631 259.128339927 604.630808002 c 0,15,6
 233 578 233 578 195.5 578 c 128,-1,7
EndSplineSet
Substitution2: "Single Substitution lookup 4 subtable" dotlessi
Substitution2: "Single Substitution lookup 3 subtable" dotlessi
EndChar

StartChar: j
Encoding: 106 106 50
Width: 259
GlyphClass: 1
Flags: W
HStem: -161 120<-70 40.3789> 476 20G<55 207> 578 180<73.737 190.201>
VStem: 42 180<609.565 726.399> 55 152<-34.1362 496>
LayerCount: 2
Fore
SplineSet
17 -161 m 2,0,-1
 -70 -161 l 1,1,-1
 -70 -41 l 1,2,-1
 -11 -41 l 2,3,4
 28 -41 28 -41 40.7848537932 -34.3708165517 c 0,5,6
 55 -27 55 -27 55 -2 c 2,7,-1
 55 496 l 1,8,-1
 207 496 l 1,9,-1
 207 -24 l 2,10,11
 207 -80 207 -80 179.979108384 -112.425069939 c 0,12,13
 157 -140 157 -140 109.453887879 -151.746686524 c 0,14,15
 72 -161 72 -161 17 -161 c 2,0,-1
132 578 m 128,-1,17
 95 578 95 578 68.5 604.5 c 128,-1,18
 42 631 42 631 42 668.5 c 128,-1,19
 42 706 42 706 68.7151170761 732.211058263 c 0,20,21
 95 758 95 758 131.924605641 758 c 128,-1,22
 169 758 169 758 195.210626004 732.283914109 c 0,23,24
 222 706 222 706 222 668.398182283 c 0,25,26
 222 631 222 631 195.42908492 604.42908492 c 128,-1,16
 169 578 169 578 132 578 c 128,-1,17
EndSplineSet
EndChar

StartChar: k
Encoding: 107 107 51
Width: 567
GlyphClass: 2
Flags: W
HStem: 0 21G<50 202 368.667 563> 476 20G<350.34 548> 648 20G<50 202>
VStem: 50 152<0 125 308 668> 368 180<316 496> 383 180<0 180>
DStem2: 354 289 254 180 0.586002 -0.810309<29.7235 251.173>
AnchorPoint: "Anchor-1" 284 0 basechar 0
AnchorPoint: "Anchor-0" 284 796 basechar 0
LayerCount: 2
Fore
SplineSet
50 0 m 1,0,-1
 50 668 l 1,1,-1
 202 668 l 1,2,-1
 202 308 l 1,3,-1
 368 496 l 1,4,-1
 548 496 l 1,5,-1
 354 289 l 1,6,-1
 563 0 l 1,7,-1
 383 0 l 1,8,-1
 254 180 l 1,9,-1
 202 125 l 1,10,-1
 202 0 l 1,11,-1
 50 0 l 1,0,-1
EndSplineSet
EndChar

StartChar: l
Encoding: 108 108 52
Width: 314
GlyphClass: 2
Flags: W
HStem: 0 124<217.14 311> 648 20G<50 202>
VStem: 50 152<134.312 668>
AnchorPoint: "Anchor-1" 167 0 basechar 0
AnchorPoint: "Anchor-0" 129 680 basechar 0
LayerCount: 2
Fore
SplineSet
214 0 m 2,0,1
 153 0 153 0 120.396946719 9.50922387363 c 0,2,3
 81 21 81 21 64.9975877145 52.488617723 c 0,4,5
 50 82 50 82 50 140 c 2,6,-1
 50 668 l 1,7,-1
 202 668 l 1,8,-1
 202 180 l 2,9,10
 202 145 202 145 216.7184223 133.961183275 c 0,11,12
 230 124 230 124 268 124 c 2,13,-1
 311 124 l 1,14,-1
 311 0 l 1,15,-1
 214 0 l 2,0,1
EndSplineSet
EndChar

StartChar: m
Encoding: 109 109 53
Width: 886
GlyphClass: 2
Flags: W
HStem: 0 21G<50 202 366 519 684 836> 392 118<266.769 385.28 570.766 718.576> 476 20G<50 188.758>
VStem: 50 152<0 357.821> 366 153<0 360.434> 684 152<0 370.525>
AnchorPoint: "Anchor-1" 443 0 basechar 0
AnchorPoint: "Anchor-0" 451 496 basechar 0
LayerCount: 2
Fore
SplineSet
50 0 m 1,0,-1
 50 496 l 1,1,-1
 183 496 l 1,2,-1
 202 430 l 1,3,4
 219 458 219 458 250.410580332 478.940386888 c 0,5,6
 297 510 297 510 359.559518573 510 c 0,7,8
 411 510 411 510 446.351317859 489.087952816 c 0,9,10
 482 468 482 468 499 427 c 1,11,12
 528 468 528 468 573.691699091 489.562374852 c 0,13,14
 617 510 617 510 673.151078298 510 c 0,15,16
 764 510 764 510 802.607586447 452.624836808 c 0,17,18
 836 403 836 403 836 302 c 2,19,-1
 836 0 l 1,20,-1
 684 0 l 1,21,-1
 684 264 l 2,22,23
 684 299 684 299 681.012231137 320.661324259 c 0,24,25
 676 357 676 357 661.083065551 373.315397054 c 0,26,27
 644 392 644 392 608.206598856 392 c 0,28,29
 561 392 561 392 539.386638135 358.550749495 c 0,30,31
 519 327 519 327 519 262 c 2,32,-1
 519 0 l 1,33,-1
 366 0 l 1,34,-1
 366 264 l 2,35,36
 366 299 366 299 363.482265653 319.861227449 c 0,37,38
 359 357 359 357 344.416161479 373.465624137 c 0,39,40
 328 392 328 392 292.747021807 392 c 0,41,42
 245 392 245 392 222.695002537 356.726980757 c 0,43,44
 202 324 202 324 202 259 c 2,45,-1
 202 0 l 1,46,-1
 50 0 l 1,0,-1
EndSplineSet
EndChar

StartChar: n
Encoding: 110 110 54
Width: 572
GlyphClass: 2
Flags: W
HStem: 0 21G<50 202 370 522> 392 118<267.191 407.609> 476 20G<50 188.758>
VStem: 50 152<0 356.464> 370 152<0 370.585>
AnchorPoint: "Anchor-1" 286 0 basechar 0
AnchorPoint: "Anchor-0" 305 496 basechar 0
LayerCount: 2
Fore
SplineSet
50 0 m 1,0,-1
 50 496 l 1,1,-1
 183 496 l 1,2,-1
 202 430 l 1,3,4
 219 458 219 458 250.676482764 478.850343085 c 0,5,6
 298 510 298 510 364.218288688 510 c 0,7,8
 451 510 451 510 488.79033034 453.048375403 c 0,9,10
 522 403 522 403 522 302 c 2,11,-1
 522 0 l 1,12,-1
 370 0 l 1,13,-1
 370 264 l 2,14,15
 370 299 370 299 366.977053605 320.916361364 c 0,16,17
 362 357 362 357 347.72088259 373.121584173 c 0,18,19
 331 392 331 392 294.858156419 392 c 0,20,21
 246 392 246 392 223.343876892 356.471079672 c 0,22,23
 202 323 202 323 202 255 c 2,24,-1
 202 0 l 1,25,-1
 50 0 l 1,0,-1
EndSplineSet
EndChar

StartChar: o
Encoding: 111 111 55
Width: 573
GlyphClass: 2
Flags: W
HStem: -12 118<222.265 352.142> 392 118<220.742 351.883>
VStem: 24 155<151.898 347.048> 394 155<151.613 346.888>
AnchorPoint: "Anchor-2" 516 10 basechar 0
AnchorPoint: "Anchor-1" 287 0 basechar 0
AnchorPoint: "Anchor-0" 287 496 basechar 0
LayerCount: 2
Fore
SplineSet
287 106 m 128,-1,1
 333 106 333 106 360.088524549 135.308895413 c 0,2,3
 394 172 394 172 394 251.947492095 c 0,4,5
 394 329 394 329 358.116290611 364.883709389 c 0,6,7
 331 392 331 392 288.166333678 392 c 0,8,9
 242 392 242 392 214.705175026 364.705175026 c 0,10,11
 179 329 179 329 179 247.727975083 c 0,12,13
 179 172 179 172 213.365573267 135.417292974 c 0,14,0
 241 106 241 106 287 106 c 128,-1,1
286.5 -12 m 128,-1,16
 218 -12 218 -12 161.813153303 14.2205284586 c 0,17,18
 98 44 98 44 63.0730453055 99.2223472873 c 0,19,20
 24 161 24 161 24 251.719696228 c 0,21,22
 24 340 24 340 63.7216065935 401.72952376 c 0,23,24
 98 455 98 455 160.57810587 483.681631857 c 0,25,26
 218 510 218 510 285.747919046 510 c 0,27,28
 355 510 355 510 411.33353973 484.180460957 c 0,29,30
 475 455 475 455 509.646840664 401.156936807 c 0,31,32
 549 340 549 340 549 249.120503743 c 0,33,34
 549 161 549 161 509.450753014 98.4694338199 c 0,35,36
 475 44 475 44 412.254425163 14.7187317427 c 0,37,15
 355 -12 355 -12 286.5 -12 c 128,-1,16
EndSplineSet
Substitution2: "Single Substitution lookup 12 subtable" ordmasculine
Substitution2: "'aalt' Access All Alternates lookup 0 subtable" ordmasculine
EndChar

StartChar: p
Encoding: 112 112 56
Width: 596
GlyphClass: 1
Flags: W
HStem: -161 21G<50 202> -12 118<268.229 367.047> 392 118<267.139 365.186> 476 20G<50 187.882>
VStem: 50 152<-161 71> 50 145<156.53 345.157> 414 158<157.256 338.215>
AnchorPoint: "Anchor-0" 348 496 basechar 0
LayerCount: 2
Fore
SplineSet
304.026542156 106 m 0,0,1
 349 106 349 106 378.74297305 138.946062455 c 0,2,3
 414 178 414 178 414 248.404383242 c 0,4,5
 414 316 414 316 379.285252515 356.589550906 c 0,6,7
 349 392 349 392 303.373600274 392 c 0,8,9
 260 392 260 392 232.254980922 364.681827369 c 0,10,11
 195 328 195 328 195 248.889580005 c 0,12,13
 195 175 195 175 231.205553012 136.566412956 c 0,14,15
 260 106 260 106 304.026542156 106 c 0,0,1
50 -161 m 1,16,-1
 50 496 l 1,17,-1
 182 496 l 1,18,-1
 202 428 l 1,19,20
 226 469 226 469 274.418898326 491.81810151 c 0,21,22
 313 510 313 510 357.699518497 510 c 0,23,24
 417 510 417 510 465.851288618 478.419368974 c 0,25,26
 516 446 516 446 543.210217105 389.150082119 c 0,27,28
 572 329 572 329 572 247.436733998 c 0,29,30
 572 167 572 167 543.265215015 106.964824227 c 0,31,32
 516 50 516 50 466.559164854 19.0370527371 c 128,-1,33
 417 -12 417 -12 359.937514873 -12 c 0,34,35
 313 -12 313 -12 272.333108035 7.63229267262 c 0,36,37
 226 30 226 30 202 71 c 1,38,-1
 202 -161 l 1,39,-1
 50 -161 l 1,16,-1
EndSplineSet
EndChar

StartChar: q
Encoding: 113 113 57
Width: 601
GlyphClass: 1
Flags: W
HStem: -172 138<555.354 673.111> -12 118<229.633 328.163> 392 118<231.765 329.553> 476 20G<408.118 546>
VStem: 24 158<157.403 337.677> 394 152<-25.6837 70> 401 145<156.653 345.191>
LayerCount: 2
Fore
SplineSet
291.973457844 106 m 0,0,1
 336 106 336 106 364.568794007 136.326873638 c 0,2,3
 401 175 401 175 401 253.68320709 c 0,4,5
 401 328 401 328 364.141741838 364.291208037 c 0,6,7
 336 392 336 392 295.006396028 392 c 0,8,9
 247 392 247 392 216.057403727 355.820964358 c 0,10,11
 182 316 182 316 182 246.192609952 c 0,12,13
 182 178 182 178 217.045900158 139.179925979 c 0,14,15
 247 106 247 106 291.973457844 106 c 0,0,1
566.151158953 -172 m 0,16,17
 486 -172 486 -172 443.002837905 -136.480605226 c 0,18,19
 394 -96 394 -96 394 -10 c 2,20,-1
 394 70 l 1,21,22
 370 30 370 30 323.297991128 7.19204217878 c 0,23,24
 284 -12 284 -12 237.763353959 -12 c 0,25,26
 179 -12 179 -12 130.825991261 18.1695812302 c 0,27,28
 80 50 80 50 52.5986634717 107.249220961 c 0,29,30
 24 167 24 167 24 248.42839437 c 0,31,32
 24 329 24 329 52.8437579724 389.262851478 c 0,33,34
 80 446 80 446 128.826357535 477.564513962 c 0,35,36
 179 510 179 510 237.495845779 510 c 0,37,38
 284 510 284 510 323.913694295 490.971378301 c 0,39,40
 370 469 370 469 394 428 c 1,41,-1
 414 496 l 1,42,-1
 546 496 l 1,43,-1
 546 38 l 2,44,45
 546 7 546 7 552.101964432 -7.71650245432 c 0,46,47
 563 -34 563 -34 606.294863712 -34 c 0,48,49
 633 -34 633 -34 674 -24 c 1,50,-1
 674 -155 l 1,51,52
 658 -160 658 -160 637.175049056 -164.164990189 c 0,53,54
 598 -172 598 -172 566.151158953 -172 c 0,16,17
EndSplineSet
EndChar

StartChar: r
Encoding: 114 114 58
Width: 372
GlyphClass: 2
Flags: W
HStem: 0 21G<50 202> 361 149<259.548 357> 476 20G<50 175.934>
VStem: 50 152<0 326.678>
AnchorPoint: "Anchor-1" 128 0 basechar 0
AnchorPoint: "Anchor-0" 221 496 basechar 0
LayerCount: 2
Fore
SplineSet
50 0 m 1,0,-1
 50 496 l 1,1,-1
 170 496 l 1,2,-1
 197 405 l 1,3,4
 220 465 220 465 262.164593704 490.298756222 c 0,5,6
 300 513 300 513 357 510 c 1,7,-1
 357 358 l 1,8,9
 345 360 345 360 334.26656789 360.596301784 c 0,10,11
 327 361 327 361 319.687178517 361 c 0,12,13
 261 361 261 361 232.470272835 335.855155719 c 0,14,15
 202 309 202 309 202 250 c 2,16,-1
 202 0 l 1,17,-1
 50 0 l 1,0,-1
EndSplineSet
EndChar

StartChar: s
Encoding: 115 115 59
Width: 534
GlyphClass: 2
Flags: W
HStem: -12 111<182.339 349.463> 399 111<183.295 339.005>
VStem: 33 145<333.013 389.376> 361 146<114.57 172.006>
DStem2: 331 302 195 205 0.983353 -0.181706<-142.147 36.8627>
AnchorPoint: "Anchor-1" 267 0 basechar 0
AnchorPoint: "Anchor-0" 268 496 basechar 0
LayerCount: 2
Fore
SplineSet
263.978536475 -12 m 0,0,1
 177 -12 177 -12 114.737550243 19.3763526336 c 0,2,3
 50 52 50 52 21 114 c 1,4,-1
 150 161 l 1,5,6
 161 130 161 130 193.995468309 113.764134642 c 0,7,8
 224 99 224 99 266.495294253 99 c 0,9,10
 304 99 304 99 329.528422071 109.300942239 c 0,11,12
 361 122 361 122 361 144.478871562 c 0,13,14
 361 161 361 161 344.982538628 171.364239711 c 0,15,16
 327 183 327 183 284 190 c 2,17,-1
 195 205 l 2,18,19
 123 217 123 217 81.0635842611 251.481052941 c 0,20,21
 33 291 33 291 33 353.998859569 c 0,22,23
 33 405 33 405 66.3567239664 442.063026629 c 0,24,25
 96 475 96 475 149.455106178 492.989699194 c 0,26,27
 200 510 200 510 259.342539013 510 c 0,28,29
 332 510 332 510 385.982799217 487.246919338 c 0,30,31
 453 459 453 459 481 400 c 1,32,-1
 353 353 l 1,33,34
 346 380 346 380 315.642559967 391.092141551 c 0,35,36
 294 399 294 399 258.297338159 399 c 0,37,38
 178 399 178 399 178 360.200793521 c 0,39,40
 178 344 178 344 191.958750953 334.527990425 c 128,-1,41
 206 325 206 325 239 319 c 2,42,-1
 331 302 l 2,43,44
 421 286 421 286 461.447836262 256.839931997 c 0,45,46
 507 224 507 224 507 159.175181742 c 0,47,48
 507 104 507 104 472.50059036 63.2279704251 c 0,49,50
 441 26 441 26 384.224175435 6.38653333208 c 0,51,52
 331 -12 331 -12 263.978536475 -12 c 0,0,1
EndSplineSet
EndChar

StartChar: t
Encoding: 116 116 60
Width: 379
GlyphClass: 2
Flags: W
HStem: 0 124<261.567 355> 380 116<13 95 247 355>
VStem: 95 152<134.337 380 496 620>
AnchorPoint: "Anchor-1" 239 0 basechar 0
AnchorPoint: "Anchor-0" 170 620 basechar 0
LayerCount: 2
Fore
SplineSet
259 0 m 2,0,1
 198 0 198 0 165.396946719 9.50922387363 c 0,2,3
 126 21 126 21 109.997587715 52.488617723 c 0,4,5
 95 82 95 82 95 140 c 2,6,-1
 95 380 l 1,7,-1
 13 380 l 1,8,-1
 13 496 l 1,9,-1
 95 496 l 1,10,-1
 95 620 l 1,11,-1
 247 620 l 1,12,-1
 247 496 l 1,13,-1
 355 496 l 1,14,-1
 355 380 l 1,15,-1
 247 380 l 1,16,-1
 247 180 l 2,17,18
 247 145 247 145 261.160111099 133.986580256 c 0,19,20
 274 124 274 124 311 124 c 2,21,-1
 355 124 l 1,22,-1
 355 0 l 1,23,-1
 259 0 l 2,0,1
EndSplineSet
EndChar

StartChar: u
Encoding: 117 117 61
Width: 570
GlyphClass: 2
Flags: W
HStem: -12 118<187.405 309.801> 0 21G<381 519> 476 20G<50 202 366 519>
VStem: 50 152<128.232 496> 366 153<133.879 496>
AnchorPoint: "Anchor-2" 519 0 basechar 0
AnchorPoint: "Anchor-1" 285 0 basechar 0
AnchorPoint: "Anchor-0" 285 496 basechar 0
LayerCount: 2
Fore
SplineSet
218.80910353 -12 m 0,0,1
 156 -12 156 -12 117.497642642 13.154873474 c 0,2,3
 81 37 81 37 64.4969894125 87.0413869427 c 0,4,5
 50 131 50 131 50 198 c 2,6,-1
 50 496 l 1,7,-1
 202 496 l 1,8,-1
 202 219 l 2,9,10
 202 151 202 151 225.127404403 125.61626346 c 0,11,12
 243 106 243 106 279.661706911 106 c 0,13,14
 325 106 325 106 345.299198613 135.706144312 c 0,15,16
 366 166 366 166 366 235 c 2,17,-1
 366 496 l 1,18,-1
 519 496 l 1,19,-1
 519 0 l 1,20,-1
 387 0 l 1,21,-1
 366 70 l 1,22,23
 344 33 344 33 316.729700234 14.1205617002 c 0,24,25
 279 -12 279 -12 218.80910353 -12 c 0,0,1
EndSplineSet
EndChar

StartChar: v
Encoding: 118 118 62
Width: 526
GlyphClass: 1
Flags: W
HStem: 0 158<177 348> 476 20G<0 163.272 362.728 526>
VStem: 0 157<339 496> 369 157<339 496>
LayerCount: 2
Fore
SplineSet
177 0 m 1,0,-1
 0 496 l 1,1,-1
 157 496 l 1,2,-1
 263 158 l 1,3,-1
 369 496 l 1,4,-1
 526 496 l 1,5,-1
 348 0 l 1,6,-1
 177 0 l 1,0,-1
EndSplineSet
EndChar

StartChar: w
Encoding: 119 119 63
Width: 723
GlyphClass: 1
Flags: W
HStem: 0 21G<119 293.989 428.955 604> 476 20G<0 154.464 285.19 436.81 567.536 723>
VStem: 0 150<346 496> 572 151<345 496>
DStem2: 150 496 0 496 0.242536 -0.970143<0 344.158> 225 160 290 0 0.195586 0.980686<0 218.814> 433 496 361 356 0.198234 -0.980155<122.949 342.019> 497 160 599 0 0.242536 0.970143<0 344.158>
LayerCount: 2
Fore
SplineSet
124 0 m 1,0,-1
 0 496 l 1,1,-1
 150 496 l 1,2,-1
 225 160 l 1,3,-1
 289 496 l 1,4,-1
 433 496 l 1,5,-1
 497 160 l 1,6,-1
 572 496 l 1,7,-1
 723 496 l 1,8,-1
 599 0 l 1,9,-1
 433 0 l 1,10,-1
 361 356 l 1,11,-1
 290 0 l 1,12,-1
 124 0 l 1,0,-1
EndSplineSet
EndChar

StartChar: x
Encoding: 120 120 64
Width: 533
GlyphClass: 1
Flags: W
HStem: 0 21G<0 180.126 353.014 533> 476 20G<15 195.215 337.95 518>
VStem: 0 166<0 166> 367 166<0 166>
DStem2: 0 0 166 0 0.578747 0.815507<96.072 271.143 460.341 608.21> 181 496 15 496 0.578747 -0.815507<0 148.449 337.646 512.138>
LayerCount: 2
Fore
SplineSet
0 0 m 1,0,-1
 184 259 l 1,1,-1
 15 496 l 1,2,-1
 181 496 l 1,3,-1
 267 375 l 1,4,-1
 352 496 l 1,5,-1
 518 496 l 1,6,-1
 349 259 l 1,7,-1
 533 0 l 1,8,-1
 367 0 l 1,9,-1
 267 143 l 1,10,-1
 166 0 l 1,11,-1
 0 0 l 1,0,-1
EndSplineSet
EndChar

StartChar: y
Encoding: 121 121 65
Width: 518
GlyphClass: 2
Flags: W
HStem: -161 110<65 175.007> 476 20G<0 169.258 348.871 518>
AnchorPoint: "Anchor-1" 259 0 basechar 0
AnchorPoint: "Anchor-0" 260 496 basechar 0
LayerCount: 2
Fore
SplineSet
65 -161 m 1,0,-1
 65 -51 l 1,1,-1
 95 -51 l 2,2,3
 129 -51 129 -51 143.915207367 -48.3679045823 c 0,4,5
 163 -45 163 -45 173.10124877 -32.7721725411 c 0,6,7
 182 -22 182 -22 190 3 c 1,8,-1
 0 496 l 1,9,-1
 163 496 l 1,10,-1
 260 186 l 1,11,-1
 355 496 l 1,12,-1
 518 496 l 1,13,-1
 328 0 l 2,14,15
 304 -63 304 -63 281.568998656 -95.0442876343 c 0,16,17
 255 -133 255 -133 215.459020287 -147.567729368 c 0,18,19
 179 -161 179 -161 114 -161 c 2,20,-1
 65 -161 l 1,0,-1
EndSplineSet
EndChar

StartChar: z
Encoding: 122 122 66
Width: 516
GlyphClass: 2
Flags: W
HStem: 0 121<226 496> 375 121<44 287>
DStem2: 30 121 226 121 0.711246 0.702943<139.404 361.338>
AnchorPoint: "Anchor-1" 258 0 basechar 0
AnchorPoint: "Anchor-0" 268 496 basechar 0
LayerCount: 2
Fore
SplineSet
30 0 m 1,0,-1
 30 121 l 1,1,-1
 287 375 l 1,2,-1
 44 375 l 1,3,-1
 44 496 l 1,4,-1
 482 496 l 1,5,-1
 482 375 l 1,6,-1
 226 121 l 1,7,-1
 496 121 l 1,8,-1
 496 0 l 1,9,-1
 30 0 l 1,0,-1
EndSplineSet
EndChar

StartChar: circumflex
Encoding: 258 710 67
Width: 467
GlyphClass: 1
Flags: W
HStem: 635 91<188.052 279.052>
LayerCount: 2
Fore
SplineSet
37 574 m 1,0,-1
 184 706 l 2,1,2
 206 726 206 726 233.551743708 726 c 0,3,4
 248 726 248 726 261.805575682 720.159179519 c 0,5,6
 274 715 274 715 284 706 c 2,7,-1
 430 574 l 1,8,-1
 302 574 l 1,9,-1
 234 635 l 1,10,-1
 166 574 l 1,11,-1
 37 574 l 1,0,-1
EndSplineSet
EndChar

StartChar: caron
Encoding: 259 711 68
Width: 467
GlyphClass: 1
Flags: W
HStem: 568 91<188.5 279.5>
LayerCount: 2
Fore
SplineSet
233.5 568 m 128,-1,1
 205 568 205 568 184 587 c 2,2,-1
 37 720 l 1,3,-1
 166 720 l 1,4,-1
 234 659 l 1,5,-1
 302 720 l 1,6,-1
 430 720 l 1,7,-1
 284 587 l 2,8,0
 262 568 262 568 233.5 568 c 128,-1,1
EndSplineSet
EndChar

StartChar: breve
Encoding: 260 728 69
Width: 373
GlyphClass: 1
Flags: W
HStem: 569 77<153.868 247.132>
VStem: 57 287
LayerCount: 2
Fore
SplineSet
200.5 569 m 128,-1,1
 147 569 147 569 105.989556505 603.934822237 c 0,2,3
 66 638 66 638 57 689 c 1,4,-1
 142 689 l 1,5,6
 146 673 146 673 160.462897355 660.796930357 c 0,7,8
 178 646 178 646 201.015891186 646 c 0,9,10
 223 646 223 646 240.53423892 660.794514089 c 0,11,12
 255 673 255 673 259 689 c 1,13,-1
 344 689 l 1,14,15
 335 638 335 638 295.010443495 603.934822237 c 0,16,0
 254 569 254 569 200.5 569 c 128,-1,1
EndSplineSet
EndChar

StartChar: dotaccent
Encoding: 261 729 70
Width: 201
GlyphClass: 1
Flags: W
HStem: 578 141<51.7808 149.85>
VStem: 30 141<599.135 697.22>
LayerCount: 2
Fore
SplineSet
101 578 m 128,-1,1
 72 578 72 578 51.1265106153 598.376501542 c 0,2,3
 30 619 30 619 30 648.043545217 c 128,-1,4
 30 677 30 677 50.99211089 697.99211089 c 128,-1,5
 72 719 72 719 101.00272311 719 c 128,-1,6
 130 719 130 719 150.623017213 697.873982367 c 0,7,8
 171 677 171 677 171 648.043637116 c 128,-1,9
 171 619 171 619 150.492294065 598.492294065 c 128,-1,0
 130 578 130 578 101 578 c 128,-1,1
EndSplineSet
EndChar

StartChar: ring
Encoding: 262 730 71
Width: 295
GlyphClass: 1
Flags: W
HStem: 535 86<111.334 183.547> 715 85<110.869 183.539>
VStem: 15 85<632.276 704.516> 194 86<632.336 704.376>
LayerCount: 2
Fore
SplineSet
147.5 621 m 128,-1,1
 167 621 167 621 180.71039103 635.218183291 c 0,2,3
 194 649 194 649 194 668.423427618 c 128,-1,4
 194 688 194 688 180.572219953 701.427780047 c 128,-1,5
 167 715 167 715 147.473990098 715 c 128,-1,6
 128 715 128 715 114.220552395 701.712675523 c 0,7,8
 100 688 100 688 100 668.423799554 c 128,-1,9
 100 649 100 649 113.986296208 635.013703792 c 128,-1,0
 128 621 128 621 147.5 621 c 128,-1,1
147.5 535 m 128,-1,11
 111 535 111 535 80.2061753419 553.476294795 c 0,12,13
 51 571 51 571 33.5348560044 600.593716215 c 0,14,15
 15 632 15 632 15 668.76718718 c 0,16,17
 15 705 15 705 33.6774518259 735.61026827 c 0,18,19
 51 764 51 764 79.6319554667 781.17917328 c 0,20,21
 111 800 111 800 147.906887909 800 c 0,22,23
 184 800 184 800 215.100153173 781.339908096 c 0,24,25
 244 764 244 764 261.060669748 736.039457912 c 0,26,27
 280 705 280 705 280 668.035845692 c 0,28,29
 280 632 280 632 261.581261025 600.79047007 c 0,30,31
 244 571 244 571 214.970207583 553.58212455 c 0,32,10
 184 535 184 535 147.5 535 c 128,-1,11
EndSplineSet
EndChar

StartChar: ogonek
Encoding: 263 731 72
Width: 295
GlyphClass: 1
Flags: W
HStem: -174 76<163.83 257.732>
VStem: 37 126<-94.4143 -40.7536>
LayerCount: 2
Fore
SplineSet
175.176689785 -174 m 0,0,1
 125 -174 125 -174 90.2432148793 -157.742794056 c 0,2,3
 63 -145 63 -145 48.4987676021 -122.132671988 c 0,4,5
 37 -104 37 -104 37 -82.3060265661 c 0,6,7
 37 -50 37 -50 67.6189976654 -25.3847273671 c 0,8,9
 88 -9 88 -9 117 0 c 1,10,-1
 258 0 l 1,11,12
 224 -17 224 -17 210.722137176 -24.183106118 c 0,13,14
 163 -50 163 -50 163 -73.067428841 c 0,15,16
 163 -86 163 -86 180.611078493 -93.0444313972 c 0,17,18
 193 -98 193 -98 209.32930034 -98 c 0,19,20
 224 -98 224 -98 243.818734177 -92.3375045208 c 0,21,22
 252 -90 252 -90 258 -89 c 1,23,-1
 258 -164 l 1,24,25
 247 -168 247 -168 222.81852744 -170.96099664 c 0,26,27
 198 -174 198 -174 175.176689785 -174 c 0,0,1
EndSplineSet
EndChar

StartChar: quoteleft
Encoding: 264 8216 73
Width: 277
GlyphClass: 1
Flags: W
HStem: 339 329<124 160.601>
VStem: 41 195<376.477 496.5>
DStem2: 48 472 161 531 0.361528 0.932361<95.862 210.219>
LayerCount: 2
Fore
SplineSet
139 339 m 128,-1,1
 99 339 99 339 70 368 c 128,-1,2
 41 397 41 397 41 435.808411771 c 0,3,4
 41 446 41 446 43.3059858165 456.376936174 c 0,5,6
 45 464 45 464 48 472 c 2,7,-1
 124 668 l 1,8,-1
 214 668 l 1,9,-1
 161 531 l 1,10,11
 193 524 193 524 213.967420965 498.644049066 c 0,12,13
 236 472 236 472 236 436.909630331 c 0,14,15
 236 397 236 397 207.640030348 368.142487021 c 0,16,0
 179 339 179 339 139 339 c 128,-1,1
EndSplineSet
EndChar

StartChar: quoteright
Encoding: 265 8217 74
Width: 277
GlyphClass: 1
Flags: W
HStem: 351 329<116.207 153>
VStem: 41 195<522.5 643.362>
DStem2: 63 351 153 351 0.365652 0.930751<32.9087 145.962>
LayerCount: 2
Fore
SplineSet
63 351 m 1,0,-1
 116 487 l 1,1,2
 84 495 84 495 62.920380979 520.981856003 c 0,3,4
 41 548 41 548 41 582.880408066 c 0,5,6
 41 623 41 623 70.1477325558 651.645185443 c 0,7,8
 99 680 99 680 138.948927569 680 c 128,-1,9
 179 680 179 680 207.333158515 651.666841485 c 0,10,11
 236 623 236 623 236 582.519567692 c 0,12,13
 236 564 236 564 230 547 c 2,14,-1
 153 351 l 1,15,-1
 63 351 l 1,0,-1
EndSplineSet
EndChar

StartChar: quotesinglbase
Encoding: 266 8218 75
Width: 277
GlyphClass: 1
Flags: W
HStem: -146 330<116.207 153>
VStem: 41 195<26.375 147.362>
DStem2: 63 -146 153 -146 0.364043 0.931382<32.7639 146.894>
LayerCount: 2
Fore
SplineSet
63 -146 m 1,0,-1
 116 -9 l 1,1,2
 84 -1 84 -1 62.920380979 24.9818560027 c 0,3,4
 41 52 41 52 41 86.8804080656 c 0,5,6
 41 127 41 127 70.1477325558 155.645185443 c 0,7,8
 99 184 99 184 138.948927569 184 c 128,-1,9
 179 184 179 184 207.333158515 155.666841485 c 0,10,11
 236 127 236 127 236 86.5195676915 c 0,12,13
 236 68 236 68 230 51 c 2,14,-1
 153 -146 l 1,15,-1
 63 -146 l 1,0,-1
EndSplineSet
EndChar

StartChar: quotedblleft
Encoding: 267 8220 76
Width: 498
GlyphClass: 1
Flags: W
HStem: 339 329<124 160.601 345 381.16>
VStem: 41 195<376.477 497.625> 263 194<375.717 496.5>
DStem2: 51 480 161 531 0.361968 0.932191<87.3582 201.675> 270 472 382 531 0.357382 0.933958<95.1303 209.859>
LayerCount: 2
Fore
SplineSet
360.5 339 m 128,-1,1
 320 339 320 339 291.287577312 368.216149402 c 0,2,3
 263 397 263 397 263 435.707661607 c 0,4,5
 263 446 263 446 265.310787411 456.39854335 c 0,6,7
 267 464 267 464 270 472 c 2,8,-1
 345 668 l 1,9,-1
 436 668 l 1,10,-1
 382 531 l 1,11,12
 414 524 414 524 434.967420965 498.644049066 c 0,13,14
 457 472 457 472 457 436.744336006 c 0,15,16
 457 397 457 397 429.377458806 368.390939478 c 0,17,0
 401 339 401 339 360.5 339 c 128,-1,1
139 339 m 128,-1,19
 99 339 99 339 70 368 c 128,-1,20
 41 397 41 397 41 434.075324092 c 0,21,22
 41 446 41 446 45.0736211221 460.936610781 c 0,23,24
 47 468 47 468 51 480 c 2,25,-1
 124 668 l 1,26,-1
 214 668 l 1,27,-1
 161 531 l 1,28,29
 193 524 193 524 213.967420965 498.644049066 c 0,30,31
 236 472 236 472 236 436.909630331 c 0,32,33
 236 397 236 397 207.640030348 368.142487021 c 0,34,18
 179 339 179 339 139 339 c 128,-1,19
EndSplineSet
EndChar

StartChar: quotedblright
Encoding: 268 8221 77
Width: 498
GlyphClass: 1
Flags: W
HStem: 351 329<116.207 153 337.207 374>
VStem: 41 195<522.5 643.362> 262 195<522.5 643.362>
DStem2: 63 351 153 351 0.365652 0.930751<32.9087 145.962> 284 351 374 351 0.365652 0.930751<32.9087 145.962>
LayerCount: 2
Fore
SplineSet
284 351 m 1,0,-1
 337 487 l 1,1,2
 305 495 305 495 283.920380979 520.981856003 c 0,3,4
 262 548 262 548 262 582.880408066 c 0,5,6
 262 623 262 623 291.147732556 651.645185443 c 0,7,8
 320 680 320 680 359.948927569 680 c 128,-1,9
 400 680 400 680 428.333158515 651.666841485 c 0,10,11
 457 623 457 623 457 582.519567692 c 0,12,13
 457 564 457 564 451 547 c 2,14,-1
 374 351 l 1,15,-1
 284 351 l 1,0,-1
63 351 m 1,16,-1
 116 487 l 1,17,18
 84 495 84 495 62.920380979 520.981856003 c 0,19,20
 41 548 41 548 41 582.880408066 c 0,21,22
 41 623 41 623 70.1477325558 651.645185443 c 0,23,24
 99 680 99 680 138.948927569 680 c 128,-1,25
 179 680 179 680 207.333158515 651.666841485 c 0,26,27
 236 623 236 623 236 582.519567692 c 0,28,29
 236 564 236 564 230 547 c 2,30,-1
 153 351 l 1,31,-1
 63 351 l 1,16,-1
EndSplineSet
EndChar

StartChar: quotedblbase
Encoding: 269 8222 78
Width: 498
GlyphClass: 1
Flags: W
HStem: -146 330<116.207 153 338.669 374>
VStem: 41 195<26.375 147.362> 263 194<26.375 148.161>
DStem2: 63 -146 153 -146 0.364043 0.931382<32.7639 146.894> 285 -146 374 -146 0.364043 0.931382<32.3998 146.894>
LayerCount: 2
Fore
SplineSet
285 -146 m 1,0,-1
 338 -9 l 1,1,2
 306 -1 306 -1 284.920380979 24.9818560027 c 0,3,4
 263 52 263 52 263 87.0427082814 c 0,5,6
 263 127 263 127 291.492388523 155.492388523 c 128,-1,7
 320 184 320 184 360.502703716 184 c 128,-1,8
 401 184 401 184 429.037539044 155.461790615 c 128,-1,9
 457 127 457 127 457 86.6779889504 c 0,10,11
 457 68 457 68 451 51 c 2,12,-1
 374 -146 l 1,13,-1
 285 -146 l 1,0,-1
63 -146 m 1,14,-1
 116 -9 l 1,15,16
 84 -1 84 -1 62.920380979 24.9818560027 c 0,17,18
 41 52 41 52 41 86.8804080656 c 0,19,20
 41 127 41 127 70.1477325558 155.645185443 c 0,21,22
 99 184 99 184 138.948927569 184 c 128,-1,23
 179 184 179 184 207.333158515 155.666841485 c 0,24,25
 236 127 236 127 236 86.5195676915 c 0,26,27
 236 68 236 68 230 51 c 2,28,-1
 153 -146 l 1,29,-1
 63 -146 l 1,14,-1
EndSplineSet
EndChar

StartChar: dagger
Encoding: 270 8224 79
Width: 594
GlyphClass: 1
Flags: W
HStem: 0 21G<225 369> 380 116<41 225 369 553> 648 20G<225 369>
VStem: 225 144<0 380 496 668>
LayerCount: 2
Fore
SplineSet
225 0 m 1,0,-1
 225 380 l 1,1,-1
 41 380 l 1,2,-1
 41 496 l 1,3,-1
 225 496 l 1,4,-1
 225 668 l 1,5,-1
 369 668 l 1,6,-1
 369 496 l 1,7,-1
 553 496 l 1,8,-1
 553 380 l 1,9,-1
 369 380 l 1,10,-1
 369 0 l 1,11,-1
 225 0 l 1,0,-1
EndSplineSet
EndChar

StartChar: daggerdbl
Encoding: 271 8225 80
Width: 594
GlyphClass: 1
Flags: W
HStem: 0 21G<225 369> 173 115<41 225 369 553> 380 116<41 225 369 553> 648 20G<225 369>
VStem: 225 144<0 173 288 380 496 668>
LayerCount: 2
Fore
SplineSet
225 0 m 1,0,-1
 225 173 l 1,1,-1
 41 173 l 1,2,-1
 41 288 l 1,3,-1
 225 288 l 1,4,-1
 225 380 l 1,5,-1
 41 380 l 1,6,-1
 41 496 l 1,7,-1
 225 496 l 1,8,-1
 225 668 l 1,9,-1
 369 668 l 1,10,-1
 369 496 l 1,11,-1
 553 496 l 1,12,-1
 553 380 l 1,13,-1
 369 380 l 1,14,-1
 369 288 l 1,15,-1
 553 288 l 1,16,-1
 553 173 l 1,17,-1
 369 173 l 1,18,-1
 369 0 l 1,19,-1
 225 0 l 1,0,-1
EndSplineSet
EndChar

StartChar: bullet
Encoding: 272 8226 81
Width: 438
GlyphClass: 1
Flags: W
HStem: 88 332<137.584 301.285>
VStem: 53 332<172.512 335.435>
LayerCount: 2
Fore
SplineSet
219 88 m 128,-1,1
 173 88 173 88 134.383367808 111.169979315 c 0,2,3
 98 133 98 133 76.2163431034 169.790176092 c 0,4,5
 53 209 53 209 53 254.856498463 c 0,6,7
 53 300 53 300 76.1802313688 338.633718948 c 0,8,9
 98 375 98 375 133.902895993 396.541737596 c 0,10,11
 173 420 173 420 219.479618466 420 c 0,12,13
 265 420 265 420 303.711584883 396.77304907 c 0,14,15
 340 375 340 375 361.529702818 339.117161971 c 0,16,17
 385 300 385 300 385 254.019761208 c 0,18,19
 385 209 385 209 361.95109324 170.072957473 c 0,20,21
 340 133 340 133 303.847928594 111.308757156 c 0,22,0
 265 88 265 88 219 88 c 128,-1,1
EndSplineSet
EndChar

StartChar: ellipsis
Encoding: 273 8230 82
Width: 803
GlyphClass: 1
Flags: W
HStem: -12 196<78.5319 199.135 341.11 462.182 604.546 725.914>
VStem: 41 195<25.4168 147.366> 305 194<24.6915 148.173> 567 195<25.5695 147.209>
LayerCount: 2
Fore
SplineSet
401.5 -12 m 128,-1,1
 361 -12 361 -12 332.667418763 17.344459138 c 0,2,3
 305 46 305 46 305 86.379016662 c 0,4,5
 305 127 305 127 332.983940132 155.483653348 c 128,-1,6
 361 184 361 184 401.505805698 184 c 128,-1,7
 442 184 442 184 470.411554428 155.588445572 c 128,-1,8
 499 127 499 127 499 86.4686272084 c 128,-1,9
 499 46 499 46 470.629436703 17.1317075225 c 0,10,0
 442 -12 442 -12 401.5 -12 c 128,-1,1
139 -12 m 128,-1,12
 99 -12 99 -12 70 17 c 128,-1,13
 41 46 41 46 41 86.5 c 128,-1,14
 41 127 41 127 70.2161494019 155.712422688 c 0,15,16
 99 184 99 184 138.925186655 184 c 128,-1,17
 179 184 179 184 207.337380581 155.662619419 c 0,18,19
 236 127 236 127 236 86.44239155 c 128,-1,20
 236 46 236 46 207.545547708 17.0463467904 c 128,-1,11
 179 -12 179 -12 139 -12 c 128,-1,12
665.5 -12 m 128,-1,22
 625 -12 625 -12 595.90993702 17.0900629804 c 128,-1,23
 567 46 567 46 567 86.4685066752 c 128,-1,24
 567 127 567 127 596.221784584 155.717960712 c 0,25,26
 625 184 625 184 665.422269071 184 c 128,-1,27
 706 184 706 184 734.051428433 155.447653202 c 128,-1,28
 762 127 762 127 762 86.518613987 c 128,-1,29
 762 46 762 46 734.242416688 17.2510744272 c 0,30,21
 706 -12 706 -12 665.5 -12 c 128,-1,22
EndSplineSet
EndChar

StartChar: perthousand
Encoding: 274 8240 83
Width: 1406
GlyphClass: 1
Flags: W
HStem: -12 119<702.324 809.706 1130.96 1238.21> 0 21G<192 332.012> 264 118<702.296 809.41 1130.93 1238.23> 286 118<167.461 275.03> 561 119<167.403 275.147> 648 20G<645.018 786>
VStem: 24 119<428.238 536.167> 192 126<0 126> 300 118<428.921 536.115> 559 118<132.276 238.857> 659 127<541 668> 835 118<132.137 238.862> 988 118<132.002 239.128> 1263 119<131.867 239.178>
DStem2: 192 0 318 0 0.573791 0.819001<72.2977 815.054>
LayerCount: 2
Fore
SplineSet
1184.5 107 m 128,-1,1
 1217 107 1217 107 1239.91221246 129.912212462 c 128,-1,2
 1263 153 1263 153 1263 185.530952859 c 128,-1,3
 1263 218 1263 218 1239.91633018 241.083669819 c 128,-1,4
 1217 264 1217 264 1184.52961116 264 c 128,-1,5
 1152 264 1152 264 1128.90561495 240.905614945 c 128,-1,6
 1106 218 1106 218 1106 185.533411136 c 128,-1,7
 1106 153 1106 153 1129.00590816 129.994091835 c 128,-1,0
 1152 107 1152 107 1184.5 107 c 128,-1,1
756 107 m 128,-1,9
 788 107 788 107 811.192885036 129.699419397 c 0,10,11
 835 153 835 153 835 185.605495141 c 0,12,13
 835 218 835 218 811.301669951 241.194110261 c 0,14,15
 788 264 788 264 756.06780303 264 c 128,-1,16
 724 264 724 264 700.61391302 241.111489339 c 0,17,18
 677 218 677 218 677 185.460710347 c 128,-1,19
 677 153 677 153 700.710323779 129.794151195 c 0,20,8
 724 107 724 107 756 107 c 128,-1,9
1185.5 -12 m 128,-1,22
 1131 -12 1131 -12 1084.6882066 15.7870760396 c 0,23,24
 1041 42 1041 42 1015.28359123 85.6693733868 c 0,25,26
 988 132 988 132 988 186.897035484 c 0,27,28
 988 241 988 241 1015.26284156 286.266604847 c 0,29,30
 1041 329 1041 329 1084.39775832 354.556457675 c 0,31,32
 1131 382 1131 382 1185.97667421 382 c 0,33,34
 1240 382 1240 382 1285.95765835 354.631956261 c 0,35,36
 1329 329 1329 329 1354.29313433 287.003852433 c 0,37,38
 1382 241 1382 241 1382 185.893228781 c 0,39,40
 1382 132 1382 132 1354.81062312 85.8293600195 c 0,41,42
 1329 42 1329 42 1286.28268262 16.0816276584 c 0,43,21
 1240 -12 1240 -12 1185.5 -12 c 128,-1,22
756.5 -12 m 128,-1,45
 702 -12 702 -12 655.688206601 15.7870760396 c 0,46,47
 612 42 612 42 586.283591228 85.6693733868 c 0,48,49
 559 132 559 132 559 186.897035484 c 0,50,51
 559 241 559 241 586.262841556 286.266604847 c 0,52,53
 612 329 612 329 655.397758317 354.556457675 c 0,54,55
 702 382 702 382 756.976674206 382 c 0,56,57
 811 382 811 382 856.957658354 354.631956261 c 0,58,59
 900 329 900 329 925.29313433 287.003852433 c 0,60,61
 953 241 953 241 953 185.893228781 c 0,62,63
 953 132 953 132 925.810623123 85.8293600195 c 0,64,65
 900 42 900 42 857.282682622 16.0816276584 c 0,66,44
 811 -12 811 -12 756.5 -12 c 128,-1,45
221.5 404 m 128,-1,68
 254 404 254 404 276.912212462 426.912212462 c 128,-1,69
 300 450 300 450 300 482.530952859 c 128,-1,70
 300 515 300 515 277.093266338 537.906733662 c 128,-1,71
 254 561 254 561 221.467119285 561 c 128,-1,72
 189 561 189 561 165.916671594 537.916671594 c 128,-1,73
 143 515 143 515 143 482.52949011 c 128,-1,74
 143 450 143 450 166.005215115 426.994784885 c 128,-1,67
 189 404 189 404 221.5 404 c 128,-1,68
192 0 m 1,75,-1
 659 668 l 1,76,-1
 786 668 l 1,77,-1
 318 0 l 1,78,-1
 192 0 l 1,75,-1
221 286 m 128,-1,80
 167 286 167 286 121.11518233 313.021059294 c 0,81,82
 77 339 77 339 51.1525570492 382.891884256 c 0,83,84
 24 429 24 429 24 483.831444357 c 0,85,86
 24 538 24 538 51.1553007273 583.600410655 c 0,87,88
 77 627 77 627 120.640781812 652.699571512 c 0,89,90
 167 680 167 680 221.401721061 680 c 0,91,92
 275 680 275 680 320.993774308 652.914777352 c 0,93,94
 365 627 365 627 390.596055184 584.017945069 c 0,95,96
 418 538 418 538 418 483.042997672 c 0,97,98
 418 429 418 429 390.973669687 383.106231544 c 0,99,100
 365 339 365 339 321.110397167 313.153900554 c 0,101,79
 275 286 275 286 221 286 c 128,-1,80
EndSplineSet
EndChar

StartChar: guilsinglleft
Encoding: 275 8249 84
Width: 404
GlyphClass: 1
Flags: W
VStem: 189 174<40 214 287 461>
LayerCount: 2
Fore
SplineSet
189 40 m 1,0,-1
 41 250 l 1,1,-1
 189 461 l 1,2,-1
 362 461 l 1,3,-1
 214 250 l 1,4,-1
 363 40 l 1,5,-1
 189 40 l 1,0,-1
EndSplineSet
EndChar

StartChar: guilsinglright
Encoding: 276 8250 85
Width: 404
GlyphClass: 1
Flags: W
VStem: 41 175<40 215 285 460>
LayerCount: 2
Fore
SplineSet
41 40 m 1,0,-1
 191 249 l 1,1,-1
 42 460 l 1,2,-1
 216 460 l 1,3,-1
 363 249 l 1,4,-1
 216 40 l 1,5,-1
 41 40 l 1,0,-1
EndSplineSet
EndChar

StartChar: fraction
Encoding: 277 8260 86
Width: 624
GlyphClass: 1
Flags: W
HStem: 0 21G<15 155.982> 648 20G<468.988 609>
VStem: 15 127<0 127> 483 126<542 668>
DStem2: 15 0 142 0 0.573791 0.819001<72.8715 815.627>
LayerCount: 2
Fore
SplineSet
15 0 m 1,0,-1
 483 668 l 1,1,-1
 609 668 l 1,2,-1
 142 0 l 1,3,-1
 15 0 l 1,0,-1
EndSplineSet
EndChar

StartChar: ordfeminine
Encoding: 170 170 87
Width: 395
GlyphClass: 1
Flags: W
HStem: 395 72<160.321 228.771> 523 65<165.514 238> 623 68<134.553 232.965>
VStem: 53 104<472.876 515.546> 240 97<477.64 526 588 615.236>
LayerCount: 2
Fore
SplineSet
190.777005004 467 m 0,0,1
 211 467 211 467 224.540181265 477.271861649 c 0,2,3
 240 489 240 489 240 509 c 2,4,-1
 240 526 l 1,5,-1
 203 523 l 2,6,7
 176 521 176 521 165.171571061 512.451240312 c 0,8,9
 157 506 157 506 157 494.941646523 c 128,-1,10
 157 484 157 484 163.914822082 476.653001538 c 0,11,12
 173 467 173 467 190.777005004 467 c 0,0,1
161.996888665 395 m 0,13,14
 108 395 108 395 77.7288430438 426.922310972 c 0,15,16
 53 453 53 453 53 491.961361447 c 0,17,18
 53 527 53 527 75.1837665581 546.965389902 c 0,19,20
 93 563 93 563 134.410791536 572.743715656 c 0,21,22
 161 579 161 579 203 584 c 2,23,-1
 238 588 l 1,24,25
 238 608 238 608 229.531022311 615.472627373 c 128,-1,26
 221 623 221 623 201.165405859 623 c 0,27,28
 185 623 185 623 175.187698421 618.733781922 c 0,29,30
 162 613 162 613 159 599 c 1,31,-1
 72 630 l 1,32,33
 87 661 87 661 123.524788633 676.433009282 c 0,34,35
 158 691 158 691 207.387544102 691 c 0,36,37
 274 691 274 691 305.218140852 665.147477107 c 0,38,39
 338 638 338 638 337 578 c 2,40,-1
 337 518 l 2,41,42
 337 492 337 492 337.264520447 476.657814053 c 0,43,44
 338 434 338 434 342 403 c 1,45,-1
 258 403 l 1,46,-1
 249 435 l 1,47,48
 239 418 239 418 219.883861698 407.775088815 c 0,49,50
 196 395 196 395 161.996888665 395 c 0,13,14
EndSplineSet
EndChar

StartChar: guillemotleft
Encoding: 171 171 88
Width: 669
GlyphClass: 1
Flags: W
VStem: 201 174<40 214 287 461> 440 176<40 216 285 461>
LayerCount: 2
Fore
SplineSet
201 40 m 1,0,-1
 53 251 l 1,1,-1
 201 461 l 1,2,-1
 374 461 l 1,3,-1
 226 251 l 1,4,-1
 375 40 l 1,5,-1
 201 40 l 1,0,-1
440 40 m 1,6,-1
 294 251 l 1,7,-1
 440 461 l 1,8,-1
 615 461 l 1,9,-1
 466 251 l 1,10,-1
 616 40 l 1,11,-1
 440 40 l 1,6,-1
EndSplineSet
EndChar

StartChar: logicalnot
Encoding: 172 172 89
Width: 618
GlyphClass: 1
Flags: W
HStem: 295 127<53 437>
VStem: 437 128<56 295>
LayerCount: 2
Fore
SplineSet
437 56 m 1,0,-1
 437 295 l 1,1,-1
 53 295 l 1,2,-1
 53 422 l 1,3,-1
 565 422 l 1,4,-1
 565 56 l 1,5,-1
 437 56 l 1,0,-1
EndSplineSet
EndChar

StartChar: registered
Encoding: 174 174 90
Width: 798
GlyphClass: 1
Flags: W
HStem: -12 69<291.155 505.653> 300 75<338 370> 453 76<338 434.514> 610 69<291.289 505.613>
VStem: 53 70<226.446 440.87> 241 97<161 300 375 453> 458 101<381.914 446.285> 471 108<161 269> 675 70<226.447 440.872>
DStem2: 472 310 370 300 0.583299 -0.812258<0 120.443>
LayerCount: 2
Fore
SplineSet
338 375 m 1,0,-1
 390 375 l 2,1,2
 419 375 419 375 434.809471461 381.080565947 c 0,3,4
 458 390 458 390 458 415.039326432 c 0,5,6
 458 438 458 438 435.017990085 446.839234583 c 0,7,8
 419 453 419 453 390 453 c 2,9,-1
 338 453 l 1,10,-1
 338 375 l 1,0,-1
241 161 m 1,11,-1
 241 529 l 1,12,-1
 392 529 l 2,13,14
 440 529 440 529 473.369143806 520.546483569 c 0,15,16
 515 510 515 510 535.625306393 487.03090879 c 0,17,18
 559 461 559 461 559 419.718866764 c 0,19,20
 559 384 559 384 544.716758345 359.514442878 c 0,21,22
 524 324 524 324 472 310 c 1,23,-1
 579 161 l 1,24,-1
 471 161 l 1,25,-1
 370 300 l 1,26,-1
 338 300 l 1,27,-1
 338 161 l 1,28,-1
 241 161 l 1,11,-1
398 57 m 128,-1,30
 455 57 455 57 506.840740295 79.0708102246 c 0,31,32
 556 100 556 100 593.744376805 137.744376805 c 0,33,34
 632 176 632 176 652.965202101 225.243846795 c 0,35,36
 675 277 675 277 675 334.350117973 c 0,37,38
 675 391 675 391 652.868873686 442.467735614 c 0,39,40
 632 491 632 491 594.448245508 528.551754492 c 0,41,42
 556 567 556 567 506.692781388 587.992182182 c 0,43,44
 455 610 455 610 397.667340228 610 c 0,45,46
 341 610 341 610 289.824319321 587.772179099 c 0,47,48
 242 567 242 567 204.495282611 529.495282611 c 0,49,50
 166 491 166 491 145.094669497 442.382952318 c 0,51,52
 123 391 123 391 123 333.611216937 c 0,53,54
 123 277 123 277 145.034047358 225.245609693 c 0,55,56
 166 176 166 176 204.094412743 137.905587257 c 128,-1,57
 242 100 242 100 289.721226758 79.2725984788 c 0,58,29
 341 57 341 57 398 57 c 128,-1,30
398.5 -12 m 128,-1,60
 327 -12 327 -12 262.387181819 15.9127374543 c 0,61,62
 202 42 202 42 154.908367577 89.0916324231 c 0,63,64
 107 137 107 137 80.9020049578 197.412025561 c 0,65,66
 53 262 53 262 53 334.08738936 c 0,67,68
 53 405 53 405 80.8571154118 469.484063453 c 0,69,70
 107 530 107 530 154.116923033 577.116923033 c 0,71,72
 202 625 202 625 262.622098175 651.188746412 c 0,73,74
 327 679 327 679 399.02915966 679 c 0,75,76
 470 679 470 679 534.792768477 651.231670653 c 0,77,78
 596 625 596 625 643.323263531 577.676736469 c 0,79,80
 691 530 691 530 717.159623344 469.445316333 c 0,81,82
 745 405 745 405 745 332.952133059 c 0,83,84
 745 262 745 262 717.139127399 197.50723935 c 0,85,86
 691 137 691 137 644.050853967 90.0508539665 c 0,87,88
 596 42 596 42 534.728214948 15.7406635489 c 0,89,59
 470 -12 470 -12 398.5 -12 c 128,-1,60
EndSplineSet
EndChar

StartChar: macron
Encoding: 175 175 91
Width: 405
GlyphClass: 1
Flags: W
HStem: 570 98<53 352>
VStem: 53 299<570 668>
LayerCount: 2
Fore
SplineSet
53 570 m 1,0,-1
 53 668 l 1,1,-1
 352 668 l 1,2,-1
 352 570 l 1,3,-1
 53 570 l 1,0,-1
EndSplineSet
EndChar

StartChar: degree
Encoding: 176 176 92
Width: 404
GlyphClass: 1
Flags: W
HStem: 354 90<150.898 253.929> 590 89<150.863 253.985>
VStem: 40 89<466.126 567.831> 275 89<465.61 568.299>
LayerCount: 2
Fore
SplineSet
202.5 444 m 128,-1,1
 233 444 233 444 254.210306915 465.715314223 c 0,2,3
 275 487 275 487 275 516.92451192 c 128,-1,4
 275 547 275 547 254.282470822 568.210803682 c 0,5,6
 233 590 233 590 202.398120237 590 c 0,7,8
 172 590 172 590 150.429139532 568.429139532 c 128,-1,9
 129 547 129 547 129 517.024759586 c 128,-1,10
 129 487 129 487 150.415589699 465.584410301 c 128,-1,0
 172 444 172 444 202.5 444 c 128,-1,1
202.5 354 m 128,-1,12
 158 354 158 354 120.06646619 376.555074157 c 0,13,14
 84 398 84 398 62.7568954559 433.72703946 c 0,15,16
 40 472 40 472 40 517.380530539 c 0,17,18
 40 562 40 562 62.685906164 599.637980681 c 0,19,20
 84 635 84 635 119.682950658 656.21688958 c 0,21,22
 158 679 158 679 202.88910962 679 c 0,23,24
 247 679 247 679 284.931021255 656.446419794 c 0,25,26
 321 635 321 635 341.838421721 599.623144519 c 0,27,28
 364 562 364 562 364 516.65905113 c 0,29,30
 364 472 364 472 342.128250874 434.36024569 c 0,31,32
 321 398 321 398 284.980576652 376.583045577 c 0,33,11
 247 354 247 354 202.5 354 c 128,-1,12
EndSplineSet
EndChar

StartChar: plusminus
Encoding: 177 177 93
Width: 618
GlyphClass: 1
Flags: W
HStem: 0 128<53 565> 283 108<53 245 373 565> 475 20G<245 373>
VStem: 245 128<180 283 391 495>
LayerCount: 2
Fore
SplineSet
53 0 m 1,0,-1
 53 128 l 1,1,-1
 565 128 l 1,2,-1
 565 0 l 1,3,-1
 53 0 l 1,0,-1
245 180 m 1,4,-1
 245 283 l 1,5,-1
 53 283 l 1,6,-1
 53 391 l 1,7,-1
 245 391 l 1,8,-1
 245 495 l 1,9,-1
 373 495 l 1,10,-1
 373 391 l 1,11,-1
 565 391 l 1,12,-1
 565 283 l 1,13,-1
 373 283 l 1,14,-1
 373 180 l 1,15,-1
 245 180 l 1,4,-1
EndSplineSet
EndChar

StartChar: uni00B2
Encoding: 178 178 94
Width: 407
GlyphClass: 1
Flags: W
HStem: 403 87<195 353> 709 76<163.98 242.522>
VStem: 251 102<622.679 702.671>
LayerCount: 2
Fore
SplineSet
53 403 m 1,0,-1
 53 484 l 1,1,2
 129 536 129 536 168.515149993 566.785058715 c 0,3,4
 215 603 215 603 233.710491372 627.947321829 c 0,5,6
 251 651 251 651 251 672.618310372 c 0,7,8
 251 691 251 691 237.410622667 700.78435168 c 0,9,10
 226 709 226 709 207.888685353 709 c 0,11,12
 186 709 186 709 171.721450911 696.307956365 c 0,13,14
 159 685 159 685 155 666 c 1,15,-1
 64 699 l 1,16,17
 80 741 80 741 118.754416396 763.145380798 c 0,18,19
 157 785 157 785 212.483160153 785 c 0,20,21
 273 785 273 785 309.808217614 761.370033137 c 0,22,23
 354 733 354 733 354 677.120680927 c 0,24,25
 354 622 354 622 301.039981749 570.887424246 c 0,26,27
 268 539 268 539 195 490 c 1,28,-1
 353 490 l 1,29,-1
 353 403 l 1,30,-1
 53 403 l 1,0,-1
EndSplineSet
EndChar

StartChar: uni00B3
Encoding: 179 179 95
Width: 413
GlyphClass: 1
Flags: W
HStem: 395 77<154.351 247.048> 491 20G<88.8485 147.5> 552 84<167 234.895> 675 21G<93.0606 150> 709 76<131.373 236.797>
VStem: 247 103<643 703.133> 255 105<481.165 543.818>
LayerCount: 2
Fore
SplineSet
202.117208922 395 m 0,0,1
 148 395 148 395 109.412579694 416.548819132 c 128,-1,2
 71 438 71 438 53 478 c 1,3,-1
 144 511 l 1,4,5
 151 492 151 492 168.110260332 481.630145254 c 0,6,7
 184 472 184 472 206.458172084 472 c 0,8,9
 231 472 231 472 243.971685798 484.43119889 c 0,10,11
 255 495 255 495 255 511.992105519 c 0,12,13
 255 534 255 534 235.444665418 543.513406013 c 0,14,15
 218 552 218 552 182 552 c 2,16,-1
 167 552 l 1,17,-1
 167 636 l 1,18,-1
 182 636 l 2,19,20
 247 636 247 636 247 674.714667656 c 0,21,22
 247 693 247 693 230.102197787 702.322925359 c 0,23,24
 218 709 218 709 201.55478453 709 c 0,25,26
 183 709 183 709 168.963644061 701.046064968 c 0,27,28
 153 692 153 692 147 675 c 1,29,-1
 58 708 l 1,30,31
 75 746 75 746 114.371809394 765.941565797 c 0,32,33
 152 785 152 785 205.231083332 785 c 0,34,35
 268 785 268 785 307.06636225 759.749790253 c 0,36,37
 350 732 350 732 350 682.036235494 c 0,38,39
 350 653 350 653 334.089980272 629.409281093 c 0,40,41
 321 610 321 610 301 600 c 1,42,43
 328 590 328 590 343.572762923 567.127504457 c 0,44,45
 360 543 360 543 360 510.551356259 c 0,46,47
 360 473 360 473 336.319367945 445.551994664 c 0,48,49
 316 422 316 422 280.766619912 408.601390671 c 0,50,51
 245 395 245 395 202.117208922 395 c 0,0,1
EndSplineSet
EndChar

StartChar: acute
Encoding: 180 180 96
Width: 314
GlyphClass: 1
Flags: W
HStem: 574 153<164.914 196.28>
VStem: 53 208
LayerCount: 2
Fore
SplineSet
53 574 m 1,0,1
 81 608 81 608 108.5 641.5 c 128,-1,2
 136 675 136 675 140.269218186 680.162775481 c 0,3,4
 179 727 179 727 210.556234544 727 c 0,5,6
 229 727 229 727 243.948209259 712.051790741 c 0,7,8
 261 695 261 695 261 670.675983636 c 0,9,10
 261 645 261 645 230.454249481 621.688769341 c 0,11,12
 223 616 223 616 213.30398239 608.66247316 c 0,13,14
 186 588 186 588 167 574 c 1,15,-1
 53 574 l 1,0,1
EndSplineSet
EndChar

StartChar: uni03BC
Encoding: 278 956 97
Width: 570
GlyphClass: 1
Flags: W
HStem: -162 21G<50 202> -12 118<220.325 340.611> 0 21G<374.953 519> 475 20G<50 202 366 519>
VStem: 50 152<-162 18 123.368 495> 366 153<131.311 495>
LayerCount: 2
Fore
SplineSet
50 -162 m 1,0,-1
 50 495 l 1,1,-1
 202 495 l 1,2,-1
 202 230 l 2,3,4
 202 156 202 156 218.38623645 130.396505548 c 0,5,6
 234 106 234 106 278.346856575 106 c 0,7,8
 325 106 325 106 344.832228697 132.120496333 c 0,9,10
 366 160 366 160 366 230 c 2,11,-1
 366 495 l 1,12,-1
 519 495 l 1,13,-1
 519 0 l 1,14,-1
 381 0 l 1,15,-1
 368 43 l 1,16,17
 352 14 352 14 325.569419888 -0.316564227578 c 0,18,19
 304 -12 304 -12 277.486178439 -12 c 0,20,21
 235 -12 235 -12 202 18 c 1,22,-1
 202 -162 l 1,23,-1
 50 -162 l 1,0,-1
EndSplineSet
EndChar

StartChar: paragraph
Encoding: 182 182 98
Width: 515
GlyphClass: 1
Flags: W
HStem: -162 21G<166 261 353 448> 600 67<261 353 448 495>
VStem: 24 237<389.712 565.699> 166 95<-162 302.323> 353 95<-162 600>
LayerCount: 2
Fore
SplineSet
166 -162 m 1,0,-1
 166 295 l 1,1,2
 126 306 126 306 94.3093251012 331.352539919 c 0,3,4
 61 358 61 358 42.7403509468 395.506306163 c 0,5,6
 24 434 24 434 24 478.311293826 c 0,7,8
 24 530 24 530 50.1047665567 574.019802429 c 0,9,10
 75 616 75 616 116.657872466 640.70408716 c 0,11,12
 161 667 161 667 213 667 c 2,13,-1
 495 667 l 1,14,-1
 495 600 l 1,15,-1
 448 600 l 1,16,-1
 448 -162 l 1,17,-1
 353 -162 l 1,18,-1
 353 600 l 1,19,-1
 261 600 l 1,20,-1
 261 -162 l 1,21,-1
 166 -162 l 1,0,-1
EndSplineSet
EndChar

StartChar: periodcentered
Encoding: 183 183 99
Width: 301
GlyphClass: 1
Flags: W
HStem: 151 194<89.6778 211.978>
VStem: 53 195<187.699 309.08>
LayerCount: 2
Fore
SplineSet
151 151 m 128,-1,1
 111 151 111 151 82.1260893401 179.376084614 c 0,2,3
 53 208 53 208 53 248.543927128 c 128,-1,4
 53 289 53 289 82.3365924571 317.324985821 c 0,5,6
 111 345 111 345 150.883255139 345 c 0,7,8
 191 345 191 345 219.218729672 317.276335761 c 0,9,10
 248 289 248 289 248 248.400565081 c 128,-1,11
 248 208 248 208 219.429004382 179.429004382 c 128,-1,0
 191 151 191 151 151 151 c 128,-1,1
EndSplineSet
EndChar

StartChar: cedilla
Encoding: 184 184 100
Width: 321
GlyphClass: 1
Flags: W
HStem: -187 50<89.2514 178.817> -179.396 128.877<194.324 197.65 198.867 265.073>
VStem: 194 94<-132.765 -88.4944>
LayerCount: 2
Fore
SplineSet
159.294254853 -187 m 0,0,1
 137 -187 137 -187 113.767556296 -183.386064313 c 0,2,3
 92 -180 92 -180 73 -174 c 1,4,-1
 89 -124 l 1,5,6
 97 -128 97 -128 110.76063504 -131.53844901 c 0,7,8
 132 -137 132 -137 149.576957965 -137 c 0,9,10
 168 -137 168 -137 179.167461667 -131.845786923 c 0,11,12
 194 -125 194 -125 194 -110.173737692 c 0,13,14
 194 -98 194 -98 183.943144155 -90.9602009084 c 128,-1,15
 174 -84 174 -84 158.30368279 -84 c 0,16,17
 145 -84 145 -84 134.632181548 -87.455939484 c 0,18,19
 121 -92 121 -92 112.363800245 -86.8182801471 c 0,20,21
 106 -83 106 -83 103.590613998 -74.8080875934 c 0,22,23
 101 -66 101 -66 105 -59 c 2,24,-1
 157 25 l 1,25,-1
 198 0 l 1,26,-1
 168 -48 l 1,27,28
 182 -45 182 -45 198.154328933 -45 c 0,29,30
 221 -45 221 -45 239.397314347 -50.519194304 c 0,31,32
 261 -57 261 -57 273.089851155 -69.0898511546 c 0,33,34
 288 -84 288 -84 288 -108.599121938 c 0,35,36
 288 -136 288 -136 267.914602036 -154.999700777 c 0,37,38
 251 -171 251 -171 220.565592638 -179.395698583 c 0,39,40
 193 -187 193 -187 159.294254853 -187 c 0,0,1
EndSplineSet
EndChar

StartChar: uni00B9
Encoding: 185 185 101
Width: 291
GlyphClass: 1
Flags: W
HStem: 647 87<53 136.233>
VStem: 137 101<403 647>
LayerCount: 2
Fore
SplineSet
137 403 m 1,0,-1
 137 647 l 1,1,-1
 53 647 l 1,2,-1
 53 734 l 1,3,4
 94 734 94 734 114.745276914 739.280615942 c 0,5,6
 149 748 149 748 159 779 c 1,7,-1
 238 779 l 1,8,-1
 238 403 l 1,9,-1
 137 403 l 1,0,-1
EndSplineSet
EndChar

StartChar: ordmasculine
Encoding: 186 186 102
Width: 409
GlyphClass: 1
Flags: W
HStem: 395 77<174.216 244.111> 612 77<174.095 244.832>
VStem: 57 103<485.407 598.608> 258 102<485.736 598.055>
LayerCount: 2
Fore
SplineSet
209.5 472 m 128,-1,1
 230 472 230 472 242.910975845 488.138719807 c 0,2,3
 258 507 258 507 258 542.655388269 c 0,4,5
 258 577 258 577 243.060686248 595.67414219 c 0,6,7
 230 612 230 612 209.855898877 612 c 0,8,9
 189 612 189 612 175.692315625 595.939001617 c 0,10,11
 160 577 160 577 160 541.30864313 c 0,12,13
 160 507 160 507 175.682454012 488.07290033 c 0,14,0
 189 472 189 472 209.5 472 c 128,-1,1
209.2 395 m 0,15,16
 168 395 168 395 134.795582925 410.179162091 c 0,17,18
 98 427 98 427 78.4525705509 457.989827175 c 0,19,20
 57 492 57 492 57 543.073397696 c 0,21,22
 57 593 57 593 78.6364782241 627.30173377 c 0,23,24
 98 658 98 658 134.727188278 674.264897666 c 0,25,26
 168 689 168 689 208.357908491 689 c 0,27,28
 271 689 271 689 310.852822315 657.207299052 c 0,29,30
 360 618 360 618 360 540.625527133 c 0,31,32
 360 467 360 467 311.20736164 427.527303799 c 0,33,34
 271 395 271 395 209.2 395 c 0,15,16
EndSplineSet
EndChar

StartChar: guillemotright
Encoding: 187 187 103
Width: 669
GlyphClass: 1
Flags: W
VStem: 53 175<40 215 286 461> 294 174<40 214 287 461>
LayerCount: 2
Fore
SplineSet
53 40 m 1,0,-1
 203 251 l 1,1,-1
 54 461 l 1,2,-1
 228 461 l 1,3,-1
 375 251 l 1,4,-1
 228 40 l 1,5,-1
 53 40 l 1,0,-1
294 40 m 1,6,-1
 442 251 l 1,7,-1
 294 461 l 1,8,-1
 468 461 l 1,9,-1
 616 251 l 1,10,-1
 468 40 l 1,11,-1
 294 40 l 1,6,-1
EndSplineSet
EndChar

StartChar: onequarter
Encoding: 188 188 104
Width: 853
GlyphClass: 1
Flags: W
HStem: 0 21G<110 251.033 641 742> 74 87<563 641 742 800> 535 88<53 136.823> 647 20G<154 238 563.967 705>
VStem: 110 127<0 127> 137 101<292 535> 578 127<540 667> 641 101<0 74 161 256>
DStem2: 110 0 237 0 0.574368 0.818597<72.9447 814.809> 460 152 563 161 0.630199 0.776433<71.8984 194.815>
LayerCount: 2
Fore
SplineSet
563 161 m 1,0,-1
 641 161 l 1,1,-1
 641 256 l 1,2,-1
 563 161 l 1,0,-1
641 0 m 1,3,-1
 641 74 l 1,4,-1
 460 74 l 1,5,-1
 460 152 l 1,6,-1
 641 375 l 1,7,-1
 742 375 l 1,8,-1
 742 161 l 1,9,-1
 800 161 l 1,10,-1
 800 74 l 1,11,-1
 742 74 l 1,12,-1
 742 0 l 1,13,-1
 641 0 l 1,3,-1
137 292 m 1,14,-1
 137 535 l 1,15,-1
 53 535 l 1,16,-1
 53 623 l 1,17,18
 94 623 94 623 114.228001515 627.781163994 c 0,19,20
 149 636 149 636 159 667 c 1,21,-1
 238 667 l 1,22,-1
 238 292 l 1,23,-1
 137 292 l 1,14,-1
110 0 m 1,24,-1
 578 667 l 1,25,-1
 705 667 l 1,26,-1
 237 0 l 1,27,-1
 110 0 l 1,24,-1
EndSplineSet
Ligature2: "'frac' Diagonal Fractions lookup 10 subtable" one slash four
EndChar

StartChar: onehalf
Encoding: 189 189 105
Width: 856
GlyphClass: 1
Flags: W
HStem: 0 87<644 802> 306 75<613.114 691.164> 535 88<53 136.823> 647 20G<154 238 563.967 705>
VStem: 110 127<0 127> 137 101<292 535> 578 127<540 667> 700 102<218.196 299>
DStem2: 110 0 237 0 0.574368 0.818597<72.9447 814.809>
LayerCount: 2
Fore
SplineSet
502 0 m 1,0,-1
 502 81 l 1,1,2
 527 99 527 99 551.784512722 115.646314515 c 0,3,4
 594 144 594 144 621.086443179 165.161283734 c 0,5,6
 658 194 658 194 677.032049544 216.657201838 c 0,7,8
 700 244 700 244 700 268.745011949 c 0,9,10
 700 287 700 287 686.599986848 297.184009996 c 0,11,12
 675 306 675 306 656.538651267 306 c 0,13,14
 635 306 635 306 620.576380353 293.179004758 c 0,15,16
 608 282 608 282 603 263 c 1,17,-1
 512 296 l 1,18,19
 528 337 528 337 566.456935069 358.975391468 c 128,-1,20
 605 381 605 381 660.595305243 381 c 0,21,22
 721 381 721 381 758.302221048 357.344932994 c 0,23,24
 803 329 803 329 803 273.626516218 c 0,25,26
 803 219 803 219 748.63749243 167.136918065 c 0,27,28
 716 136 716 136 644 87 c 1,29,-1
 802 87 l 1,30,-1
 802 0 l 1,31,-1
 502 0 l 1,0,-1
137 292 m 1,32,-1
 137 535 l 1,33,-1
 53 535 l 1,34,-1
 53 623 l 1,35,36
 94 623 94 623 114.228001515 627.781163994 c 0,37,38
 149 636 149 636 159 667 c 1,39,-1
 238 667 l 1,40,-1
 238 292 l 1,41,-1
 137 292 l 1,32,-1
110 0 m 1,42,-1
 578 667 l 1,43,-1
 705 667 l 1,44,-1
 237 0 l 1,45,-1
 110 0 l 1,42,-1
EndSplineSet
Ligature2: "'frac' Diagonal Fractions lookup 10 subtable" one slash two
EndChar

StartChar: threequarters
Encoding: 190 190 106
Width: 959
GlyphClass: 1
Flags: W
HStem: 0 21G<200 341.033 748 849> 74 87<669 748 849 906> 290 76<153.237 247.073> 446 84<167 235.131> 603 76<130.357 236.912> 647 20G<653.967 795>
VStem: 200 127<0 127> 247 103<536.938 596.892> 255 105<374.844 437.126> 668 127<540 667> 748 101<0 74 161 256>
DStem2: 200 0 327 0 0.574368 0.818597<72.9447 814.809> 567 152 669 161 0.630199 0.776433<71.2682 194.815>
LayerCount: 2
Fore
SplineSet
669 161 m 1,0,-1
 748 161 l 1,1,-1
 748 256 l 1,2,-1
 669 161 l 1,0,-1
748 0 m 1,3,-1
 748 74 l 1,4,-1
 567 74 l 1,5,-1
 567 152 l 1,6,-1
 748 375 l 1,7,-1
 849 375 l 1,8,-1
 849 161 l 1,9,-1
 906 161 l 1,10,-1
 906 74 l 1,11,-1
 849 74 l 1,12,-1
 849 0 l 1,13,-1
 748 0 l 1,3,-1
200 0 m 1,14,-1
 668 667 l 1,15,-1
 795 667 l 1,16,-1
 327 0 l 1,17,-1
 200 0 l 1,14,-1
202.117208922 290 m 0,18,19
 148 290 148 290 109.085717373 311.731352636 c 0,20,21
 71 333 71 333 53 372 c 1,22,-1
 144 404 l 1,23,24
 151 385 151 385 168.380156919 374.993242986 c 0,25,26
 184 366 184 366 206.317646363 366 c 0,27,28
 231 366 231 366 244.036873325 377.950467215 c 0,29,30
 255 388 255 388 255 404.963687744 c 0,31,32
 255 427 255 427 235.688132929 436.916904712 c 0,33,34
 218 446 218 446 182 446 c 2,35,-1
 167 446 l 1,36,-1
 167 530 l 1,37,-1
 182 530 l 2,38,39
 247 530 247 530 247 568.03546296 c 0,40,41
 247 586 247 586 230.379220449 595.743215599 c 0,42,43
 218 603 218 603 201.191455752 603 c 0,44,45
 183 603 183 603 169.03747268 595.087901185 c 0,46,47
 153 586 153 586 147 569 c 1,48,-1
 58 602 l 1,49,50
 93 679 93 679 203.925676648 679 c 0,51,52
 269 679 269 679 308.078553293 653.430082413 c 0,53,54
 350 626 350 626 350 576.255644867 c 0,55,56
 350 547 350 547 334.062954327 523.36920814 c 0,57,58
 321 504 321 504 301 494 c 1,59,60
 328 484 328 484 343.572762923 461.127504457 c 0,61,62
 360 437 360 437 360 405.014908312 c 0,63,64
 360 368 360 368 336.398065454 340.643212231 c 0,65,66
 316 317 316 317 280.732314866 303.58834509 c 0,67,68
 245 290 245 290 202.117208922 290 c 0,18,19
EndSplineSet
Ligature2: "'frac' Diagonal Fractions lookup 10 subtable" three slash four
EndChar

StartChar: less
Encoding: 60 60 107
Width: 573
GlyphClass: 1
Flags: W
HStem: 490 20G<486.27 533>
LayerCount: 2
Fore
SplineSet
533 -12 m 1,0,-1
 40 200 l 1,1,-1
 40 299 l 1,2,-1
 533 510 l 1,3,-1
 533 368 l 1,4,-1
 209 250 l 1,5,-1
 533 130 l 1,6,-1
 533 -12 l 1,0,-1
EndSplineSet
EndChar

StartChar: equal
Encoding: 61 61 108
Width: 618
GlyphClass: 1
Flags: W
HStem: 96 129<53 565> 283 127<53 565>
LayerCount: 2
Fore
SplineSet
53 96 m 1,0,-1
 53 225 l 1,1,-1
 565 225 l 1,2,-1
 565 96 l 1,3,-1
 53 96 l 1,0,-1
53 283 m 1,4,-1
 53 410 l 1,5,-1
 565 410 l 1,6,-1
 565 283 l 1,7,-1
 53 283 l 1,4,-1
EndSplineSet
EndChar

StartChar: greater
Encoding: 62 62 109
Width: 573
GlyphClass: 1
Flags: W
HStem: 490 20G<40 86.7299>
LayerCount: 2
Fore
SplineSet
40 -12 m 1,0,-1
 40 130 l 1,1,-1
 365 250 l 1,2,-1
 40 368 l 1,3,-1
 40 510 l 1,4,-1
 533 299 l 1,5,-1
 533 200 l 1,6,-1
 40 -12 l 1,0,-1
EndSplineSet
EndChar

StartChar: question
Encoding: 63 63 110
Width: 614
GlyphClass: 1
Flags: W
HStem: -12 195<203.92 324.823> 558 122<216.434 387.672>
VStem: 167 194<24.6276 147.859> 408 156<464.158 537.273>
LayerCount: 2
Fore
SplineSet
264.5 -12 m 128,-1,1
 224 -12 224 -12 195.287577312 17.2161494019 c 0,2,3
 167 46 167 46 167 86.424251488 c 128,-1,4
 167 127 167 127 195.727928763 155.223930012 c 0,5,6
 224 183 224 183 264.418699883 183 c 128,-1,7
 305 183 305 183 332.928147297 155.071852703 c 128,-1,8
 361 127 361 127 361 86.4740508335 c 128,-1,9
 361 46 361 46 333.250119064 17.2590518879 c 0,10,0
 305 -12 305 -12 264.5 -12 c 128,-1,1
186 243 m 1,11,-1
 186 255 l 2,12,13
 188 303 188 303 201.726992305 333.504427343 c 0,14,15
 215 363 215 363 245.873660306 386.706560592 c 0,16,17
 271 406 271 406 329.200525555 433.50134724 c 0,18,19
 362 449 362 449 374.845991436 456.540038452 c 0,20,21
 408 476 408 476 408 501.944921791 c 0,22,23
 408 526 408 526 380.308751884 541.545963855 c 0,24,25
 351 558 351 558 305.375380861 558 c 0,26,27
 259 558 259 558 227.287983684 542.373789061 c 0,28,29
 190 524 190 524 177 486 c 1,30,-1
 40 536 l 1,31,32
 68 606 68 606 140.266758253 643.660141625 c 0,33,34
 210 680 210 680 306.294109742 680 c 0,35,36
 375 680 375 680 430.602370564 662.264761113 c 0,37,38
 491 643 491 643 524.574525182 608.505624813 c 0,39,40
 564 568 564 568 564 504.295462984 c 0,41,42
 564 443 564 443 520.440603363 399.440603363 c 0,43,44
 491 370 491 370 431.53624223 342.088440231 c 0,45,46
 393 324 393 324 375.354445629 310.765834222 c 0,47,48
 345 288 345 288 341 253 c 2,49,-1
 340 243 l 1,50,-1
 186 243 l 1,11,-1
EndSplineSet
EndChar

StartChar: at
Encoding: 64 64 111
Width: 754
GlyphClass: 1
Flags: W
HStem: -12 70<273.237 487.803> 153 87<531.702 613.094> 155 95<313.41 395.322> 427 91<322.913 418.457> 610 70<273.423 487.743>
VStem: 35 69<226.171 441.731> 200 97<264.466 400.487> 419 94<272.731 426.428> 640.287 76.8983<269.716 462.414>
LayerCount: 2
Fore
SplineSet
351.556840463 250 m 0,0,1
 376 250 376 250 394.602460519 269.467691241 c 0,2,3
 419 295 419 295 419 339 c 2,4,-1
 419 423 l 1,5,6
 411 425 411 425 401.273681152 426.023823037 c 0,7,8
 392 427 392 427 384.153560915 427 c 0,9,10
 361 427 361 427 344.180392476 419.668376207 c 0,11,12
 322 410 322 410 310.646938263 389.110366405 c 0,13,14
 297 364 297 364 297 326.373314844 c 0,15,16
 297 285 297 285 315.9287741 264.92402747 c 0,17,18
 330 250 330 250 351.556840463 250 c 0,0,1
379.849946272 -12 m 0,19,20
 309 -12 309 -12 244.529736396 15.851153877 c 0,21,22
 184 42 184 42 136.880369516 89.1196304845 c 0,23,24
 89 137 89 137 62.9059464457 197.402901746 c 0,25,26
 35 262 35 262 35 334.089914066 c 0,27,28
 35 405 35 405 62.7625531985 469.779290797 c 0,29,30
 89 531 89 531 136.159796467 578.159796467 c 0,31,32
 184 626 184 626 245.092979278 652.182705405 c 0,33,34
 310 680 310 680 382.38158774 680 c 0,35,36
 451 680 451 680 513.230135645 654.495846047 c 0,37,38
 573 630 573 630 619.15350814 585.335314703 c 0,39,40
 666 540 666 540 691.559506205 482.129419914 c 0,41,42
 719 420 719 420 717.185133674 345.590480647 c 0,43,44
 715 256 715 256 670.016916414 203.349345349 c 0,45,46
 627 153 627 153 562.486677812 153 c 0,47,48
 525 153 525 153 496.752610868 169.558814319 c 0,49,50
 467 187 467 187 454 219 c 1,51,52
 431 187 431 187 398.468099264 170.209341556 c 0,53,54
 369 155 369 155 337.139025483 155 c 0,55,56
 302 155 302 155 271.865608222 172.697976123 c 0,57,58
 239 192 239 192 220.705825137 225.773861286 c 0,59,60
 200 264 200 264 200 323.93185471 c 0,61,62
 200 393 200 393 229.35670844 439.970733503 c 0,63,64
 255 481 255 481 303.704946117 501.248123667 c 0,65,66
 344 518 344 518 394.858446238 518 c 0,67,68
 424 518 424 518 456.67145382 512.10842636 c 0,69,70
 485 507 485 507 513 498 c 1,71,-1
 513 309 l 2,72,73
 513 275 513 275 531.238389772 255.656253272 c 0,74,75
 546 240 546 240 568.337675768 240 c 0,76,77
 599 240 599 240 618.247614956 268.39023206 c 0,78,79
 639 299 639 299 640.286863706 354.764093917 c 0,80,81
 642 429 642 429 604.771605744 489.299511822 c 0,82,83
 571 544 571 544 513.054256629 576.137975315 c 0,84,85
 452 610 452 610 380.019186118 610 c 0,86,87
 322 610 322 610 269.72625012 586.999550053 c 0,88,89
 222 566 222 566 184.775403589 528.775403589 c 0,90,91
 146 490 146 490 125.32805504 440.781083429 c 0,92,93
 104 390 104 390 104 333.114421519 c 0,94,95
 104 276 104 276 126.052416126 224.715311334 c 0,96,97
 147 176 147 176 185.227776815 138.268687819 c 0,98,99
 224 100 224 100 273.422569864 79.4480402545 c 0,100,101
 325 58 325 58 380.759821011 58 c 0,102,103
 453 58 453 58 516 94 c 1,104,-1
 516 16 l 1,105,106
 452 -12 452 -12 379.849946272 -12 c 0,19,20
EndSplineSet
EndChar

StartChar: colon
Encoding: 58 58 112
Width: 243
GlyphClass: 1
Flags: W
HStem: -12 195<61.3738 182.047> 316 194<60.6167 183.039>
VStem: 24 195<25.4214 147.08 351.973 473.367>
LayerCount: 2
Fore
SplineSet
122 -12 m 128,-1,1
 82 -12 82 -12 53 17 c 128,-1,2
 24 46 24 46 24 86.5 c 128,-1,3
 24 127 24 127 53.344459138 155.332581237 c 0,4,5
 82 183 82 183 121.880510283 183 c 0,6,7
 162 183 162 183 190.219217112 155.275856872 c 0,8,9
 219 127 219 127 219 86.4007365586 c 128,-1,10
 219 46 219 46 190.552890099 17.053817996 c 128,-1,0
 162 -12 162 -12 122 -12 c 128,-1,1
122 316 m 128,-1,12
 82 316 82 316 53.2544055421 343.754367063 c 0,13,14
 24 372 24 372 24 412.588435145 c 128,-1,15
 24 453 24 453 53.2003019273 481.696848446 c 0,16,17
 82 510 82 510 121.930690805 510 c 128,-1,18
 162 510 162 510 190.336401949 481.663598051 c 0,19,20
 219 453 219 453 219 412.442045857 c 128,-1,21
 219 372 219 372 190.295586501 343.799172703 c 0,22,11
 162 316 162 316 122 316 c 128,-1,12
EndSplineSet
EndChar

StartChar: semicolon
Encoding: 59 59 113
Width: 243
GlyphClass: 1
Flags: W
HStem: 316 194<60.6167 183.039>
VStem: 24 195<25.5 147.071 351.973 473.367>
DStem2: 46 -146 136 -146 0.365652 0.930751<32.9087 146.893>
LayerCount: 2
Fore
SplineSet
46 -146 m 1,0,-1
 99 -9 l 1,1,2
 67 -1 67 -1 45.920380979 24.9818560027 c 0,3,4
 24 52 24 52 24 86.8804080656 c 0,5,6
 24 127 24 127 53.2760474298 155.266528553 c 0,7,8
 82 183 82 183 121.904355473 183 c 128,-1,9
 162 183 162 183 190.214981496 155.280018179 c 0,10,11
 219 127 219 127 219 85.8068889857 c 0,12,13
 219 67 219 67 213 50 c 2,14,-1
 136 -146 l 1,15,-1
 46 -146 l 1,0,-1
122 316 m 128,-1,17
 82 316 82 316 53.2544055421 343.754367063 c 0,18,19
 24 372 24 372 24 412.588435145 c 128,-1,20
 24 453 24 453 53.2003019273 481.696848446 c 0,21,22
 82 510 82 510 121.930690805 510 c 128,-1,23
 162 510 162 510 190.336401949 481.663598051 c 0,24,25
 219 453 219 453 219 412.442045857 c 128,-1,26
 219 372 219 372 190.295586501 343.799172703 c 0,27,16
 162 316 162 316 122 316 c 128,-1,17
EndSplineSet
EndChar

StartChar: bracketleft
Encoding: 91 91 114
Width: 333
GlyphClass: 1
Flags: W
HStem: -161 115<172 300> 552 116<172 300>
VStem: 44 256<-161 -46 552 668> 44 128<-46 552>
LayerCount: 2
Fore
SplineSet
44 -161 m 1,0,-1
 44 668 l 1,1,-1
 300 668 l 1,2,-1
 300 552 l 1,3,-1
 172 552 l 1,4,-1
 172 -46 l 1,5,-1
 300 -46 l 1,6,-1
 300 -161 l 1,7,-1
 44 -161 l 1,0,-1
EndSplineSet
EndChar

StartChar: backslash
Encoding: 92 92 115
Width: 442
GlyphClass: 1
Flags: W
HStem: 0 21G<268.186 427> 648 20G<15 175.754>
DStem2: 168 668 15 668 0.363926 -0.931428<0 661.498>
LayerCount: 2
Fore
SplineSet
276 0 m 1,0,-1
 15 668 l 1,1,-1
 168 668 l 1,2,-1
 427 0 l 1,3,-1
 276 0 l 1,0,-1
EndSplineSet
EndChar

StartChar: bracketright
Encoding: 93 93 116
Width: 333
GlyphClass: 1
Flags: W
HStem: -161 115<33 161> 552 116<33 161>
VStem: 33 256<-161 -46 552 668> 161 128<-46 552>
LayerCount: 2
Fore
SplineSet
33 -161 m 1,0,-1
 33 -46 l 1,1,-1
 161 -46 l 1,2,-1
 161 552 l 1,3,-1
 33 552 l 1,4,-1
 33 668 l 1,5,-1
 289 668 l 1,6,-1
 289 -161 l 1,7,-1
 33 -161 l 1,0,-1
EndSplineSet
EndChar

StartChar: asciicircum
Encoding: 94 94 117
Width: 589
GlyphClass: 1
Flags: W
HStem: 648 20G<227.607 361.393>
DStem2: 53 312 196 312 0.461117 0.887339<65.9398 283.734> 351 668 295 506 0.461117 -0.887339<117.926 335.26>
LayerCount: 2
Fore
SplineSet
53 312 m 1,0,-1
 238 668 l 1,1,-1
 351 668 l 1,2,-1
 536 312 l 1,3,-1
 393 312 l 1,4,-1
 295 506 l 1,5,-1
 196 312 l 1,6,-1
 53 312 l 1,0,-1
EndSplineSet
EndChar

StartChar: underscore
Encoding: 95 95 118
Width: 430
GlyphClass: 1
Flags: W
HStem: -128 128<10 420>
LayerCount: 2
Fore
SplineSet
10 -128 m 1,0,-1
 10 0 l 1,1,-1
 420 0 l 1,2,-1
 420 -128 l 1,3,-1
 10 -128 l 1,0,-1
EndSplineSet
EndChar

StartChar: grave
Encoding: 96 96 119
Width: 314
GlyphClass: 1
Flags: W
HStem: 574 154<117.72 152.719>
VStem: 53 208
LayerCount: 2
Fore
SplineSet
147 574 m 1,0,1
 128 588 128 588 115.279221568 597.626535029 c 0,2,3
 91 616 91 616 72 629 c 1,4,5
 53 648 53 648 53 671.810865743 c 0,6,7
 53 694 53 694 69.2288285294 710.720611212 c 0,8,9
 86 728 86 728 109.918696021 728 c 0,10,11
 135 728 135 728 151 709 c 2,12,-1
 261 574 l 1,13,-1
 147 574 l 1,0,1
EndSplineSet
EndChar

StartChar: exclam
Encoding: 33 33 120
Width: 283
GlyphClass: 1
Flags: W
HStem: -12 195<81.3738 202.047> 648 20G<44 238>
VStem: 44 195<25.4214 147.08 453.977 668>
LayerCount: 2
Fore
SplineSet
142 -12 m 128,-1,1
 102 -12 102 -12 73 17 c 128,-1,2
 44 46 44 46 44 86.5 c 128,-1,3
 44 127 44 127 73.344459138 155.332581237 c 0,4,5
 102 183 102 183 141.880510283 183 c 0,6,7
 182 183 182 183 210.219217112 155.275856872 c 0,8,9
 239 127 239 127 239 86.4007365586 c 128,-1,10
 239 46 239 46 210.552890099 17.053817996 c 128,-1,0
 182 -12 182 -12 142 -12 c 128,-1,1
85 243 m 1,11,-1
 44 495 l 1,12,-1
 44 668 l 1,13,-1
 238 668 l 1,14,-1
 238 495 l 1,15,-1
 196 243 l 1,16,-1
 85 243 l 1,11,-1
EndSplineSet
EndChar

StartChar: quotedbl
Encoding: 34 34 121
Width: 410
GlyphClass: 1
Flags: W
HStem: 434 234<54 168 243 356>
VStem: 54 114<434 551> 243 113<434 543.2>
LayerCount: 2
Fore
SplineSet
54 434 m 1,0,-1
 40 668 l 1,1,-1
 182 668 l 1,2,-1
 168 434 l 1,3,-1
 54 434 l 1,0,-1
243 434 m 1,4,-1
 228 668 l 1,5,-1
 370 668 l 1,6,-1
 356 434 l 1,7,-1
 243 434 l 1,4,-1
EndSplineSet
EndChar

StartChar: numbersign
Encoding: 35 35 122
Width: 783
GlyphClass: 1
Flags: W
HStem: 0 21G<134 277.835 411 554.835> 127 140<44 152 313 429 591 699> 401 140<84 192 352 469 630 738> 648 20G<228.008 371 505.008 649>
DStem2: 134 0 275 0 0.143702 0.989621<20.262 128.269 289.952 405.173 566.712 675.006> 411 0 552 0 0.143702 0.989621<20.262 128.269 290.095 405.173 566.856 675.006>
LayerCount: 2
Fore
SplineSet
313 267 m 1,0,-1
 450 267 l 1,1,-1
 469 401 l 1,2,-1
 332 401 l 1,3,-1
 313 267 l 1,0,-1
134 0 m 1,4,-1
 152 127 l 1,5,-1
 24 127 l 1,6,-1
 44 266 l 1,7,-1
 172 266 l 1,8,-1
 192 401 l 1,9,-1
 64 401 l 1,10,-1
 84 541 l 1,11,-1
 212 541 l 1,12,-1
 231 668 l 1,13,-1
 371 668 l 1,14,-1
 352 541 l 1,15,-1
 489 541 l 1,16,-1
 508 668 l 1,17,-1
 649 668 l 1,18,-1
 630 541 l 1,19,-1
 759 541 l 1,20,-1
 738 402 l 1,21,-1
 610 402 l 1,22,-1
 591 267 l 1,23,-1
 719 267 l 1,24,-1
 699 127 l 1,25,-1
 570 127 l 1,26,-1
 552 0 l 1,27,-1
 411 0 l 1,28,-1
 429 127 l 1,29,-1
 293 127 l 1,30,-1
 275 0 l 1,31,-1
 134 0 l 1,4,-1
EndSplineSet
EndChar

StartChar: dollar
Encoding: 36 36 123
Width: 619
GlyphClass: 1
Flags: W
HStem: -11 128<345 406.768> 552 126<211.861 272 345 384.574>
VStem: 28 162<445.134 530.072> 272 73<-87 -8.529 120 261 420 548 675.829 747> 434 162<142.146 231.015>
LayerCount: 2
Fore
SplineSet
345 117 m 1,0,1
 379 121 379 121 401.349803257 134.409881954 c 0,2,3
 434 154 434 154 434 187.380730083 c 0,4,5
 434 216 434 216 407.243834942 234.952283582 c 0,6,7
 386 250 386 250 345 261 c 1,8,-1
 345 117 l 1,0,1
272 420 m 1,9,-1
 272 552 l 1,10,11
 236 548 236 548 214.005554733 532.221376221 c 0,12,13
 190 515 190 515 190 488.647579792 c 0,14,15
 190 464 190 464 211.150205085 445.367676472 c 0,16,17
 232 427 232 427 266 421 c 2,18,-1
 272 420 l 1,9,-1
272 -87 m 1,19,-1
 272 -10 l 1,20,21
 179 -2 179 -2 114.973377139 42.2088586421 c 0,22,23
 53 85 53 85 25 157 c 1,24,-1
 169 209 l 1,25,26
 180 172 180 172 206.448409198 149.620576832 c 0,27,28
 232 128 232 128 272 120 c 1,29,-1
 272 277 l 1,30,-1
 231 286 l 2,31,32
 177 298 177 298 137.221365548 316.819999095 c 0,33,34
 84 342 84 342 57.4844855004 377.511849776 c 0,35,36
 28 417 28 417 28 474.957791396 c 0,37,38
 28 539 28 539 67.5963307562 586.295617292 c 0,39,40
 100 625 100 625 158.528208637 650.083517987 c 0,41,42
 212 673 212 673 272 678 c 1,43,-1
 272 747 l 1,44,-1
 345 747 l 1,45,-1
 345 678 l 1,46,47
 418 672 418 672 472.182513641 641.550322912 c 0,48,49
 539 604 539 604 567 535 c 1,50,-1
 424 483 l 1,51,52
 405 532 405 532 345 548 c 1,53,-1
 345 405 l 1,54,-1
 356 403 l 2,55,56
 397 396 397 396 431.764834225 385.653323147 c 0,57,58
 481 371 481 371 513.211010481 351.945599434 c 0,59,60
 552 329 552 329 572.132862206 297.885576591 c 0,61,62
 596 261 596 261 596 208.490048084 c 0,63,64
 596 144 596 144 557.50751119 93.2112994862 c 0,65,66
 524 49 524 49 464.073745233 20.8607151527 c 0,67,68
 409 -5 409 -5 345 -11 c 1,69,-1
 345 -87 l 1,70,-1
 272 -87 l 1,19,-1
EndSplineSet
EndChar

StartChar: percent
Encoding: 37 37 124
Width: 977
GlyphClass: 1
Flags: W
HStem: -12 119<702.324 809.706> 0 21G<192 332.012> 264 118<702.296 809.41> 286 118<167.43 275.145> 561 119<167.451 275.194> 648 20G<645.018 786>
VStem: 24 119<428.574 536.549> 192 126<0 126> 300 118<428.541 536.427> 559 118<132.276 238.857> 659 127<541 668> 835 118<132.137 238.862>
DStem2: 192 0 318 0 0.573791 0.819001<72.2977 815.054>
LayerCount: 2
Fore
SplineSet
756 107 m 128,-1,1
 788 107 788 107 811.192885036 129.699419397 c 0,2,3
 835 153 835 153 835 185.605495141 c 0,4,5
 835 218 835 218 811.301669951 241.194110261 c 0,6,7
 788 264 788 264 756.06780303 264 c 128,-1,8
 724 264 724 264 700.61391302 241.111489339 c 0,9,10
 677 218 677 218 677 185.460710347 c 128,-1,11
 677 153 677 153 700.710323779 129.794151195 c 0,12,0
 724 107 724 107 756 107 c 128,-1,1
756.5 -12 m 128,-1,14
 702 -12 702 -12 655.688206601 15.7870760396 c 0,15,16
 612 42 612 42 586.283591228 85.6693733868 c 0,17,18
 559 132 559 132 559 186.897035484 c 0,19,20
 559 241 559 241 586.262841556 286.266604847 c 0,21,22
 612 329 612 329 655.397758317 354.556457675 c 0,23,24
 702 382 702 382 756.976674206 382 c 0,25,26
 811 382 811 382 856.957658354 354.631956261 c 0,27,28
 900 329 900 329 925.29313433 287.003852433 c 0,29,30
 953 241 953 241 953 185.893228781 c 0,31,32
 953 132 953 132 925.810623123 85.8293600195 c 0,33,34
 900 42 900 42 857.282682622 16.0816276584 c 0,35,13
 811 -12 811 -12 756.5 -12 c 128,-1,14
221.5 404 m 128,-1,37
 254 404 254 404 277.089148626 427.089148626 c 128,-1,38
 300 450 300 450 300 482.468446097 c 128,-1,39
 300 515 300 515 277.082207709 537.917792291 c 128,-1,40
 254 561 254 561 221.471011017 561 c 128,-1,41
 189 561 189 561 166.092918568 538.092918568 c 128,-1,42
 143 515 143 515 143 482.467241643 c 128,-1,43
 143 450 143 450 165.994201368 427.005798632 c 128,-1,36
 189 404 189 404 221.5 404 c 128,-1,37
192 0 m 1,44,-1
 659 668 l 1,45,-1
 786 668 l 1,46,-1
 318 0 l 1,47,-1
 192 0 l 1,44,-1
221 286 m 128,-1,49
 167 286 167 286 120.922265476 313.134665886 c 0,50,51
 77 339 77 339 51.2951458801 382.164755032 c 0,52,53
 24 428 24 428 24 482.902804165 c 0,54,55
 24 537 24 537 51.2143853038 582.699628152 c 0,56,57
 77 626 77 626 120.289927595 651.973956557 c 0,58,59
 167 680 167 680 221.503499429 680 c 0,60,61
 275 680 275 680 321.297708961 652.221374623 c 0,62,63
 365 626 365 626 390.482432356 583.208745666 c 0,64,65
 418 537 418 537 418 481.986626668 c 0,66,67
 418 428 418 428 390.866974088 382.436994223 c 0,68,69
 365 339 365 339 321.349535087 313.294726218 c 0,70,48
 275 286 275 286 221 286 c 128,-1,49
EndSplineSet
EndChar

StartChar: ampersand
Encoding: 38 38 125
Width: 702
GlyphClass: 1
Flags: W
HStem: -13 125<217.244 370.045> 0 21G<504.642 698> 592 114<275.659 375.5>
VStem: 24 159<144.497 249.931> 121 139<479.732 577.818> 394 127<476.233 573.283> 546 127<315.896 389>
DStem2: 395 352 266 290 0.652386 -0.757887<0 143.176 274.565 349.629>
LayerCount: 2
Fore
SplineSet
284.110272543 112 m 0,0,1
 309 112 309 112 335.940578002 120.327087746 c 0,2,3
 364 129 364 129 392 146 c 1,4,-1
 266 290 l 1,5,6
 222 273 222 273 200.479619832 245.409769015 c 0,7,8
 183 223 183 223 183 196.776806543 c 0,9,10
 183 163 183 163 211.163802529 138.235277087 c 0,11,12
 241 112 241 112 284.110272543 112 c 0,0,1
322 437 m 1,13,14
 360 457 360 457 378.936193209 484.290396095 c 0,15,16
 394 506 394 506 394 528.766846264 c 0,17,18
 394 555 394 555 374.444934788 573.088435321 c 0,19,20
 354 592 354 592 323.610199123 592 c 0,21,22
 297 592 297 592 279.518430572 578.298229367 c 0,23,24
 260 563 260 563 260 538.635090382 c 0,25,26
 260 518 260 518 272.246790774 495.255959991 c 0,27,28
 288 466 288 466 322 437 c 1,13,14
263.165409218 -13 m 0,29,30
 195 -13 195 -13 137.930839373 17.091011967 c 0,31,32
 85 45 85 45 54.2608836721 92.3684743414 c 0,33,34
 24 139 24 139 24 189.160794064 c 0,35,36
 24 245 24 245 57.9998520039 292.599792806 c 0,37,38
 99 350 99 350 182 385 c 1,39,40
 150 426 150 426 134.661290319 466.197997786 c 0,41,42
 121 502 121 502 121 537.141425329 c 0,43,44
 121 587 121 587 149.446205614 626.307484121 c 0,45,46
 176 663 176 663 221.88499919 683.989946438 c 0,47,48
 270 706 270 706 323.115814287 706 c 0,49,50
 378 706 378 706 423.409066876 681.468665021 c 0,51,52
 465 659 465 659 491.170585168 621.61344976 c 0,53,54
 521 579 521 579 521 533.179239965 c 0,55,56
 521 488 521 488 494.975821586 445.822883259 c 0,57,58
 463 394 463 394 395 352 c 1,59,-1
 489 244 l 1,60,61
 508 274 508 274 521.831077131 308.33922598 c 0,62,63
 537 346 537 346 546 389 c 1,64,-1
 673 389 l 1,65,66
 661 315 661 315 630.192647967 244.583195352 c 0,67,68
 605 187 605 187 573 145 c 1,69,-1
 698 0 l 1,70,-1
 522 0 l 1,71,-1
 476 53 l 1,72,73
 419 18 419 18 362.965205526 1.61246576702 c 0,74,75
 313 -13 313 -13 263.165409218 -13 c 0,29,30
EndSplineSet
EndChar

StartChar: quotesingle
Encoding: 39 39 126
Width: 222
GlyphClass: 1
Flags: W
HStem: 434 234<54 168>
VStem: 54 114<434 551>
LayerCount: 2
Fore
SplineSet
54 434 m 1,0,-1
 40 668 l 1,1,-1
 182 668 l 1,2,-1
 168 434 l 1,3,-1
 54 434 l 1,0,-1
EndSplineSet
EndChar

StartChar: parenleft
Encoding: 40 40 127
Width: 366
GlyphClass: 1
Flags: W
HStem: -161 21G<147 331> 648 20G<119 289>
VStem: 35 141<115.325 454.922> 180 151<-161 -10>
LayerCount: 2
Fore
SplineSet
180 -161 m 1,0,1
 114 -69 114 -69 77.1914239701 35.3686206417 c 0,2,3
 35 155 35 155 35 280.200799354 c 0,4,5
 35 384 35 384 64.9126973918 486.115760062 c 0,6,7
 93 582 93 582 145 668 c 1,8,-1
 289 668 l 1,9,10
 231 580 231 580 202.851178975 479.687837802 c 0,11,12
 176 384 176 384 176 282.891605074 c 0,13,14
 176 152 176 152 228.089205969 23.513291943 c 0,15,16
 266 -70 266 -70 331 -161 c 1,17,-1
 180 -161 l 1,0,1
EndSplineSet
EndChar

StartChar: parenright
Encoding: 41 41 128
Width: 366
GlyphClass: 1
Flags: W
HStem: -161 21G<35 219.5> 648 20G<77 247.5>
VStem: 35 152<-161 -9> 190 141<113.943 457.334>
LayerCount: 2
Fore
SplineSet
35 -161 m 1,0,1
 101 -70 101 -70 139.733809429 26.6169179022 c 0,2,3
 190 152 190 152 190 285.879731486 c 0,4,5
 190 384 190 384 164.693798293 475.852139529 c 0,6,7
 136 580 136 580 77 668 c 1,8,-1
 221 668 l 1,9,10
 274 582 274 582 302.08428657 484.444057178 c 0,11,12
 331 384 331 384 331 278.410527948 c 0,13,14
 331 155 331 155 288.637021826 34.8821884698 c 0,15,16
 252 -69 252 -69 187 -161 c 1,17,-1
 35 -161 l 1,0,1
EndSplineSet
EndChar

StartChar: asterisk
Encoding: 42 42 129
Width: 434
GlyphClass: 1
Flags: W
HStem: 351 317
VStem: 173 88<567 668>
LayerCount: 2
Fore
SplineSet
158 351 m 1,0,-1
 87 402 l 1,1,-1
 146 484 l 1,2,-1
 50 515 l 1,3,-1
 77 598 l 1,4,-1
 173 567 l 1,5,-1
 173 668 l 1,6,-1
 261 668 l 1,7,-1
 261 567 l 1,8,-1
 355 598 l 1,9,-1
 383 515 l 1,10,-1
 288 484 l 1,11,-1
 347 402 l 1,12,-1
 276 351 l 1,13,-1
 217 432 l 1,14,-1
 158 351 l 1,0,-1
EndSplineSet
EndChar

StartChar: plus
Encoding: 43 43 130
Width: 618
GlyphClass: 1
Flags: W
HStem: 0 21G<245 373> 184 128<53 245 373 565> 476 20G<245 373>
VStem: 245 128<0 184 312 496>
LayerCount: 2
Fore
SplineSet
245 0 m 1,0,-1
 245 184 l 1,1,-1
 53 184 l 1,2,-1
 53 312 l 1,3,-1
 245 312 l 1,4,-1
 245 496 l 1,5,-1
 373 496 l 1,6,-1
 373 312 l 1,7,-1
 565 312 l 1,8,-1
 565 184 l 1,9,-1
 373 184 l 1,10,-1
 373 0 l 1,11,-1
 245 0 l 1,0,-1
EndSplineSet
EndChar

StartChar: comma
Encoding: 44 44 131
Width: 243
GlyphClass: 1
Flags: W
HStem: -146 329<99.109 136>
VStem: 24 195<25.5 147.082>
DStem2: 46 -146 136 -146 0.365652 0.930751<32.9087 146.893>
LayerCount: 2
Fore
SplineSet
46 -146 m 1,0,-1
 99 -9 l 1,1,2
 67 -1 67 -1 45.920380979 24.9818560027 c 0,3,4
 24 52 24 52 24 86.8804080656 c 0,5,6
 24 127 24 127 53.2760474298 155.266528553 c 0,7,8
 82 183 82 183 121.727363741 183 c 0,9,10
 162 183 162 183 190.372464567 154.627535433 c 0,11,12
 219 126 219 126 219 85.528285893 c 0,13,14
 219 67 219 67 213 50 c 2,15,-1
 136 -146 l 1,16,-1
 46 -146 l 1,0,-1
EndSplineSet
EndChar

StartChar: hyphen
Encoding: 45 45 132
Width: 374
GlyphClass: 1
Flags: W
HStem: 184 129<24 350>
VStem: 24 326<184 313>
LayerCount: 2
Fore
SplineSet
24 184 m 1,0,-1
 24 313 l 1,1,-1
 350 313 l 1,2,-1
 350 184 l 1,3,-1
 24 184 l 1,0,-1
EndSplineSet
EndChar

StartChar: period
Encoding: 46 46 133
Width: 243
GlyphClass: 1
Flags: W
HStem: -12 195<61.3738 182.047>
VStem: 24 195<25.4214 147.08>
LayerCount: 2
Fore
SplineSet
122 -12 m 128,-1,1
 82 -12 82 -12 53 17 c 128,-1,2
 24 46 24 46 24 86.5 c 128,-1,3
 24 127 24 127 53.344459138 155.332581237 c 0,4,5
 82 183 82 183 121.880510283 183 c 0,6,7
 162 183 162 183 190.219217112 155.275856872 c 0,8,9
 219 127 219 127 219 86.4007365586 c 128,-1,10
 219 46 219 46 190.552890099 17.053817996 c 128,-1,0
 162 -12 162 -12 122 -12 c 128,-1,1
EndSplineSet
EndChar

StartChar: slash
Encoding: 47 47 134
Width: 442
GlyphClass: 1
Flags: W
HStem: 0 21G<15 175.754> 648 20G<268.186 427>
DStem2: 15 0 168 0 0.363926 0.931428<55.6807 717.178>
LayerCount: 2
Fore
SplineSet
15 0 m 1,0,-1
 276 668 l 1,1,-1
 427 668 l 1,2,-1
 168 0 l 1,3,-1
 15 0 l 1,0,-1
EndSplineSet
EndChar

StartChar: braceleft
Encoding: 123 123 135
Width: 370
GlyphClass: 1
Flags: W
HStem: -161 120<258.196 336> 193 123<24 79.209> 548 120<258.196 336>
VStem: 94 144<-33.9976 178.715 330.018 540.998>
LayerCount: 2
Fore
SplineSet
285 -161 m 2,0,1
 226 -161 226 -161 187.531383957 -148.9226438 c 0,2,3
 140 -134 140 -134 117.611479525 -99.443805354 c 0,4,5
 94 -63 94 -63 94 2 c 2,6,-1
 94 97 l 2,7,8
 94 141 94 141 84.9946361188 161.359953123 c 0,9,10
 71 193 71 193 24 193 c 1,11,-1
 24 316 l 1,12,13
 71 316 71 316 85.0044189205 347.053276737 c 0,14,15
 94 367 94 367 94 410 c 2,16,-1
 94 506 l 2,17,18
 94 571 94 571 118.288939598 607.961429823 c 0,19,20
 140 641 140 641 186.727145696 655.670150393 c 0,21,22
 226 668 226 668 285 668 c 2,23,-1
 336 668 l 1,24,-1
 336 548 l 1,25,-1
 303 548 l 2,26,27
 272 548 272 548 257.746672054 541.292551555 c 0,28,29
 238 532 238 532 238 504 c 2,30,-1
 238 381 l 2,31,32
 238 339 238 339 222.874905426 310.990565603 c 0,33,34
 211 289 211 289 187.148812696 274.234979288 c 0,35,36
 169 263 169 263 144 256 c 1,37,-1
 144 253 l 1,38,39
 169 247 169 247 187.062591957 235.818395455 c 0,40,41
 211 221 211 221 223.233164705 198.345991287 c 0,42,43
 238 171 238 171 238 128 c 2,44,-1
 238 3 l 2,45,46
 238 -25 238 -25 257.746672054 -34.2925515548 c 0,47,48
 272 -41 272 -41 303 -41 c 2,49,-1
 336 -41 l 1,50,-1
 336 -161 l 1,51,-1
 285 -161 l 2,0,1
EndSplineSet
EndChar

StartChar: bar
Encoding: 124 124 136
Width: 234
GlyphClass: 1
Flags: W
HStem: -161 21G<44 190> 648 20G<44 190>
VStem: 44 146<-161 668>
LayerCount: 2
Fore
SplineSet
44 -161 m 1,0,-1
 44 668 l 1,1,-1
 190 668 l 1,2,-1
 190 -161 l 1,3,-1
 44 -161 l 1,0,-1
EndSplineSet
EndChar

StartChar: braceright
Encoding: 125 125 137
Width: 370
GlyphClass: 1
Flags: W
HStem: -161 120<34 113.638> 193 123<291.802 346> 548 120<34 113.638>
VStem: 133 144<-33.881 178.777 329.959 540.881>
LayerCount: 2
Fore
SplineSet
34 -161 m 1,0,-1
 34 -41 l 1,1,-1
 68 -41 l 2,2,3
 100 -41 100 -41 114.08218358 -34.1722746281 c 0,4,5
 133 -25 133 -25 133 3 c 2,6,-1
 133 128 l 2,7,8
 133 171 133 171 147.349425283 198.595048622 c 0,9,10
 159 221 159 221 183.65034745 235.904861249 c 0,11,12
 202 247 202 247 226 253 c 1,13,-1
 226 256 l 1,14,15
 202 263 202 263 184.872216754 273.356334056 c 0,16,17
 159 289 159 289 146.675590752 312.700787015 c 0,18,19
 133 339 133 339 133 381 c 2,20,-1
 133 504 l 2,21,22
 133 532 133 532 114.08218358 541.172274628 c 0,23,24
 100 548 100 548 68 548 c 2,25,-1
 34 548 l 1,26,-1
 34 668 l 1,27,-1
 86 668 l 2,28,29
 146 668 146 668 184.541056113 655.757546882 c 0,30,31
 231 641 231 641 253.137373177 607.312692991 c 0,32,33
 277 571 277 571 277 506 c 2,34,-1
 277 410 l 2,35,36
 277 367 277 367 286.054547516 346.922525073 c 0,37,38
 300 316 300 316 346 316 c 1,39,-1
 346 193 l 1,40,41
 300 193 300 193 286.064352939 161.493319688 c 0,42,43
 277 141 277 141 277 97 c 2,44,-1
 277 2 l 2,45,46
 277 -63 277 -63 252.729027794 -100.461717971 c 0,47,48
 231 -134 231 -134 184.951687652 -148.627110981 c 0,49,50
 146 -161 146 -161 86 -161 c 2,51,-1
 34 -161 l 1,0,-1
EndSplineSet
EndChar

StartChar: asciitilde
Encoding: 126 126 138
Width: 533
GlyphClass: 1
Flags: W
HStem: 167 123<287.079 376.526> 227 123<155.191 252.304>
LayerCount: 2
Fore
SplineSet
362.936212364 167 m 0,0,1
 324 167 324 167 278.523410664 190.935047019 c 0,2,3
 267 197 267 197 258.819076756 201.71976341 c 0,4,5
 215 227 215 227 188.450698923 227 c 0,6,7
 168 227 168 227 157.899459892 214.879351871 c 0,8,9
 143 197 143 197 145 146 c 1,10,-1
 40 184 l 1,11,12
 45 261 45 261 71.9027259701 300.905710189 c 0,13,14
 105 350 105 350 175.197955919 350 c 0,15,16
 214 350 214 350 258.011835896 327.621100392 c 0,17,18
 273 320 273 320 284.792636627 312.924418024 c 0,19,20
 323 290 323 290 345.499357621 290 c 0,21,22
 364 290 364 290 374.220658379 302.186169606 c 0,23,24
 390 321 390 321 387 370 c 1,25,-1
 493 333 l 1,26,27
 488 256 488 256 461.854439317 215.880087918 c 0,28,29
 430 167 430 167 362.936212364 167 c 0,0,1
EndSplineSet
EndChar

StartChar: exclamdown
Encoding: 161 161 139
Width: 283
GlyphClass: 1
Flags: W
HStem: -161 21G<45 238> 325 194<80.6167 203.039>
VStem: 45 193<-161 49.0244 360.041 483.312>
LayerCount: 2
Fore
SplineSet
45 -161 m 1,0,-1
 45 12 l 1,1,-1
 86 265 l 1,2,-1
 197 265 l 1,3,-1
 238 12 l 1,4,-1
 238 -161 l 1,5,-1
 45 -161 l 1,0,-1
142 325 m 128,-1,7
 102 325 102 325 73.2544055421 352.754367063 c 0,8,9
 44 381 44 381 44 421.588435145 c 128,-1,10
 44 462 44 462 73.2003019273 490.696848446 c 0,11,12
 102 519 102 519 141.930690805 519 c 128,-1,13
 182 519 182 519 210.336401949 490.663598051 c 0,14,15
 239 462 239 462 239 421.442045857 c 128,-1,16
 239 381 239 381 210.295586501 352.799172703 c 0,17,6
 182 325 182 325 142 325 c 128,-1,7
EndSplineSet
EndChar

StartChar: cent
Encoding: 162 162 140
Width: 520
GlyphClass: 1
Flags: W
VStem: 24 155<155.419 343.353> 244 73<-87 -8.40094 115 383 505.133 571>
LayerCount: 2
Fore
SplineSet
244 115 m 1,0,-1
 244 383 l 1,1,2
 216 370 216 370 199.786927187 342.393957103 c 0,3,4
 179 307 179 307 179 247.696882348 c 0,5,6
 179 191 179 191 200.488677586 154.808543013 c 0,7,8
 217 127 217 127 244 115 c 1,0,-1
244 -87 m 1,9,-1
 244 -11 l 1,10,11
 138 0 138 0 79.74779486 72.0487800415 c 0,12,13
 24 141 24 141 24 247.911145093 c 0,14,15
 24 323 24 323 52.4915285126 379.983057025 c 0,16,17
 79 433 79 433 127.306775325 466.180411335 c 0,18,19
 178 501 178 501 244 508 c 1,20,-1
 244 571 l 1,21,-1
 317 571 l 1,22,-1
 317 507 l 1,23,24
 372 500 372 500 415.179307896 474.776443902 c 0,25,26
 473 441 473 441 502 379 c 1,27,-1
 375 334 l 1,28,29
 366 357 366 357 349.651991231 371.168274266 c 0,30,31
 336 383 336 383 318 388 c 1,32,-1
 318 109 l 1,33,34
 357 118 357 118 376 152 c 1,35,-1
 500 107 l 1,36,37
 469 51 469 51 411.288513334 19.8357972003 c 0,38,39
 369 -3 369 -3 317 -10 c 1,40,-1
 317 -87 l 1,41,-1
 244 -87 l 1,9,-1
EndSplineSet
EndChar

StartChar: sterling
Encoding: 163 163 141
Width: 617
GlyphClass: 1
Flags: W
HStem: -12 125<323.523 554.744> 24 110<226.471 352.659> 295 73<50 125 324 450> 558 121<267.41 413.185>
VStem: 82 160<418.535 535.556> 173 158<191.116 294.39>
LayerCount: 2
Fore
SplineSet
105 -12 m 1,0,-1
 50 104 l 1,1,2
 109 133 109 133 136.33126292 160.33126292 c 0,3,4
 173 197 173 197 173 247.584074457 c 0,5,6
 173 274 173 274 163 295 c 1,7,-1
 50 295 l 1,8,-1
 50 368 l 1,9,-1
 125 368 l 1,10,11
 109 399 109 399 100.181688992 420.882475465 c 0,12,13
 82 466 82 466 82 506.240831375 c 0,14,15
 82 550 82 550 104.567357505 585.163091926 c 0,16,17
 125 617 125 617 163.633411197 639.227442058 c 0,18,19
 198 659 198 659 244.92902674 669.428672609 c 0,20,21
 288 679 288 679 332.64013475 679 c 0,22,23
 421 679 421 679 487.563944838 642.020030646 c 0,24,25
 556 604 556 604 585 536 c 1,26,-1
 449 486 l 1,27,28
 438 525 438 525 399.916119279 544.04194036 c 0,29,30
 372 558 372 558 336.412739226 558 c 0,31,32
 296 558 296 558 270.160661919 540.773774613 c 0,33,34
 242 522 242 522 242 485.507177023 c 0,35,36
 242 458 242 458 267.942036137 410.169370872 c 0,37,38
 274 399 274 399 290 368 c 1,39,-1
 450 368 l 1,40,-1
 450 295 l 1,41,-1
 324 295 l 1,42,43
 331 277 331 277 331 256.3842137 c 0,44,45
 331 213 331 213 294.869720767 171.625002813 c 0,46,47
 269 142 269 142 226 115 c 1,48,49
 247 127 247 127 272.583409119 131.26390152 c 0,50,51
 289 134 289 134 308.939340341 134 c 0,52,53
 348 134 348 134 387.13556344 122.893961726 c 0,54,55
 422 113 422 113 452.539055123 113 c 0,56,57
 480 113 480 113 506.681436705 121.370646809 c 0,58,59
 531 129 531 129 556 144 c 1,60,-1
 600 23 l 1,61,62
 566 6 566 6 529.763176712 -2.47094570358 c 0,63,64
 489 -12 489 -12 446.400271305 -12 c 0,65,66
 405 -12 405 -12 347.01227575 3.57879158944 c 0,67,68
 338 6 338 6 332.617186432 7.49062529565 c 0,69,70
 273 24 273 24 238.686152729 24 c 0,71,72
 218 24 218 24 195.967168423 20.1682032039 c 0,73,74
 149 12 149 12 105 -12 c 1,0,-1
EndSplineSet
EndChar

StartChar: currency
Encoding: 164 164 142
Width: 596
GlyphClass: 1
Flags: W
HStem: 102 119<236.619 359.378> 419 120<235.672 360.24>
VStem: 79 120<258.819 382.206> 397 119<259.106 381.832>
DStem2: 105 565 53 513 0.707107 -0.707107<0 99.0648 520.392 619.426> 53 127 105 75 0.707107 0.707107<0 99.0336 520.408 619.426>
LayerCount: 2
Fore
SplineSet
298 221 m 128,-1,1
 339 221 339 221 368.123933887 250.626070679 c 0,2,3
 397 280 397 280 397 320.95610193 c 128,-1,4
 397 362 397 362 367.866152505 390.63153978 c 0,5,6
 339 419 339 419 298.047417656 419 c 128,-1,7
 257 419 257 419 228.117709504 390.615680029 c 0,8,9
 199 362 199 362 199 320.95848 c 128,-1,10
 199 280 199 280 227.868720584 250.633542855 c 0,11,0
 257 221 257 221 298 221 c 128,-1,1
105 75 m 1,12,-1
 53 127 l 1,13,-1
 120 194 l 1,14,15
 101 221 101 221 90.6636515907 251.069377191 c 0,16,17
 79 285 79 285 79 321.019878361 c 0,18,19
 79 356 79 356 90.6699092504 389.41837649 c 0,20,21
 101 419 101 419 120 446 c 1,22,-1
 53 513 l 1,23,-1
 105 565 l 1,24,-1
 172 498 l 1,25,26
 199 518 199 518 230.756892047 528.420230203 c 0,27,28
 263 539 263 539 298.567169565 539 c 128,-1,29
 334 539 334 539 366.060099495 528.313300168 c 0,30,31
 397 518 397 518 424 498 c 1,32,-1
 491 565 l 1,33,-1
 543 513 l 1,34,-1
 476 446 l 1,35,36
 516 391 516 391 516 320.91029025 c 0,37,38
 516 285 516 285 505.106136655 251.799654566 c 0,39,40
 495 221 495 221 476 194 c 1,41,-1
 543 127 l 1,42,-1
 491 75 l 1,43,-1
 424 142 l 1,44,45
 369 102 369 102 298 102 c 128,-1,46
 227 102 227 102 172 142 c 1,47,-1
 105 75 l 1,12,-1
EndSplineSet
EndChar

StartChar: yen
Encoding: 165 165 143
Width: 687
GlyphClass: 1
Flags: W
HStem: 0 21G<265 422> 75 74<136 265 422 552> 212 74<136 249 438 552> 647 20G<10 205.641 480.359 677>
VStem: 10 184<483 667> 265 157<0 75 149 212> 492 185<482 667>
DStem2: 194 667 10 667 0.531397 -0.847123<0 296.042> 343 411 438 286 0.531397 0.847123<0 296.042>
LayerCount: 2
Fore
SplineSet
265 0 m 1,0,-1
 265 75 l 1,1,-1
 136 75 l 1,2,-1
 136 149 l 1,3,-1
 265 149 l 1,4,-1
 265 212 l 1,5,-1
 136 212 l 1,6,-1
 136 286 l 1,7,-1
 249 286 l 1,8,-1
 10 667 l 1,9,-1
 194 667 l 1,10,-1
 343 411 l 1,11,-1
 492 667 l 1,12,-1
 677 667 l 1,13,-1
 438 286 l 1,14,-1
 552 286 l 1,15,-1
 552 212 l 1,16,-1
 422 212 l 1,17,-1
 422 149 l 1,18,-1
 552 149 l 1,19,-1
 552 75 l 1,20,-1
 422 75 l 1,21,-1
 422 0 l 1,22,-1
 265 0 l 1,0,-1
EndSplineSet
EndChar

StartChar: brokenbar
Encoding: 166 166 144
Width: 216
GlyphClass: 1
Flags: W
HStem: -161 21G<44 172> 648 20G<44 172>
VStem: 44 128<-161 150 358 668>
LayerCount: 2
Fore
SplineSet
44 -161 m 1,0,-1
 44 150 l 1,1,-1
 172 150 l 1,2,-1
 172 -161 l 1,3,-1
 44 -161 l 1,0,-1
44 358 m 1,4,-1
 44 668 l 1,5,-1
 172 668 l 1,6,-1
 172 358 l 1,7,-1
 44 358 l 1,4,-1
EndSplineSet
EndChar

StartChar: section
Encoding: 167 167 145
Width: 578
GlyphClass: 1
Flags: W
HStem: -173 117<223.573 336.823> 565 115<227.509 344.129>
VStem: 21 149<270.191 340.033> 68 149<497.456 556.47> 351 151<-43.2597 36.4316> 398 153<195.17 267.531>
DStem2: 356 184 162 125 0.895856 -0.444345<-217.098 14.9623> 278 474 211 352 0.89735 -0.44132<-19.8489 210.988>
LayerCount: 2
Fore
SplineSet
356 184 m 1,0,1
 376 193 376 193 385.737958722 202.295324234 c 0,2,3
 398 214 398 214 398 230.780313803 c 0,4,5
 398 253 398 253 370.408952867 271.607915508 c 0,6,7
 355 282 355 282 321 298 c 2,8,-1
 211 352 l 1,9,10
 170 332 170 332 170 304.626420434 c 0,11,12
 170 287 170 287 190.60932429 270.633771887 c 0,13,14
 204 260 204 260 231 246 c 2,15,-1
 356 184 l 1,0,1
278.999284693 -173 m 0,16,17
 196 -173 196 -173 139.425197461 -134.59141846 c 0,18,19
 87 -99 87 -99 64 -35 c 1,20,-1
 194 12 l 1,21,22
 203 -22 203 -22 225.989361812 -39.3697400354 c 0,23,24
 248 -56 248 -56 282.718850535 -56 c 0,25,26
 314 -56 314 -56 332.670621414 -42.3754924816 c 0,27,28
 351 -29 351 -29 351 -6.70212229671 c 0,29,30
 351 16 351 16 330.657647141 35.2717027089 c 0,31,32
 313 52 313 52 277 69 c 2,33,-1
 162 125 l 2,34,35
 95 157 95 157 60.6033334647 195.11522508 c 0,36,37
 21 239 21 239 21 291.854533342 c 0,38,39
 21 333 21 333 47.2057938343 368.487012484 c 0,40,41
 69 398 69 398 107 421 c 1,42,43
 89 444 89 444 79.2621691706 468.576430189 c 0,44,45
 68 497 68 497 68 527.552395715 c 0,46,47
 68 577 68 577 99.2532114729 613.020650511 c 0,48,49
 127 645 127 645 176.989389872 662.853353526 c 0,50,51
 225 680 225 680 279.998694806 680 c 0,52,53
 322 680 322 680 357.726723986 671.068319003 c 0,54,55
 402 660 402 660 433.106856501 637.250209425 c 0,56,57
 469 611 469 611 489 568 c 1,58,-1
 359 521 l 1,59,60
 356 528 356 528 351.40973731 534.426367765 c 0,61,62
 341 549 341 549 326.601325822 556.199337089 c 0,63,64
 309 565 309 565 280.16238038 565 c 0,65,66
 251 565 251 565 234.151712274 556.080318263 c 0,67,68
 217 547 217 547 217 530.845054329 c 0,69,70
 217 515 217 515 235.858844303 499.57003648 c 0,71,72
 250 488 250 488 278 474 c 2,73,-1
 400 414 l 2,74,75
 472 379 472 379 505.971325497 347.178758395 c 0,76,77
 551 305 551 305 551 248.60133595 c 0,78,79
 551 207 551 207 525.938920644 171.709908662 c 0,80,81
 502 138 502 138 458 114 c 1,82,83
 479 92 479 92 489.955704846 66.2779103606 c 0,84,85
 502 38 502 38 502 3.90510885615 c 0,86,87
 502 -49 502 -49 472.242484027 -90.0448496183 c 0,88,89
 444 -129 444 -129 394.069592727 -150.751860594 c 0,90,91
 343 -173 343 -173 278.999284693 -173 c 0,16,17
EndSplineSet
EndChar

StartChar: dieresis
Encoding: 168 168 146
Width: 452
GlyphClass: 1
Flags: W
HStem: 578 141<80.7808 178.85 274.781 372.478>
VStem: 59 141<599.135 697.22> 253 140<599.25 697.094>
LayerCount: 2
Fore
SplineSet
324 578 m 128,-1,1
 295 578 295 578 274.126510615 598.376501542 c 0,2,3
 253 619 253 619 253 648.043545217 c 128,-1,4
 253 677 253 677 273.99211089 697.99211089 c 128,-1,5
 295 719 295 719 324.00272311 719 c 128,-1,6
 353 719 353 719 373.243469269 697.744357267 c 0,7,8
 393 677 393 677 393 648.088798933 c 128,-1,9
 393 619 393 619 373.10817524 598.610879621 c 0,10,0
 353 578 353 578 324 578 c 128,-1,1
130 578 m 128,-1,12
 101 578 101 578 80.1265106153 598.376501542 c 0,13,14
 59 619 59 619 59 648.043545217 c 128,-1,15
 59 677 59 677 79.99211089 697.99211089 c 128,-1,16
 101 719 101 719 130.00272311 719 c 128,-1,17
 159 719 159 719 179.623017213 697.873982367 c 0,18,19
 200 677 200 677 200 648.043637116 c 128,-1,20
 200 619 200 619 179.492294065 598.492294065 c 128,-1,11
 159 578 159 578 130 578 c 128,-1,12
EndSplineSet
EndChar

StartChar: copyright
Encoding: 169 169 147
Width: 798
GlyphClass: 1
Flags: W
HStem: -12 69<291.155 505.653> 145 85<356.307 464.036> 437 85<356.471 459.045> 610 69<291.289 505.613>
VStem: 53 70<226.446 440.87> 218 112<256.975 410.582> 675 70<226.447 440.872>
LayerCount: 2
Fore
SplineSet
395.270130836 145 m 0,0,1
 313 145 313 145 264.812831451 197.752268727 c 0,2,3
 218 249 218 249 218 332.112920238 c 0,4,5
 218 391 218 391 242.486870453 434.763768469 c 0,6,7
 265 475 265 475 304.725916284 497.769732504 c 0,8,9
 347 522 347 522 399.609390251 522 c 0,10,11
 448 522 448 522 486.177829705 504.798999803 c 0,12,13
 539 481 539 481 564 428 c 1,14,-1
 472 394 l 1,15,16
 463 417 463 417 444.670419411 427.782106229 c 0,17,18
 429 437 429 437 409.359541482 437 c 0,19,20
 378 437 378 437 357.578441881 417.003891008 c 0,21,22
 330 390 330 390 330 331.31384416 c 0,23,24
 330 276 330 276 359.005151746 248.770673871 c 0,25,26
 379 230 379 230 410.971232554 230 c 0,27,28
 454 230 454 230 473 264 c 1,29,-1
 563 231 l 1,30,31
 535 183 535 183 483.916760886 161.431521263 c 0,32,33
 445 145 445 145 395.270130836 145 c 0,0,1
398 57 m 128,-1,35
 455 57 455 57 506.840740295 79.0708102246 c 0,36,37
 556 100 556 100 593.744376805 137.744376805 c 0,38,39
 632 176 632 176 652.965202101 225.243846795 c 0,40,41
 675 277 675 277 675 334.350117973 c 0,42,43
 675 391 675 391 652.868873686 442.467735614 c 0,44,45
 632 491 632 491 594.448245508 528.551754492 c 0,46,47
 556 567 556 567 506.692781388 587.992182182 c 0,48,49
 455 610 455 610 397.667340228 610 c 0,50,51
 341 610 341 610 289.824319321 587.772179099 c 0,52,53
 242 567 242 567 204.495282611 529.495282611 c 0,54,55
 166 491 166 491 145.094669497 442.382952318 c 0,56,57
 123 391 123 391 123 333.611216937 c 0,58,59
 123 277 123 277 145.034047358 225.245609693 c 0,60,61
 166 176 166 176 204.094412743 137.905587257 c 128,-1,62
 242 100 242 100 289.721226758 79.2725984788 c 0,63,34
 341 57 341 57 398 57 c 128,-1,35
398.5 -12 m 128,-1,65
 327 -12 327 -12 262.387181819 15.9127374543 c 0,66,67
 202 42 202 42 154.908367577 89.0916324231 c 0,68,69
 107 137 107 137 80.9020049578 197.412025561 c 0,70,71
 53 262 53 262 53 334.08738936 c 0,72,73
 53 405 53 405 80.8571154118 469.484063453 c 0,74,75
 107 530 107 530 154.116923033 577.116923033 c 0,76,77
 202 625 202 625 262.622098175 651.188746412 c 0,78,79
 327 679 327 679 399.02915966 679 c 0,80,81
 470 679 470 679 534.792768477 651.231670653 c 0,82,83
 596 625 596 625 643.323263531 577.676736469 c 0,84,85
 691 530 691 530 717.159623344 469.445316333 c 0,86,87
 745 405 745 405 745 332.952133059 c 0,88,89
 745 262 745 262 717.139127399 197.50723935 c 0,90,91
 691 137 691 137 644.050853967 90.0508539665 c 0,92,93
 596 42 596 42 534.728214948 15.7406635489 c 0,94,64
 470 -12 470 -12 398.5 -12 c 128,-1,65
EndSplineSet
EndChar

StartChar: questiondown
Encoding: 191 191 148
Width: 614
GlyphClass: 1
Flags: W
HStem: -172 122<225.412 397.466> 324 195<288.884 411.838>
VStem: 50 156<-29.8329 42.8239> 253 194<359.907 483.154>
LayerCount: 2
Fore
SplineSet
307.345237792 -172 m 0,0,1
 239 -172 239 -172 183.750948835 -154.377457818 c 0,2,3
 123 -135 123 -135 89.0436603919 -99.6481943807 c 0,4,5
 50 -59 50 -59 50 4.04410925687 c 0,6,7
 50 65 50 65 93.5105874344 108.510587434 c 0,8,9
 123 138 123 138 181.627642635 165.519097563 c 0,10,11
 221 184 221 184 239.362854905 198.154700656 c 0,12,13
 269 221 269 221 273 255 c 2,14,-1
 274 265 l 1,15,-1
 428 265 l 1,16,-1
 428 253 l 2,17,18
 427 205 427 205 412.336106327 173.577370702 c 0,19,20
 399 145 399 145 368.777957481 121.921349349 c 0,21,22
 344 103 344 103 280.840646147 72.461411324 c 0,23,24
 253 59 253 59 242.916487143 53.4218865045 c 0,25,26
 206 33 206 33 206 5.85273923864 c 0,27,28
 206 -18 206 -18 233.631114951 -33.512204885 c 0,29,30
 263 -50 263 -50 308.648188201 -50 c 0,31,32
 355 -50 355 -50 386.707660452 -34.3759354296 c 0,33,34
 424 -16 424 -16 437 22 c 1,35,-1
 574 -28 l 1,36,37
 546 -98 546 -98 473.307882668 -135.881807624 c 0,38,39
 404 -172 404 -172 307.345237792 -172 c 0,0,1
350.5 324 m 128,-1,41
 310 324 310 324 281.41148983 352.58851017 c 128,-1,42
 253 381 253 381 253 421.468506675 c 128,-1,43
 253 462 253 462 281.594048453 490.594048453 c 128,-1,44
 310 519 310 519 350.466532807 519 c 128,-1,45
 391 519 391 519 419.04378842 490.455429644 c 128,-1,46
 447 462 447 462 447 421.515846599 c 128,-1,47
 447 381 447 381 419.121157901 352.623321435 c 0,48,40
 391 324 391 324 350.5 324 c 128,-1,41
EndSplineSet
EndChar

StartChar: germandbls
Encoding: 223 223 149
Width: 621
GlyphClass: 1
Flags: W
HStem: -12 126<315.969 412.627> 0 21G<44 197> 298 117<278 389.711> 556 123<237.137 389.085>
VStem: 44 153<0 521.286> 410 147<435.993 533.798> 443 156<144.207 262.087>
LayerCount: 2
Fore
SplineSet
347 -12 m 0,0,1
 329 -12 329 -12 319 -11 c 1,2,-1
 278 123 l 1,3,4
 311 114 311 114 339.086908009 114 c 0,5,6
 383 114 383 114 411.375426685 134.808646236 c 0,7,8
 443 158 443 158 443 203.47764638 c 0,9,10
 443 253 443 253 402.360065877 277.383960474 c 0,11,12
 368 298 368 298 309 298 c 2,13,-1
 278 298 l 1,14,-1
 278 415 l 1,15,-1
 304 415 l 2,16,17
 410 415 410 415 410 484.143920472 c 0,18,19
 410 516 410 516 389.368875196 534.338777603 c 0,20,21
 365 556 365 556 311.099592088 556 c 0,22,23
 267 556 267 556 241.112703237 541.279772429 c 0,24,25
 216 527 216 527 205.726083884 495.637519224 c 0,26,27
 197 469 197 469 197 424 c 2,28,-1
 197 0 l 1,29,-1
 44 0 l 1,30,-1
 44 435 l 2,31,32
 44 526 44 526 78.3224765553 581.644015021 c 0,33,34
 110 633 110 633 175.529178634 657.309211429 c 0,35,36
 234 679 234 679 311.118971763 679 c 0,37,38
 387 679 387 679 441.026420111 657.793367807 c 0,39,40
 494 637 494 637 523.512780231 598.586540017 c 0,41,42
 557 555 557 555 557 493.893404264 c 0,43,44
 557 451 557 451 537.73227804 413.632296805 c 0,45,46
 524 387 524 387 504 370 c 1,47,48
 544 349 544 349 568.155174067 312.986831391 c 0,49,50
 599 267 599 267 599 199.085309102 c 128,-1,51
 599 131 599 131 567.134238736 81.65946643 c 0,52,53
 537 35 537 35 483.000926381 11.7159957791 c 0,54,55
 428 -12 428 -12 347 -12 c 0,0,1
EndSplineSet
EndChar

StartChar: AE
Encoding: 198 198 150
Width: 1016
GlyphClass: 1
Flags: W
HStem: 0 139<639 994> 119 128<341 481> 275 138<639 857> 528 139<639 994>
DStem2: 5 0 177 0 0.580892 0.813981<99.9134 243.248 396.233 602.496>
AnchorPoint: "Anchor-0" 698 668 basechar 0
LayerCount: 2
Fore
SplineSet
341 247 m 1,0,-1
 481 247 l 1,1,-1
 481 453 l 1,2,-1
 341 247 l 1,0,-1
5 0 m 1,3,-1
 481 667 l 1,4,-1
 994 667 l 1,5,-1
 994 528 l 1,6,-1
 639 528 l 1,7,-1
 639 413 l 1,8,-1
 857 413 l 1,9,-1
 857 275 l 1,10,-1
 639 275 l 1,11,-1
 639 139 l 1,12,-1
 994 139 l 1,13,-1
 994 0 l 1,14,-1
 481 0 l 1,15,-1
 481 119 l 1,16,-1
 257 119 l 1,17,-1
 177 0 l 1,18,-1
 5 0 l 1,3,-1
EndSplineSet
EndChar

StartChar: florin
Encoding: 279 402 151
Width: 377
GlyphClass: 1
Flags: W
HStem: -174 141<15.3906 131.319> 381 115<15 97 249 357> 608 121<262.818 357>
VStem: 97 152<-8.08579 381 496 599.995>
LayerCount: 2
Fore
SplineSet
93.638575957 -174 m 0,0,1
 73 -174 73 -174 48.9895220326 -170.486271517 c 0,2,3
 32 -168 32 -168 15 -164 c 1,4,-1
 15 -31 l 1,5,6
 23 -32 23 -32 30.5 -32.5 c 128,-1,7
 38 -33 38 -33 43.5976094393 -33 c 0,8,9
 79 -33 79 -33 89.9905457055 -8.57656509886 c 0,10,11
 97 7 97 7 97 39 c 2,12,-1
 97 381 l 1,13,-1
 15 381 l 1,14,-1
 15 496 l 1,15,-1
 97 496 l 1,16,-1
 97 578 l 2,17,18
 97 666 97 666 145.225497918 699.386883174 c 0,19,20
 188 729 188 729 288 729 c 2,21,-1
 357 729 l 1,22,-1
 357 608 l 1,23,-1
 315 608 l 2,24,25
 275 608 275 608 262.418562109 600.257576682 c 0,26,27
 249 592 249 592 249 564 c 2,28,-1
 249 496 l 1,29,-1
 357 496 l 1,30,-1
 357 381 l 1,31,-1
 249 381 l 1,32,-1
 249 -16 l 2,33,34
 249 -94 249 -94 208.65587549 -134.34412451 c 0,35,36
 169 -174 169 -174 93.638575957 -174 c 0,0,1
EndSplineSet
EndChar

StartChar: integral
Encoding: 280 8747 152
Width: 486
GlyphClass: 1
Flags: W
HStem: 660 20G<325.567 356.067>
VStem: 41.5048 112.495<-104.6 -47.0982> 171.818 135.182<297.238 563.991> 180 135.183<-57.9827 502.029> 333 111.498<553.261 610.395>
LayerCount: 2
Fore
SplineSet
147.442101292 -174 m 0,0,1
 119 -174 119 -174 94.4980370818 -160.967041001 c 0,2,3
 72 -149 72 -149 57.339888019 -129.1379128 c 0,4,5
 41 -107 41 -107 41.5048417015 -83.777281731 c 0,6,7
 42 -61 42 -61 58.8159714964 -45.2031782913 c 0,8,9
 75 -30 75 -30 97.529394399 -30 c 0,10,11
 121 -30 121 -30 137.583549498 -46.5835494977 c 128,-1,12
 154 -63 154 -63 154 -86.1175790682 c 0,13,14
 154 -96 154 -96 151 -105 c 1,15,16
 168 -97 168 -97 174.564268917 -68.0078122815 c 0,17,18
 180 -44 180 -44 180 2.0373873554 c 0,19,20
 180 16 180 16 179.666963722 38.646466878 c 0,21,22
 179 84 179 84 177.375115658 133.829786493 c 0,23,24
 176 176 176 176 174.64276329 241.825980425 c 0,25,26
 174 273 174 273 173.482418536 295.256002968 c 0,27,28
 172 359 172 359 171.817686522 380.148363442 c 0,29,30
 171 475 171 475 185.64049998 536.273203622 c 0,31,32
 198 588 198 588 223.860915307 622.305295815 c 0,33,34
 247 653 247 653 280.839844688 667.50279058 c 0,35,36
 310 680 310 680 341.133990988 680 c 0,37,38
 371 680 371 680 394.364637379 668.058074228 c 0,39,40
 416 657 416 657 429.464463616 637.964034197 c 0,41,42
 445 616 445 616 444.497507401 591.880355248 c 0,43,44
 444 568 444 568 427.933966216 551.933966216 c 128,-1,45
 412 536 412 536 388.705075241 536 c 0,46,47
 365 536 365 536 348.75615243 552.751467807 c 0,48,49
 333 569 333 569 333 591.974892657 c 0,50,51
 333 602 333 602 336 611 c 1,52,53
 307 597 307 597 307 502.419082848 c 0,54,55
 307 490 307 490 307.319188593 468.295175689 c 0,56,57
 308 422 308 422 309.628949866 372.588520742 c 0,58,59
 311 331 311 331 312.381173456 264.013087373 c 0,60,61
 313 234 313 234 313.492432952 212.579166604 c 0,62,63
 315 147 315 147 315.183326913 125.734078053 c 0,64,65
 316 31 316 31 301.363655803 -30.2558108983 c 0,66,67
 289 -82 289 -82 263.13703192 -116.308018881 c 0,68,69
 240 -147 240 -147 204.623586559 -162.161320046 c 0,70,71
 177 -174 177 -174 147.442101292 -174 c 0,0,1
EndSplineSet
EndChar

StartChar: approxequal
Encoding: 281 8776 153
Width: 532
GlyphClass: 1
Flags: W
HStem: 59 123<288.156 375.053> 118 125<156.19 253.281> 257 123<287.678 375.007> 317 124<156.118 252.338>
LayerCount: 2
Fore
SplineSet
145 57 m 1,0,-1
 41 95 l 1,1,2
 48 163 48 163 74.8577943704 198.810392494 c 0,3,4
 108 243 108 243 174.345670468 243 c 0,5,6
 213 243 213 243 256.042157841 221.478921079 c 0,7,8
 273 213 273 213 286.498492119 204.630934886 c 0,9,10
 323 182 323 182 345.567079935 182 c 0,11,12
 362 182 362 182 371.597981039 191.597981039 c 0,13,14
 386 206 386 206 387 244 c 1,15,-1
 491 206 l 1,16,17
 484 137 484 137 457.284801276 101.681601687 c 0,18,19
 425 59 425 59 361.590581594 59 c 0,20,21
 324 59 324 59 275.1622642 84.7040714737 c 0,22,23
 267 89 267 89 262.025887825 91.7216840205 c 0,24,25
 214 118 214 118 186.916543912 118 c 0,26,27
 169 118 169 118 159.562384114 108.562384114 c 0,28,29
 146 95 146 95 145 57 c 1,0,-1
145 256 m 1,30,-1
 41 294 l 1,31,32
 48 362 48 362 74.9658775169 397.505072064 c 0,33,34
 108 441 108 441 174.151964182 441 c 0,35,36
 213 441 213 441 256.072546178 419.463726911 c 0,37,38
 273 411 273 411 286.489656597 402.63641291 c 0,39,40
 323 380 323 380 345.56823063 380 c 0,41,42
 362 380 362 380 371.676789442 389.676789442 c 0,43,44
 386 404 386 404 387 441 c 1,45,-1
 491 404 l 1,46,47
 484 336 484 336 457.515888983 300.538224232 c 0,48,49
 425 257 425 257 361.356399683 257 c 0,50,51
 324 257 324 257 277.710604853 281.362839551 c 0,52,53
 267 287 267 287 259.650670367 291.159997906 c 0,54,55
 214 317 214 317 187.007309349 317 c 0,56,57
 169 317 169 317 159.548320168 307.548320168 c 0,58,59
 146 294 146 294 145 256 c 1,30,-1
EndSplineSet
EndChar

StartChar: notequal
Encoding: 282 8800 154
Width: 594
GlyphClass: 1
Flags: W
HStem: 0 21G<47 214.167> 96 129<41 114 357 553> 283 127<41 245 487 553> 475 20G<380.118 547>
LayerCount: 2
Fore
SplineSet
47 0 m 1,0,-1
 114 96 l 1,1,-1
 41 96 l 1,2,-1
 41 225 l 1,3,-1
 204 225 l 1,4,-1
 245 283 l 1,5,-1
 41 283 l 1,6,-1
 41 410 l 1,7,-1
 335 410 l 1,8,-1
 394 495 l 1,9,-1
 547 495 l 1,10,-1
 487 410 l 1,11,-1
 553 410 l 1,12,-1
 553 283 l 1,13,-1
 397 283 l 1,14,-1
 357 225 l 1,15,-1
 553 225 l 1,16,-1
 553 96 l 1,17,-1
 268 96 l 1,18,-1
 200 0 l 1,19,-1
 47 0 l 1,0,-1
EndSplineSet
EndChar

StartChar: lessequal
Encoding: 283 8804 155
Width: 594
GlyphClass: 1
Flags: W
HStem: 0 128<41 553> 490 20G<470.419 553>
LayerCount: 2
Fore
SplineSet
41 0 m 1,0,-1
 41 128 l 1,1,-1
 553 128 l 1,2,-1
 553 0 l 1,3,-1
 41 0 l 1,0,-1
553 136 m 1,4,-1
 41 260 l 1,5,-1
 41 386 l 1,6,-1
 553 510 l 1,7,-1
 553 381 l 1,8,-1
 216 324 l 1,9,-1
 553 265 l 1,10,-1
 553 136 l 1,4,-1
EndSplineSet
EndChar

StartChar: greaterequal
Encoding: 284 8805 156
Width: 594
GlyphClass: 1
Flags: W
HStem: 0 128<41 553> 490 20G<41 123.581>
LayerCount: 2
Fore
SplineSet
41 0 m 1,0,-1
 41 128 l 1,1,-1
 553 128 l 1,2,-1
 553 0 l 1,3,-1
 41 0 l 1,0,-1
41 136 m 1,4,-1
 41 265 l 1,5,-1
 378 324 l 1,6,-1
 41 381 l 1,7,-1
 41 510 l 1,8,-1
 553 386 l 1,9,-1
 553 260 l 1,10,-1
 41 136 l 1,4,-1
EndSplineSet
EndChar

StartChar: lozenge
Encoding: 285 9674 157
Width: 607
GlyphClass: 1
Flags: W
DStem2: 41 313 179 313 0.546521 0.837445<75.4199 302.012> 179 313 41 313 0.545572 -0.838064<0 226.591> 304 716 304 502 0.545061 -0.838396<179.417 405.461> 304 124 304 -91 0.544112 0.839013<0 226.043>
LayerCount: 2
Fore
SplineSet
304 124 m 1,0,-1
 428 313 l 1,1,-1
 304 502 l 1,2,-1
 179 313 l 1,3,-1
 304 124 l 1,0,-1
304 -91 m 1,4,-1
 41 313 l 1,5,-1
 304 716 l 1,6,-1
 566 313 l 1,7,-1
 304 -91 l 1,4,-1
EndSplineSet
EndChar

StartChar: summation
Encoding: 286 8721 158
Width: 617
GlyphClass: 1
Flags: W
HStem: -162 128<211 576> 540 128<211 576>
DStem2: 211 540 41 540 0.641239 -0.767341<0 262.423> 41 -34 211 -34 0.638606 0.769534<108.563 372.975>
LayerCount: 2
Fore
SplineSet
41 -162 m 1,0,-1
 41 -34 l 1,1,-1
 278 254 l 1,2,-1
 41 540 l 1,3,-1
 41 668 l 1,4,-1
 576 668 l 1,5,-1
 576 540 l 1,6,-1
 211 540 l 1,7,-1
 450 254 l 1,8,-1
 211 -34 l 1,9,-1
 576 -34 l 1,10,-1
 576 -162 l 1,11,-1
 41 -162 l 1,0,-1
EndSplineSet
EndChar

StartChar: minus
Encoding: 287 8722 159
Width: 594
GlyphClass: 1
Flags: W
HStem: 184 128<41 553>
LayerCount: 2
Fore
SplineSet
41 184 m 1,0,-1
 41 312 l 1,1,-1
 553 312 l 1,2,-1
 553 184 l 1,3,-1
 41 184 l 1,0,-1
EndSplineSet
EndChar

StartChar: uni2215
Encoding: 288 8725 160
Width: 651
GlyphClass: 1
Flags: W
HStem: 0 21G<15 182.012> 648 20G<468.988 636>
VStem: 15 153<0 153> 483 153<515 668>
DStem2: 15 0 168 0 0.573791 0.819001<87.7901 815.627>
LayerCount: 2
Fore
SplineSet
15 0 m 1,0,-1
 483 668 l 1,1,-1
 636 668 l 1,2,-1
 168 0 l 1,3,-1
 15 0 l 1,0,-1
EndSplineSet
EndChar

StartChar: uni2219
Encoding: 289 8729 161
Width: 277
GlyphClass: 1
Flags: W
HStem: 157 194<78.3738 199.302>
VStem: 41 195<194.426 315.792>
LayerCount: 2
Fore
SplineSet
139 157 m 128,-1,1
 99 157 99 157 70 186 c 128,-1,2
 41 215 41 215 41 255.5 c 128,-1,3
 41 296 41 296 70.4750670007 323.95049457 c 0,4,5
 99 351 99 351 138.834828108 351 c 0,6,7
 179 351 179 351 207.098960935 323.886967519 c 0,8,9
 236 296 236 296 236 255.358519283 c 0,10,11
 236 215 236 215 207.560339324 186.061397909 c 128,-1,0
 179 157 179 157 139 157 c 128,-1,1
EndSplineSet
EndChar

StartChar: radical
Encoding: 290 8730 162
Width: 709
GlyphClass: 1
Flags: W
HStem: -162 21G<284.373 454.277> 93 132<41 183> 648 20G<518.679 668>
VStem: 524 144<524 668>
DStem2: 354 29 449 -162 0.255124 0.966908<0 661.226>
LayerCount: 2
Fore
SplineSet
293 -162 m 1,0,-1
 183 93 l 1,1,-1
 41 93 l 1,2,-1
 41 225 l 1,3,-1
 274 225 l 1,4,-1
 354 29 l 1,5,-1
 524 668 l 1,6,-1
 668 668 l 1,7,-1
 449 -162 l 1,8,-1
 293 -162 l 1,0,-1
EndSplineSet
EndChar

StartChar: infinity
Encoding: 291 8734 163
Width: 749
GlyphClass: 1
Flags: W
HStem: 97 107<174.59 277.734 471.212 574.051> 306 106<176.054 278.813 470.202 574.128>
VStem: 41 120<217.531 293.835> 588 120<217.374 293.533>
LayerCount: 2
Fore
SplineSet
528.221326346 204 m 0,0,1
 555 204 555 204 571.917580175 219.379618341 c 0,2,3
 588 234 588 234 588 256.02490358 c 0,4,5
 588 279 588 279 569.905991626 292.958235031 c 0,6,7
 553 306 553 306 528.391456382 306 c 0,8,9
 502 306 502 306 475.865685127 288.18114895 c 0,10,11
 458 276 458 276 441 256 c 1,12,13
 458 235 458 235 475.213063842 222.590581882 c 0,14,15
 501 204 501 204 528.221326346 204 c 0,0,1
220.778673654 204 m 0,16,17
 248 204 248 204 273.786936158 222.590581882 c 0,18,19
 291 235 291 235 308 256 c 1,20,21
 291 276 291 276 273.75059809 288.034466449 c 0,22,23
 248 306 248 306 220.681338375 306 c 0,24,25
 197 306 197 306 180.161583836 293.371187877 c 0,26,27
 161 279 161 279 161 255.65918955 c 0,28,29
 161 234 161 234 177.018065662 219.438122126 c 0,30,31
 194 204 194 204 220.778673654 204 c 0,16,17
214.218760044 97 m 0,32,33
 165 97 165 97 125.591675562 117.209397148 c 0,34,35
 87 137 87 137 64.7158420905 171.879551511 c 0,36,37
 41 209 41 209 41 255.10514255 c 0,38,39
 41 301 41 301 65.4446830211 337.406974712 c 0,40,41
 88 371 88 371 126.692415102 390.82986274 c 0,42,43
 168 412 168 412 217.308666545 412 c 0,44,45
 267 412 267 412 310.639118235 387.309446262 c 0,46,47
 343 369 343 369 374 336 c 1,48,49
 406 369 406 369 438.838118379 387.338170004 c 0,50,51
 483 412 483 412 534.785667212 412 c 0,52,53
 582 412 582 412 622.209883166 391.131579623 c 0,54,55
 661 371 661 371 683.322759441 337.753337003 c 0,56,57
 708 301 708 301 708 254.190631105 c 0,58,59
 708 209 708 209 684.336003381 171.960700945 c 0,60,61
 662 137 662 137 624.327359599 117.429797194 c 0,62,63
 585 97 585 97 535.0252379 97 c 0,64,65
 482 97 482 97 436.060287784 124.444503402 c 0,66,67
 405 143 405 143 374 176 c 1,68,69
 343 143 343 143 312.575377647 124.585096997 c 0,70,71
 267 97 267 97 214.218760044 97 c 0,32,33
EndSplineSet
EndChar

StartChar: uni03A9
Encoding: 292 937 164
Width: 656
GlyphClass: 1
Flags: W
HStem: 0 115<35 172 484 621> 564 116<243.465 411.016>
VStem: 35 121<309.316 476.688> 353 268<0 115> 499 122<308.787 476.634>
LayerCount: 2
Fore
SplineSet
35 0 m 1,0,-1
 35 115 l 1,1,-1
 172 115 l 1,2,-1
 172 139 l 1,3,4
 111 178 111 178 74.4429268378 241.012849793 c 0,5,6
 35 309 35 309 35 387.620035966 c 0,7,8
 35 447 35 447 57.9411882157 501.039243352 c 0,9,10
 80 553 80 553 120.466852197 593.466852197 c 128,-1,11
 161 634 161 634 212.105387265 656.177809568 c 0,12,13
 267 680 267 680 328.535616581 680 c 0,14,15
 389 680 389 680 443.78872426 656.22376117 c 0,16,17
 495 634 495 634 534.985055283 594.014944717 c 0,18,19
 576 553 576 553 597.978509749 501.228399259 c 0,20,21
 621 447 621 447 621 386.375000528 c 0,22,23
 621 309 621 309 582.466058655 241.694049118 c 0,24,25
 546 178 546 178 484 139 c 1,26,-1
 484 115 l 1,27,-1
 621 115 l 1,28,-1
 621 0 l 1,29,-1
 353 0 l 1,30,-1
 353 223 l 1,31,32
 395 229 395 229 428.651360502 253.473716729 c 0,33,34
 461 277 461 277 479.60118688 312.733859007 c 0,35,36
 499 350 499 350 499 393.085480168 c 0,37,38
 499 440 499 440 475.516505855 479.819837898 c 0,39,40
 453 518 453 518 415.044601938 540.383952703 c 0,41,42
 375 564 375 564 327.689425756 564 c 0,43,44
 281 564 281 564 240.909299132 540.656047596 c 0,45,46
 202 518 202 518 179.589665321 479.999867283 c 0,47,48
 156 440 156 440 156 392.859680937 c 0,49,50
 156 350 156 350 175.996944661 312.569821533 c 0,51,52
 195 277 195 277 227.976095855 253.375334313 c 0,53,54
 262 229 262 229 303 223 c 1,55,-1
 303 0 l 1,56,-1
 35 0 l 1,0,-1
EndSplineSet
EndChar

StartChar: estimated
Encoding: 293 8494 165
Width: 604
GlyphClass: 1
Flags: W
HStem: -12 70<212.978 391.246> 249 66<178 426> 440 70<213.268 391.205>
VStem: 41 137<144.997 249 315 352.694>
LayerCount: 2
Fore
SplineSet
178 315 m 1,0,-1
 426 315 l 1,1,-1
 426 394 l 1,2,3
 374 440 374 440 303.174434901 440 c 0,4,5
 267 440 267 440 234.425306414 427.784489905 c 0,6,7
 203 416 203 416 178 394 c 1,8,-1
 178 315 l 1,0,-1
302.33021571 -12 m 0,9,10
 231 -12 231 -12 170.265813559 23.7259920241 c 0,11,12
 112 58 112 58 77.6309483157 115.604466907 c 0,13,14
 41 177 41 177 41 249.564482276 c 0,15,16
 41 321 41 321 77.5605245329 381.7625619 c 0,17,18
 112 439 112 439 169.15495984 473.100858392 c 0,19,20
 231 510 231 510 303.69577899 510 c 0,21,22
 375 510 375 510 435.812601846 473.409366686 c 0,23,24
 493 439 493 439 526.691113814 382.206408143 c 0,25,26
 563 321 563 321 563 249 c 1,27,-1
 178 249 l 1,28,-1
 178 104 l 1,29,30
 203 82 203 82 234.463964463 70.2010133263 c 0,31,32
 267 58 267 58 302.588814276 58 c 0,33,34
 347 58 347 58 386.789138172 77.6361980588 c 0,35,36
 424 96 424 96 450 128 c 1,37,-1
 518 103 l 1,38,39
 483 51 483 51 428.611482062 20.6771979635 c 0,40,41
 370 -12 370 -12 302.33021571 -12 c 0,9,10
EndSplineSet
EndChar

StartChar: partialdiff
Encoding: 294 8706 166
Width: 597
GlyphClass: 1
Flags: W
HStem: -11.2432 118.243<232.619 358.996> 315 120<231.908 359.564> 560 120<172 334.371>
VStem: 41 151<147.529 275.021> 399 157<156.589 363.109>
LayerCount: 2
Fore
SplineSet
296 107 m 128,-1,1
 339 107 339 107 369.123969059 137.62603521 c 0,2,3
 399 168 399 168 399 211.454968125 c 128,-1,4
 399 255 399 255 368.905534044 285.094465956 c 128,-1,5
 339 315 339 315 296.033903701 315 c 128,-1,6
 253 315 253 315 222.79531215 285.290470968 c 0,7,8
 192 255 192 255 192 211.395210966 c 0,9,10
 192 168 192 168 222.569760797 137.430239203 c 128,-1,0
 253 107 253 107 296 107 c 128,-1,1
178.541278761 7.6087833439 m 0,11,12
 147 20 147 20 119.735570122 41.8115439022 c 0,13,14
 82 72 82 72 62.7669146579 110.466170684 c 0,15,16
 41 154 41 154 41 209.198197503 c 0,17,18
 41 274 41 274 72.1144661096 326.376017951 c 0,19,20
 101 375 101 375 150.186168406 403.933040239 c 0,21,22
 203 435 203 435 271.622121322 435 c 0,23,24
 335 435 335 435 389.436285767 401.837664993 c 0,25,26
 422 382 422 382 442 356 c 1,27,28
 438 419 438 419 415.040229519 462.218391493 c 0,29,30
 387 515 387 515 332.680150707 539.089672295 c 0,31,32
 272 566 272 566 172 560 c 1,33,-1
 172 680 l 1,34,35
 197 680 197 680 214.368621413 679.536836762 c 0,36,37
 272 678 272 678 312.187123219 670.147343739 c 0,38,39
 359 661 359 661 396.971874758 641.790698652 c 0,40,41
 444 618 444 618 476.474258446 580.886561776 c 0,42,43
 514 538 514 538 533.508926489 478.544224033 c 0,44,45
 556 410 556 410 556 316.218021075 c 0,46,47
 556 272 556 272 552.104655352 237.720967098 c 0,48,49
 546 184 546 184 527.557126008 139.276030569 c 0,50,51
 506 87 506 87 467.729334561 51.4244518458 c 0,52,53
 435 21 435 21 389.50642508 4.55653918559 c 0,54,55
 352 -9 352 -9 306.575383825 -11.2431909222 c 0,56,57
 271 -13 271 -13 234.586615667 -7.10959959315 c 0,58,59
 203 -2 203 -2 178.541278761 7.6087833439 c 0,11,12
EndSplineSet
EndChar

StartChar: uni0394
Encoding: 295 916 167
Width: 715
GlyphClass: 1
Flags: W
HStem: 0 115<229 485> 660 20G<347.706 366.324>
DStem2: 41 0 229 115 0.421425 0.906863<183.517 512.239> 357 680 357 418 0.422521 -0.906353<237.465 566.172>
LayerCount: 2
Fore
SplineSet
229 115 m 1,0,-1
 485 115 l 1,1,-1
 357 418 l 1,2,-1
 229 115 l 1,0,-1
41 0 m 1,3,-1
 357 680 l 1,4,-1
 674 0 l 1,5,-1
 41 0 l 1,3,-1
EndSplineSet
EndChar

StartChar: product
Encoding: 296 8719 168
Width: 614
GlyphClass: 1
Flags: W
HStem: -161 21G<41 169 445 573> 552 116<169 445>
VStem: 41 128<-161 552> 445 128<-161 552>
LayerCount: 2
Fore
SplineSet
41 -161 m 1,0,-1
 41 668 l 1,1,-1
 573 668 l 1,2,-1
 573 -161 l 1,3,-1
 445 -161 l 1,4,-1
 445 552 l 1,5,-1
 169 552 l 1,6,-1
 169 -161 l 1,7,-1
 41 -161 l 1,0,-1
EndSplineSet
EndChar

StartChar: pi
Encoding: 297 960 169
Width: 626
GlyphClass: 1
Flags: W
HStem: 0 105<527.187 602> 380 116<13 104 232 386 514 602>
VStem: 104 128<0 380> 386 128<113.199 380>
LayerCount: 2
Fore
SplineSet
104 0 m 1,0,-1
 104 380 l 1,1,-1
 13 380 l 1,2,-1
 13 496 l 1,3,-1
 602 496 l 1,4,-1
 602 380 l 1,5,-1
 514 380 l 1,6,-1
 514 151 l 2,7,8
 514 122 514 122 526.83310496 112.909883986 c 0,9,10
 538 105 538 105 569 105 c 2,11,-1
 602 105 l 1,12,-1
 602 0 l 1,13,-1
 524 0 l 2,14,15
 473 0 473 0 445.270324283 8.18252726086 c 0,16,17
 412 18 412 18 398.598606213 44.2873493509 c 0,18,19
 386 69 386 69 386 118 c 2,20,-1
 386 380 l 1,21,-1
 232 380 l 1,22,-1
 232 0 l 1,23,-1
 104 0 l 1,0,-1
EndSplineSet
EndChar

StartChar: hungarumlaut
Encoding: 298 733 170
Width: 490
GlyphClass: 1
Flags: W
HStem: 574 153<146.003 151 349.003 354>
LayerCount: 2
Fore
SplineSet
240 574 m 1,0,-1
 349 707 l 2,1,2
 366 727 366 727 392.39320225 727 c 0,3,4
 416 727 416 727 431.933923897 711.066076103 c 128,-1,5
 448 695 448 695 448 670.80494969 c 0,6,7
 448 658 448 658 443.847147005 647.848581567 c 0,8,9
 439 636 439 636 429 629 c 2,10,-1
 354 574 l 1,11,-1
 240 574 l 1,0,-1
37 574 m 1,12,-1
 146 707 l 2,13,14
 163 727 163 727 189.39320225 727 c 0,15,16
 213 727 213 727 228.933923897 711.066076103 c 128,-1,17
 245 695 245 695 245 670.80494969 c 0,18,19
 245 658 245 658 240.847147005 647.848581567 c 0,20,21
 236 636 236 636 226 629 c 2,22,-1
 151 574 l 1,23,-1
 37 574 l 1,12,-1
EndSplineSet
EndChar

StartChar: tilde
Encoding: 299 732 171
Width: 444
GlyphClass: 1
Flags: W
HStem: 569 79<231.317 328.772> 607 82<129.801 225.213>
LayerCount: 2
Fore
SplineSet
291.905191786 569 m 0,0,1
 256 569 256 569 213.311936531 590.762542161 c 0,2,3
 205 595 205 595 201.379454614 596.974842938 c 0,4,5
 183 607 183 607 167.381482872 607 c 0,6,7
 153 607 153 607 141.925123669 599.155295933 c 0,8,9
 129 590 129 590 126 574 c 1,10,-1
 37 574 l 1,11,12
 46 629 46 629 76.8418504062 658.373190863 c 0,13,14
 109 689 109 689 163.091490046 689 c 0,15,16
 194 689 194 689 222.705685112 674.27913584 c 0,17,18
 233 669 233 669 240.926137162 663.956094533 c 0,19,20
 266 648 266 648 287.422611858 648 c 0,21,22
 300 648 300 648 310.792880171 654.248509573 c 0,23,24
 319 659 319 659 328.408479968 669.080514251 c 0,25,26
 347 689 347 689 368.024895559 689 c 0,27,28
 384 689 384 689 395.321241707 677.678758293 c 0,29,30
 407 666 407 666 407 649.551291301 c 0,31,32
 407 630 407 630 389.823111058 610.741063914 c 0,33,34
 374 593 374 593 350.73582797 582.052154339 c 0,35,36
 323 569 323 569 291.905191786 569 c 0,0,1
EndSplineSet
EndChar

StartChar: endash
Encoding: 300 8211 172
Width: 508
GlyphClass: 1
Flags: W
HStem: 185 128<41 467>
LayerCount: 2
Fore
SplineSet
41 185 m 1,0,-1
 41 313 l 1,1,-1
 467 313 l 1,2,-1
 467 185 l 1,3,-1
 41 185 l 1,0,-1
EndSplineSet
EndChar

StartChar: emdash
Encoding: 301 8212 173
Width: 842
GlyphClass: 1
Flags: W
HStem: 185 128<41 801>
LayerCount: 2
Fore
SplineSet
41 185 m 1,0,-1
 41 313 l 1,1,-1
 801 313 l 1,2,-1
 801 185 l 1,3,-1
 41 185 l 1,0,-1
EndSplineSet
EndChar

StartChar: trademark
Encoding: 302 8482 174
Width: 935
GlyphClass: 1
Flags: W
HStem: 301 367<162 271 415 522 787 894> 575 93<41 162 271 391>
VStem: 162 109<301 575> 415 107<301 558> 787 107<301 558>
DStem2: 654 432 703 301 0.310675 0.950516<0 161.085>
LayerCount: 2
Fore
SplineSet
162 301 m 1,0,-1
 162 575 l 1,1,-1
 41 575 l 1,2,-1
 41 668 l 1,3,-1
 391 668 l 1,4,-1
 391 575 l 1,5,-1
 271 575 l 1,6,-1
 271 301 l 1,7,-1
 162 301 l 1,0,-1
415 301 m 1,8,-1
 415 668 l 1,9,-1
 588 668 l 1,10,-1
 654 432 l 1,11,-1
 721 668 l 1,12,-1
 894 668 l 1,13,-1
 894 301 l 1,14,-1
 787 301 l 1,15,-1
 787 558 l 1,16,-1
 703 301 l 1,17,-1
 606 301 l 1,18,-1
 522 558 l 1,19,-1
 522 301 l 1,20,-1
 415 301 l 1,8,-1
EndSplineSet
EndChar

StartChar: uni2113
Encoding: 303 8467 175
Width: 504
GlyphClass: 1
Flags: W
HStem: -12 122<271.838 385.652> 573 107<265.554 332.156>
VStem: 106 151<128.308 157 265 279.189 373 553.658> 339 124<442.011 568.428>
LayerCount: 2
Fore
SplineSet
257 373 m 1,0,1
 339 435 339 435 339 516.251494597 c 0,2,3
 339 573 339 573 298.697934657 573 c 0,4,5
 276 573 276 573 266.077920032 554.200269535 c 0,6,7
 257 537 257 537 257 501 c 2,8,-1
 257 373 l 1,0,1
286.749890529 -12 m 0,9,10
 237 -12 237 -12 200.412206187 1.89409891625 c 0,11,12
 158 18 158 18 134.79849965 51.3521567531 c 0,13,14
 110 87 110 87 106 144 c 1,15,-1
 106 157 l 1,16,-1
 41 112 l 1,17,-1
 41 218 l 1,18,-1
 106 265 l 1,19,-1
 106 452 l 2,20,21
 106 535 106 535 131.276224913 587.658801902 c 0,22,23
 154 635 154 635 198.856239138 658.471287921 c 0,24,25
 240 680 240 680 297.331675373 680 c 0,26,27
 374 680 374 680 417.743326194 642.154650371 c 0,28,29
 463 603 463 603 463 532.720168053 c 0,30,31
 463 486 463 486 443.148126577 445.799956318 c 0,32,33
 423 405 423 405 375.739642732 359.840103055 c 0,34,35
 333 319 333 319 257 264 c 1,36,-1
 257 191 l 2,37,38
 257 147 257 147 273.171008269 127.699119162 c 0,39,40
 288 110 288 110 319.521953897 110 c 0,41,42
 342 110 342 110 364.76308407 120.243387832 c 0,43,44
 382 128 382 128 398 141 c 1,45,-1
 455 52 l 1,46,47
 433 32 433 32 403.11368131 16.7093253215 c 0,48,49
 347 -12 347 -12 286.749890529 -12 c 0,9,10
EndSplineSet
EndChar

StartChar: Lslash
Encoding: 304 321 176
Width: 586
GlyphClass: 1
Flags: W
HStem: 0 139<251 571> 416 122<289 411> 648 20G<93 251>
VStem: 93 158<139 226 441 668>
DStem2: 13 300 93 226 0.858253 0.513227<0 30.6815 276.629 401.119>
LayerCount: 2
Fore
SplineSet
93 0 m 1,0,-1
 93 226 l 1,1,-1
 13 178 l 1,2,-1
 13 300 l 1,3,-1
 93 347 l 1,4,-1
 93 668 l 1,5,-1
 251 668 l 1,6,-1
 251 441 l 1,7,-1
 411 538 l 1,8,-1
 411 416 l 1,9,-1
 251 321 l 1,10,-1
 251 139 l 1,11,-1
 571 139 l 1,12,-1
 571 0 l 1,13,-1
 93 0 l 1,0,-1
EndSplineSet
EndChar

StartChar: lslash
Encoding: 305 322 177
Width: 322
GlyphClass: 1
Flags: W
HStem: 0 124<226.386 319> 485 20G<286.077 319> 648 20G<59 212>
VStem: 59 153<134.478 228 440 668>
LayerCount: 2
Fore
SplineSet
224 0 m 2,0,1
 163 0 163 0 130.172268587 9.57475499537 c 0,2,3
 91 21 91 21 74.7317916012 51.5028907477 c 0,4,5
 59 81 59 81 59 139 c 2,6,-1
 59 228 l 1,7,-1
 5 195 l 1,8,-1
 5 317 l 1,9,-1
 59 349 l 1,10,-1
 59 668 l 1,11,-1
 212 668 l 1,12,-1
 212 440 l 1,13,-1
 319 505 l 1,14,-1
 319 383 l 1,15,-1
 212 319 l 1,16,-1
 212 179 l 2,17,18
 212 145 212 145 225.972606467 134.132417192 c 0,19,20
 239 124 239 124 277 124 c 2,21,-1
 319 124 l 1,22,-1
 319 0 l 1,23,-1
 224 0 l 2,0,1
EndSplineSet
EndChar

StartChar: oslash
Encoding: 248 248 178
Width: 573
GlyphClass: 1
Flags: W
HStem: -12 118<223.468 352.317> 392 118<222.224 341.255>
VStem: 24 155<195.09 345.693> 394 155<152.33 315.694>
DStem2: 36 22 92 -26 0.653148 0.75723<0.229281 74.6536 227.563 451.228 599.973 662.943>
AnchorPoint: "Anchor-0" 287 496 basechar 0
LayerCount: 2
Fore
SplineSet
285.769159478 106 m 0,0,1
 333 106 333 106 360.287492946 135.524172695 c 0,2,3
 394 172 394 172 394 250.805528506 c 0,4,5
 394 270 394 270 391.967877494 286.256980046 c 0,6,7
 390 302 390 302 386 316 c 1,8,-1
 223 126 l 1,9,10
 249 106 249 106 285.769159478 106 c 0,0,1
185 194 m 1,11,-1
 342 377 l 1,12,13
 318 392 318 392 287.113142658 392 c 0,14,15
 242 392 242 392 214.663321665 364.229406136 c 0,16,17
 179 328 179 328 179 249.995264168 c 0,18,19
 179 218 179 218 185 194 c 1,11,-1
287.399203184 -12 m 0,20,21
 247 -12 247 -12 208.677232204 -2.04603433861 c 0,22,23
 170 8 170 8 138 27 c 1,24,-1
 92 -26 l 1,25,-1
 36 22 l 1,26,-1
 82 75 l 1,27,28
 55 107 55 107 40.4532360454 147.824789163 c 0,29,30
 24 194 24 194 24 252.409364367 c 0,31,32
 24 340 24 340 63.6494417067 401.617375625 c 0,33,34
 98 455 98 455 160.6095926 483.696063275 c 0,35,36
 218 510 218 510 286.219829342 510 c 0,37,38
 325 510 325 510 360.22514316 501.565810793 c 0,39,40
 396 493 396 493 427 476 c 1,41,-1
 469 524 l 1,42,-1
 525 476 l 1,43,-1
 486 431 l 1,44,45
 515 399 515 399 530.828361304 357.101396547 c 0,46,47
 549 309 549 309 549 247.605658718 c 0,48,49
 549 160 549 160 509.39238742 97.91239109 c 0,50,51
 475 44 475 44 412.264631861 14.7234948686 c 0,52,53
 355 -12 355 -12 287.399203184 -12 c 0,20,21
EndSplineSet
EndChar

StartChar: Oslash
Encoding: 216 216 179
Width: 763
GlyphClass: 1
Flags: W
HStem: -12 130<297.103 464.083> 549 130<297.064 466.479>
VStem: 35 167<221.811 446.06> 560 168<221.039 446.246>
DStem2: 70 36 126 -12 0.652053 0.758174<0.122628 79.8428 238.95 621.956 777.628 848.091>
AnchorPoint: "Anchor-0" 382 668 basechar 0
LayerCount: 2
Fore
SplineSet
380.186073614 118 m 0,0,1
 429 118 429 118 468.624622206 141.678127904 c 0,2,3
 511 167 511 167 534.230596858 212.513006088 c 0,4,5
 560 263 560 263 560 333.99553928 c 0,6,7
 560 408 560 408 532 459 c 1,8,-1
 272 157 l 1,9,10
 295 138 295 138 321.344637385 128.242726895 c 0,11,12
 349 118 349 118 380.186073614 118 c 0,0,1
226 217 m 1,13,-1
 483 516 l 1,14,15
 440 549 440 549 381.986649053 549 c 0,16,17
 332 549 332 549 292.2856617 524.975276831 c 0,18,19
 251 500 251 500 228.054300905 455.513440531 c 0,20,21
 202 405 202 405 202 334.975663851 c 0,22,23
 202 300 202 300 208.985810622 268.295167179 c 0,24,25
 215 241 215 241 226 217 c 1,13,-1
381.781888641 -12 m 0,26,27
 322 -12 322 -12 268.932093867 3.30804984615 c 0,28,29
 218 18 218 18 176 46 c 1,30,-1
 126 -12 l 1,31,-1
 70 36 l 1,32,-1
 120 95 l 1,33,34
 80 139 80 139 58.2009626128 198.099612472 c 0,35,36
 35 261 35 261 35 335.459696572 c 0,37,38
 35 438 35 438 80.0143911775 517.286711733 c 0,39,40
 123 593 123 593 198.80911481 635.061831443 c 0,41,42
 278 679 278 679 380.296767337 679 c 0,43,44
 437 679 437 679 487.314062008 665.415203258 c 0,45,46
 537 652 537 652 578 626 c 1,47,-1
 623 679 l 1,48,-1
 679 631 l 1,49,-1
 635 579 l 1,50,51
 679 534 679 534 702.831640712 473.204998183 c 0,52,53
 728 409 728 409 728 332.165960216 c 0,54,55
 728 230 728 230 682.540100031 150.317478706 c 0,56,57
 639 74 639 74 562.257513245 31.6932444812 c 0,58,59
 483 -12 483 -12 381.781888641 -12 c 0,26,27
EndSplineSet
EndChar

StartChar: Thorn
Encoding: 222 222 180
Width: 615
GlyphClass: 1
Flags: W
HStem: 0 21G<44 203> 128 141<203 401.687> 425 137<203 403.035> 647 20G<44 203>
VStem: 44 159<0 128 269 425 562 667> 426 167<293.923 400.467>
LayerCount: 2
Fore
SplineSet
203 269 m 1,0,-1
 296 269 l 2,1,2
 332 269 332 269 355.701310905 273.01717134 c 0,3,4
 391 279 391 279 407.540571507 294.595395993 c 0,5,6
 426 312 426 312 426 347.466998183 c 0,7,8
 426 382 426 382 406.692902213 400.203835057 c 0,9,10
 391 415 391 415 356.478039508 420.851179744 c 0,11,12
 332 425 332 425 296 425 c 2,13,-1
 203 425 l 1,14,-1
 203 269 l 1,0,-1
44 0 m 1,15,-1
 44 667 l 1,16,-1
 203 667 l 1,17,-1
 203 562 l 1,18,-1
 291 562 l 2,19,20
 377 562 377 562 437.044506073 546.221881616 c 0,21,22
 514 526 514 526 551.563658359 480.828512099 c 0,23,24
 593 431 593 431 593 342.959145967 c 0,25,26
 593 257 593 257 550.59322383 206.541304304 c 0,27,28
 514 163 514 163 437.956385371 143.572799182 c 0,29,30
 377 128 377 128 291 128 c 2,31,-1
 203 128 l 1,32,-1
 203 0 l 1,33,-1
 44 0 l 1,15,-1
EndSplineSet
EndChar

StartChar: ae
Encoding: 230 230 181
Width: 883
GlyphClass: 1
Flags: W
HStem: -12 118<537.67 690.081> -12 103<196.796 321.752> 209 90<204.092 353 493 719> 396 114<535.691 682.205> 407 103<206.37 332.607>
VStem: 24 157<105.45 187.09> 353 139<149.688 209 300 353.503>
AnchorPoint: "Anchor-0" 447 496 basechar 0
LayerCount: 2
Fore
SplineSet
252.801293945 91 m 0,0,1
 296 91 296 91 321.918557751 112.166822163 c 0,2,3
 356 140 356 140 356 201 c 2,4,-1
 356 209 l 1,5,6
 274 210 274 210 234.489231468 200.22851961 c 0,7,8
 181 187 181 187 181 145.646522729 c 0,9,10
 181 121 181 121 199.622545881 106.297990094 c 0,11,12
 219 91 219 91 252.801293945 91 c 0,0,1
492 299 m 1,13,-1
 719 299 l 1,14,15
 718 347 718 347 683.481044611 373.42857522 c 0,16,17
 654 396 654 396 610.704551804 396 c 0,18,19
 567 396 567 396 536.790422961 375.56410965 c 0,20,21
 499 350 499 350 492 299 c 1,13,-1
212.19115183 -12 m 0,22,23
 161 -12 161 -12 120.219948327 4.02073458564 c 0,24,25
 77 21 77 21 52.2502106849 51.8204923546 c 0,26,27
 24 87 24 87 24 133.362361788 c 0,28,29
 24 166 24 166 36.3534773874 192.030541638 c 0,30,31
 52 225 52 225 86.1018644494 247.260939293 c 0,32,33
 124 272 124 272 184.098152968 285.044560334 c 0,34,35
 253 300 253 300 353 300 c 1,36,-1
 353 329 l 2,37,38
 353 372 353 372 330.007227353 390.715047503 c 0,39,40
 310 407 310 407 273.469964958 407 c 0,41,42
 239 407 239 407 216.464069989 393.094851695 c 0,43,44
 192 378 192 378 184 348 c 1,45,-1
 56 394 l 1,46,47
 81 444 81 444 135.273931525 474.616063937 c 0,48,49
 198 510 198 510 286.599996733 510 c 0,50,51
 336 510 336 510 373.879609443 499.959621593 c 0,52,53
 419 488 419 488 447 462 c 1,54,55
 515 510 515 510 605.736870578 510 c 0,56,57
 687 510 687 510 747.674866667 470.739792157 c 0,58,59
 806 433 806 433 835.623039495 365.85444381 c 0,60,61
 866 297 866 297 861 209 c 1,62,-1
 493 209 l 1,63,64
 496 157 496 157 535.450521883 128.257476914 c 0,65,66
 566 106 566 106 611.647435611 106 c 0,67,68
 643 106 643 106 670.239025518 117.216069331 c 0,69,70
 694 127 694 127 709 143 c 1,71,-1
 829 99 l 1,72,73
 790 41 790 41 725.985445556 12.0019539699 c 0,74,75
 673 -12 673 -12 604.77508666 -12 c 0,76,77
 481 -12 481 -12 405 67 c 1,78,79
 364 18 364 18 300.394942808 -0.52574481324 c 0,80,81
 261 -12 261 -12 212.19115183 -12 c 0,22,23
EndSplineSet
EndChar

StartChar: eth
Encoding: 240 240 182
Width: 589
GlyphClass: 1
Flags: W
HStem: -12 113<220.136 352.739> 338 114<220.863 352.702> 604 122<163 274.496>
VStem: 24 156<141.99 295.979> 394 160<167.088 384.483 403 473.018>
DStem2: 223 530 271 483 0.705367 0.708842<0.542056 74.9531 220.453 287.627>
LayerCount: 2
Fore
SplineSet
286 101 m 128,-1,1
 335 101 335 101 364.497684822 133.49744938 c 128,-1,2
 394 166 394 166 394 219.774164666 c 0,3,4
 394 274 394 274 363.569395104 306.459311889 c 0,5,6
 334 338 334 338 286.048380232 338 c 0,7,8
 237 338 237 338 207.87191242 304.272740697 c 0,9,10
 180 272 180 272 180 219.295268277 c 0,11,12
 180 166 180 166 208.162940885 133.884365658 c 0,13,0
 237 101 237 101 286 101 c 128,-1,1
286.253449916 -12 m 0,14,15
 210 -12 210 -12 150.487444101 16.7475905614 c 0,16,17
 92 45 92 45 59.2620899506 95.0697447815 c 0,18,19
 24 149 24 149 24 220.186304437 c 0,20,21
 24 288 24 288 57.6287134071 342.646659286 c 0,22,23
 88 392 88 392 139.593869394 421.482211082 c 0,24,25
 193 452 193 452 259.558871804 452 c 0,26,27
 303 452 303 452 338.797539624 438.312705438 c 0,28,29
 371 426 371 426 396 403 c 1,30,31
 395 494 395 494 334 547 c 1,32,-1
 271 483 l 1,33,-1
 223 530 l 1,34,-1
 276 583 l 1,35,36
 228 604 228 604 163 604 c 1,37,-1
 163 726 l 1,38,39
 228 726 228 726 281.399951078 712.911776697 c 0,40,41
 330 701 330 701 370 678 c 1,42,-1
 426 734 l 1,43,-1
 474 686 l 1,44,-1
 426 639 l 1,45,46
 470 606 470 606 500.36693248 550.593667054 c 0,47,48
 527 502 527 502 540.992633615 438.774025887 c 0,49,50
 554 380 554 380 554 316.83844087 c 0,51,52
 554 225 554 225 528.094225089 154.818900695 c 0,53,54
 499 76 499 76 443.134030471 34.3372430632 c 0,55,56
 381 -12 381 -12 286.253449916 -12 c 0,14,15
EndSplineSet
EndChar

StartChar: thorn
Encoding: 254 254 183
Width: 596
GlyphClass: 1
Flags: W
HStem: -161 21G<50 202> -12 118<268.053 367.071> 392 118<267.112 364.703> 648 20G<50 202>
VStem: 50 152<-161 70 428 668> 50 145<155.765 344.369> 414 158<157.919 338.117>
LayerCount: 2
Fore
SplineSet
303.864155924 106 m 0,0,1
 349 106 349 106 378.88816811 139.106893906 c 0,2,3
 414 178 414 178 414 247.823564786 c 0,4,5
 414 315 414 315 379.441327864 355.938734685 c 0,6,7
 349 392 349 392 303.343491695 392 c 0,8,9
 260 392 260 392 232.033067365 364.033067365 c 0,10,11
 195 327 195 327 195 248.003713587 c 0,12,13
 195 174 195 174 231.364545763 135.957090587 c 0,14,15
 260 106 260 106 303.864155924 106 c 0,0,1
50 -161 m 1,16,-1
 50 668 l 1,17,-1
 202 668 l 1,18,-1
 202 428 l 1,19,20
 226 469 226 469 274.418898326 491.81810151 c 0,21,22
 313 510 313 510 357.699518497 510 c 0,23,24
 417 510 417 510 465.69910165 478.517752468 c 0,25,26
 516 446 516 446 543.317457705 388.438214121 c 0,27,28
 572 328 572 328 572 246.512301955 c 0,29,30
 572 166 572 166 543.17274866 106.286407938 c 0,31,32
 516 50 516 50 466.753176417 19.158554928 c 0,33,34
 417 -12 417 -12 359.887208739 -12 c 0,35,36
 313 -12 313 -12 271.969970625 7.80760038808 c 0,37,38
 226 30 226 30 202 70 c 1,39,-1
 202 -161 l 1,40,-1
 50 -161 l 1,16,-1
EndSplineSet
EndChar

StartChar: multiply
Encoding: 215 215 184
Width: 539
GlyphClass: 1
Flags: W
DStem2: 44 112 135 22 0.706133 0.708079<0.531059 192.158 318.904 513.89> 270 337 180 248 0.706133 -0.708079<-195.692 -0.533004 126.746 317.667>
LayerCount: 2
Fore
SplineSet
135 22 m 1,0,-1
 44 112 l 1,1,-1
 180 248 l 1,2,-1
 41 385 l 1,3,-1
 132 476 l 1,4,-1
 270 337 l 1,5,-1
 407 476 l 1,6,-1
 498 385 l 1,7,-1
 359 248 l 1,8,-1
 495 112 l 1,9,-1
 404 22 l 1,10,-1
 270 158 l 1,11,-1
 135 22 l 1,0,-1
EndSplineSet
EndChar

StartChar: divide
Encoding: 247 247 185
Width: 594
GlyphClass: 1
Flags: W
HStem: -12 159<243.147 350.283> 186 128<41 553> 351 159<243.255 350.752>
VStem: 218 158<13.6399 121.273 376.576 485.078>
LayerCount: 2
Fore
SplineSet
297 -12 m 128,-1,1
 265 -12 265 -12 241.680779928 11.3192200716 c 0,2,3
 218 35 218 35 218 67.5622644353 c 128,-1,4
 218 100 218 100 241.579820499 123.579820499 c 128,-1,5
 265 147 265 147 296.972780818 147 c 128,-1,6
 329 147 329 147 352.504995148 123.495004852 c 128,-1,7
 376 100 376 100 376 67.5017272293 c 128,-1,8
 376 35 376 35 352.408601143 11.4086011434 c 128,-1,0
 329 -12 329 -12 297 -12 c 128,-1,1
41 186 m 1,9,-1
 41 314 l 1,10,-1
 553 314 l 1,11,-1
 553 186 l 1,12,-1
 41 186 l 1,9,-1
297 351 m 128,-1,14
 265 351 265 351 241.680779928 374.319220072 c 0,15,16
 218 398 218 398 218 431.06322235 c 128,-1,17
 218 464 218 464 241.795850529 487.289555837 c 0,18,19
 265 510 265 510 296.898645923 510 c 0,20,21
 329 510 329 510 352.211460619 487.282400245 c 0,22,23
 376 464 376 464 376 430.899321397 c 0,24,25
 376 398 376 398 352.337170351 374.337170351 c 0,26,13
 329 351 329 351 297 351 c 128,-1,14
EndSplineSet
EndChar

StartChar: OE
Encoding: 306 338 186
Width: 1061
GlyphClass: 1
Flags: W
HStem: -12 130<297.821 465.743> 0 139<683 1039> 275 138<683 901> 528 140<683 1039> 549 131<296.186 466.611>
VStem: 35 167<221.499 446.734> 561 122<220.548 275>
LayerCount: 2
Fore
SplineSet
381.5 118 m 128,-1,1
 430 118 430 118 469.558568784 141.638656956 c 0,2,3
 512 167 512 167 535.240111465 212.531646952 c 0,4,5
 561 263 561 263 561 334.890035229 c 0,6,7
 561 405 561 405 535.160578781 455.624172184 c 0,8,9
 512 501 512 501 469.936870821 525.622319519 c 0,10,11
 430 549 430 549 381.818544496 549 c 0,12,13
 333 549 333 549 293.676729944 525.981500455 c 0,14,15
 251 501 251 501 227.671629562 455.295437509 c 0,16,17
 202 405 202 405 202 333.170875615 c 0,18,19
 202 263 202 263 227.899166238 212.25877635 c 0,20,21
 251 167 251 167 292.839163148 141.998548851 c 0,22,0
 333 118 333 118 381.5 118 c 128,-1,1
381 -12 m 128,-1,24
 279 -12 279 -12 199.935625708 31.5867704429 c 0,25,26
 123 74 123 74 80.3229399036 149.169821761 c 0,27,28
 35 229 35 229 35 334.273904231 c 0,29,30
 35 438 35 438 79.9349707589 517.657448164 c 0,31,32
 123 594 123 594 199.69911855 636.282847406 c 0,33,34
 279 680 279 680 381.421778236 680 c 0,35,36
 483 680 483 680 561 637 c 1,37,-1
 561 668 l 1,38,-1
 1039 668 l 1,39,-1
 1039 528 l 1,40,-1
 683 528 l 1,41,-1
 683 413 l 1,42,-1
 901 413 l 1,43,-1
 901 275 l 1,44,-1
 683 275 l 1,45,-1
 683 139 l 1,46,-1
 1039 139 l 1,47,-1
 1039 0 l 1,48,-1
 561 0 l 1,49,-1
 561 31 l 1,50,23
 483 -12 483 -12 381 -12 c 128,-1,24
EndSplineSet
EndChar

StartChar: oe
Encoding: 307 339 187
Width: 937
GlyphClass: 1
Flags: W
HStem: -12 118<222.225 351.658 591.309 745.168> 209 90<547 773> 392 118<222.085 351.428 584.131 741.313>
VStem: 24 155<152.629 345.513> 394 153<151.997 209 299 345.966>
LayerCount: 2
Fore
SplineSet
287 106 m 128,-1,1
 333 106 333 106 360.088524549 135.308895413 c 0,2,3
 394 172 394 172 394 251.4382724 c 0,4,5
 394 328 394 328 358.287382209 364.27948474 c 0,6,7
 331 392 331 392 288.096454508 392 c 0,8,9
 242 392 242 392 214.496366497 364.059800885 c 0,10,11
 179 328 179 328 179 247.359867816 c 0,12,13
 179 172 179 172 213.328249513 135.457024712 c 0,14,0
 241 106 241 106 287 106 c 128,-1,1
547 299 m 1,15,-1
 773 299 l 1,16,17
 772 347 772 347 738.145705767 373.331117737 c 0,18,19
 709 396 709 396 665.159510931 396 c 0,20,21
 621 396 621 396 591.013687197 375.412382255 c 0,22,23
 554 350 554 350 547 299 c 1,15,-1
286.452485523 -12 m 0,24,25
 218 -12 218 -12 161.641224196 14.3007620419 c 0,26,27
 98 44 98 44 63.3133578047 98.3736553332 c 0,28,29
 24 160 24 160 24 251.364440391 c 0,30,31
 24 340 24 340 63.7585518219 401.786938642 c 0,32,33
 98 455 98 455 160.56195984 483.674231593 c 0,34,35
 218 510 218 510 285.642908862 510 c 0,36,37
 340 510 340 510 387.023089697 493.68586684 c 0,38,39
 438 476 438 476 475 441 c 1,40,41
 511 474 511 474 557.840673944 491.750150126 c 0,42,43
 606 510 606 510 661.243020141 510 c 0,44,45
 742 510 742 510 802.668915355 469.896818664 c 0,46,47
 860 432 860 432 889.357312851 365.946046084 c 0,48,49
 920 297 920 297 915 209 c 1,50,-1
 547 209 l 1,51,52
 551 157 551 157 589.632280278 128.445705881 c 0,53,54
 620 106 620 106 666.777383622 106 c 0,55,56
 698 106 698 106 723.79321311 116.317285244 c 0,57,58
 748 126 748 126 763 143 c 1,59,-1
 884 99 l 1,60,61
 845 41 845 41 781.221231535 12.1087630028 c 0,62,63
 728 -12 728 -12 659.384992954 -12 c 0,64,65
 545 -12 545 -12 473 55 c 1,66,67
 436 21 436 21 385.313472785 3.75612991664 c 0,68,69
 339 -12 339 -12 286.452485523 -12 c 0,24,25
EndSplineSet
EndChar

StartChar: Aring
Encoding: 197 197 191
Width: 690
GlyphClass: 2
Flags: W
HStem: 0 21G<5 183.723 506.277 685> 119 128<260 430> 776 85<307.867 380.539>
VStem: 212 85<693.341 765.507> 391 86<692.868 765.376>
DStem2: 442.601 640.011 344 501 0.35419 -0.935173<95.0763 363.071> 442.601 640.011 430 247 0.35419 -0.935173<95.0763 363.071 498.003 537.862>
AnchorPoint: "Anchor-2" 654 0 basechar 0
AnchorPoint: "Anchor-1" 345 0 basechar 0
AnchorPoint: "Anchor-0" 345 796 basechar 0
LayerCount: 2
Fore
SplineSet
442.600543607 640.011212926 m 1,0,-1
 685 0 l 1,1,-1
 513 0 l 1,2,-1
 473 119 l 1,3,-1
 217 119 l 1,4,-1
 177 0 l 1,5,-1
 5 0 l 1,6,-1
 247.10390291 639.230858277 l 1,7,8
 237.508048026 649.778029733 237.508048026 649.778029733 230.241581679 662.090653265 c 0,9,10
 212 693 212 693 212 729.621653483 c 0,11,12
 212 766 212 766 230.695464208 796.639788563 c 0,13,14
 248 825 248 825 276.624169056 842.174501434 c 0,15,16
 308 861 308 861 344.909152421 861 c 0,17,18
 381 861 381 861 412.099683235 842.340190059 c 0,19,20
 441 825 441 825 458.060742723 797.039338315 c 0,21,22
 477 766 477 766 477 729.035880846 c 0,23,24
 477 693 477 693 458.762334537 662.097289078 c 0,25,26
 451.768650003 650.246879172 451.768650003 650.246879172 442.600543607 640.011212926 c 1,0,-1
260 247 m 1,27,-1
 430 247 l 1,28,-1
 344 501 l 1,29,-1
 260 247 l 1,27,-1
344.5 682 m 128,-1,31
 364 682 364 682 377.71039103 696.218183291 c 0,32,33
 391 710 391 710 391 729.423427618 c 128,-1,34
 391 749 391 749 377.572219953 762.427780047 c 128,-1,35
 364 776 364 776 344.473990098 776 c 128,-1,36
 325 776 325 776 311.220552395 762.712675523 c 0,37,38
 297 749 297 749 297 729.423799554 c 128,-1,39
 297 710 297 710 310.986296208 696.013703792 c 128,-1,30
 325 682 325 682 344.5 682 c 128,-1,31
EndSplineSet
EndChar

StartChar: Ccedilla
Encoding: 199 199 202
Width: 673
GlyphClass: 2
Flags: W
HStem: -187 50<265.251 354.817> -179.396 128.877<370.324 373.65 374.867 441.073> -12 130<366.504 459.067> 550 130<289.886 453.863>
VStem: 35 167<217.915 449.657> 370 94<-132.765 -88.4944>
AnchorPoint: "Anchor-1" 357 -187 basechar 0
AnchorPoint: "Anchor-0" 357 668 basechar 0
LayerCount: 2
Fore
SplineSet
335.294254853 -187 m 0,0,1
 313 -187 313 -187 289.767556296 -183.386064313 c 0,2,3
 268 -180 268 -180 249 -174 c 1,4,-1
 265 -124 l 1,5,6
 273 -128 273 -128 286.76063504 -131.53844901 c 0,7,8
 308 -137 308 -137 325.576957965 -137 c 0,9,10
 344 -137 344 -137 355.167461667 -131.845786923 c 0,11,12
 370 -125 370 -125 370 -110.173737692 c 0,13,14
 370 -98 370 -98 359.943144155 -90.9602009084 c 128,-1,15
 350 -84 350 -84 334.30368279 -84 c 0,16,17
 321 -84 321 -84 310.632181548 -87.455939484 c 0,18,19
 297 -92 297 -92 288.363800245 -86.8182801471 c 0,20,21
 282 -83 282 -83 279.590613998 -74.8080875934 c 0,22,23
 277 -66 277 -66 281 -59 c 2,24,-1
 312.197647184 -8.60380070205 l 1,25,26
 243.672831405 -0.0567855870489 243.672831405 -0.0567855870489 189.273004153 30.4071176743 c 0,27,28
 115 72 115 72 75.2638741424 149.485445422 c 0,29,30
 35 228 35 228 35 333.1986875 c 0,31,32
 35 440 35 440 77.2421417311 518.885927329 c 0,33,34
 118 595 118 595 192.53426439 636.680345218 c 0,35,36
 270 680 270 680 369.765671394 680 c 0,37,38
 468 680 468 680 541.858621044 635.999119378 c 0,39,40
 609 596 609 596 647 525 c 1,41,-1
 507 474 l 1,42,43
 485 515 485 515 442.353669236 534.639757588 c 0,44,45
 409 550 409 550 370.983173381 550 c 0,46,47
 322 550 322 550 284.247199305 524.665883744 c 0,48,49
 246 499 246 499 224.813020972 452.292341687 c 0,50,51
 202 402 202 402 202 331.619684855 c 0,52,53
 202 229 202 229 253.328346653 170.263438366 c 0,54,55
 299 118 299 118 369.173160572 118 c 0,56,57
 408 118 408 118 440.570376195 130.867309114 c 0,58,59
 489 150 489 150 512 193 c 1,60,-1
 651 142 l 1,61,62
 611 71 611 71 539.382583404 30.5629552551 c 0,63,64
 464 -12 464 -12 368.885598361 -12 c 0,65,66
 367.749801302 -12 367.749801302 -12 366.503793331 -11.9939306708 c 2,67,-1
 344 -48 l 1,68,69
 358 -45 358 -45 374.154328933 -45 c 0,70,71
 397 -45 397 -45 415.397314347 -50.519194304 c 0,72,73
 437 -57 437 -57 449.089851155 -69.0898511546 c 0,74,75
 464 -84 464 -84 464 -108.599121938 c 0,76,77
 464 -136 464 -136 443.914602036 -154.999700777 c 0,78,79
 427 -171 427 -171 396.565592638 -179.395698583 c 0,80,81
 369 -187 369 -187 335.294254853 -187 c 0,0,1
EndSplineSet
EndChar

StartChar: ccedilla
Encoding: 231 231 203
Width: 520
GlyphClass: 2
Flags: W
HStem: -187 50<183.251 272.817> -179.396 128.877<288.324 291.65 292.867 359.073> -11.9266 117.927<284.546 354.811> 392 118<223.21 351.105>
VStem: 24 155<153.982 345.507> 288 94<-132.765 -88.4944>
AnchorPoint: "Anchor-1" 275 -187 basechar 0
AnchorPoint: "Anchor-0" 280 496 basechar 0
LayerCount: 2
Fore
SplineSet
253.294254853 -187 m 0,0,1
 231 -187 231 -187 207.767556296 -183.386064313 c 0,2,3
 186 -180 186 -180 167 -174 c 1,4,-1
 183 -124 l 1,5,6
 191 -128 191 -128 204.76063504 -131.53844901 c 0,7,8
 226 -137 226 -137 243.576957965 -137 c 0,9,10
 262 -137 262 -137 273.167461667 -131.845786923 c 0,11,12
 288 -125 288 -125 288 -110.173737692 c 0,13,14
 288 -98 288 -98 277.943144155 -90.9602009084 c 128,-1,15
 268 -84 268 -84 252.30368279 -84 c 0,16,17
 239 -84 239 -84 228.632181548 -87.455939484 c 0,18,19
 215 -92 215 -92 206.363800245 -86.8182801471 c 0,20,21
 200 -83 200 -83 197.590613998 -74.8080875934 c 0,22,23
 195 -66 195 -66 199 -59 c 2,24,-1
 230.023319844 -8.88540640517 l 1,25,26
 178.642300282 -1.86187450121 178.642300282 -1.86187450121 138.048086921 21.8480200285 c 0,27,28
 83 54 83 54 53.4175215937 113.666354752 c 0,29,30
 24 173 24 173 24 249.359406045 c 0,31,32
 24 329 24 329 56.6835797918 388.749669307 c 0,33,34
 88 446 88 446 144.824147566 477.623873428 c 0,35,36
 203 510 203 510 276.346367835 510 c 0,37,38
 321 510 321 510 359.614057515 499.09720729 c 0,39,40
 406 486 406 486 439.817265133 459.594738184 c 0,41,42
 479 429 479 429 502 380 c 1,43,-1
 375 334 l 1,44,45
 363 366 363 366 336.820973675 380.482014563 c 0,46,47
 316 392 316 392 289.11087604 392 c 0,48,49
 260 392 260 392 237.270915075 379.72629414 c 0,50,51
 210 365 210 365 195.606499179 336.212998358 c 0,52,53
 179 303 179 303 179 249.002391947 c 0,54,55
 179 196 179 196 196.684167115 161.184295992 c 0,56,57
 211 133 211 133 237.39842432 118.453929456 c 0,58,59
 260 106 260 106 289.472768173 106 c 128,-1,60
 319 106 319 106 341.758941002 118.931216478 c 0,61,62
 363 131 363 131 376 153 c 1,63,-1
 500 108 l 1,64,65
 475 63 475 63 434.591052658 34.0584566337 c 0,66,67
 401 10 401 10 355.974301177 -1.93452257941 c 0,68,69
 321.390485765 -11.101317026 321.390485765 -11.101317026 284.54588813 -11.926578992 c 1,70,-1
 262 -48 l 1,71,72
 276 -45 276 -45 292.154328933 -45 c 0,73,74
 315 -45 315 -45 333.397314347 -50.519194304 c 0,75,76
 355 -57 355 -57 367.089851155 -69.0898511546 c 0,77,78
 382 -84 382 -84 382 -108.599121938 c 0,79,80
 382 -136 382 -136 361.914602036 -154.999700777 c 0,81,82
 345 -171 345 -171 314.565592638 -179.395698583 c 0,83,84
 287 -187 287 -187 253.294254853 -187 c 0,0,1
EndSplineSet
EndChar

StartChar: Eth
Encoding: 208 208 248
Width: 773
GlyphClass: 2
Flags: W
HStem: 0 133<289 484.041> 275 137<13 131 289 366> 537 131<289 481.497>
VStem: 131 158<133 275 412 537> 575 163<219.998 449.007>
AnchorPoint: "Anchor-1" 430 0 basechar 0
AnchorPoint: "Anchor-0" 420 668 basechar 0
LayerCount: 2
Fore
SplineSet
289 133 m 1,0,-1
 354 133 l 2,1,2
 397 133 397 133 429.928228366 138.835382242 c 0,3,4
 476 147 476 147 505.458561525 166.171444802 c 0,5,6
 539 188 539 188 555.989069045 225.753486767 c 0,7,8
 575 268 575 268 575 334.901543014 c 0,9,10
 575 400 575 400 555.847751544 443.092559026 c 0,11,12
 539 481 539 481 504.423201214 503.502361115 c 0,13,14
 476 522 476 522 431.852011616 530.38252944 c 0,15,16
 397 537 397 537 354 537 c 2,17,-1
 289 537 l 1,18,-1
 289 412 l 1,19,-1
 366 412 l 1,20,-1
 366 275 l 1,21,-1
 289 275 l 1,22,-1
 289 133 l 1,0,-1
131 0 m 1,23,-1
 131 275 l 1,24,-1
 13 275 l 1,25,-1
 13 412 l 1,26,-1
 131 412 l 1,27,-1
 131 668 l 1,28,-1
 351 668 l 2,29,30
 433 668 433 668 498.015985507 652.783492754 c 0,31,32
 574 635 574 635 624.897434572 597.675214647 c 0,33,34
 679 558 679 558 707.105019847 496.550041351 c 0,35,36
 738 429 738 429 738 332.396941622 c 0,37,38
 738 238 738 238 706.844402882 170.408196083 c 0,39,40
 679 110 679 110 624.826374885 70.2726749155 c 0,41,42
 574 33 574 33 498.583886271 15.349420191 c 0,43,44
 433 0 433 0 351 0 c 2,45,-1
 131 0 l 1,23,-1
EndSplineSet
EndChar

StartChar: one.tf
Encoding: 316 -1 250
Width: 632
GlyphClass: 1
Flags: W
HStem: 0 124<101 253 404 532> 448 123<101 233.784> 648 20G<280 404>
VStem: 253 151<124 448>
LayerCount: 2
Fore
SplineSet
101 0 m 1,0,-1
 101 124 l 1,1,-1
 253 124 l 1,2,-1
 253 448 l 1,3,-1
 101 448 l 1,4,-1
 101 571 l 1,5,6
 154 571 154 571 182.918845524 575.544390011 c 0,7,8
 224 582 224 582 247.516674045 602.514545443 c 128,-1,9
 271 623 271 623 289 668 c 1,10,-1
 404 668 l 1,11,-1
 404 124 l 1,12,-1
 532 124 l 1,13,-1
 532 0 l 1,14,-1
 101 0 l 1,0,-1
EndSplineSet
Substitution2: "'pnum' Proportional Numbers lookup 13 subtable" one
Substitution2: "'aalt' Access All Alternates lookup 0 subtable" one
EndChar

StartChar: Aogonek
Encoding: 327 260 261
Width: 690
GlyphClass: 2
Flags: W
HStem: -174 76<590.83 684.732> 0 21G<5 183.723> 119 128<260 430> 648 20G<250.425 439.575>
VStem: 464 126<-94.4143 -40.7536>
DStem2: 5 0 177 0 0.35419 0.935173<60.9207 186.374 321.306 484.629> 432 668 344 501 0.35419 -0.935173<125.005 393> 685 0 473 119 0.35419 -0.935173<-558.903 -321.306 -186.374 -60.9207>
AnchorPoint: "Anchor-2" 654 0 basechar 0
AnchorPoint: "Anchor-1" 345 0 basechar 0
AnchorPoint: "Anchor-0" 345 668 basechar 0
LayerCount: 2
Fore
SplineSet
260 247 m 1,0,-1
 430 247 l 1,1,-1
 344 501 l 1,2,-1
 260 247 l 1,0,-1
602.176689785 -174 m 0,3,4
 552 -174 552 -174 517.243214879 -157.742794056 c 0,5,6
 490 -145 490 -145 475.498767602 -122.132671988 c 0,7,8
 464 -104 464 -104 464 -82.3060265661 c 0,9,10
 464 -50 464 -50 494.618997665 -25.3847273671 c 0,11,12
 515 -9 515 -9 544 0 c 1,13,-1
 513 0 l 1,14,-1
 473 119 l 1,15,-1
 217 119 l 1,16,-1
 177 0 l 1,17,-1
 5 0 l 1,18,-1
 258 668 l 1,19,-1
 432 668 l 1,20,-1
 685 0 l 1,21,22
 651 -17 651 -17 637.722137176 -24.183106118 c 0,23,24
 590 -50 590 -50 590 -73.067428841 c 0,25,26
 590 -86 590 -86 607.611078493 -93.0444313972 c 0,27,28
 620 -98 620 -98 636.32930034 -98 c 0,29,30
 651 -98 651 -98 670.818734177 -92.3375045208 c 0,31,32
 679 -90 679 -90 685 -89 c 1,33,-1
 685 -164 l 1,34,35
 674 -168 674 -168 649.81852744 -170.96099664 c 0,36,37
 625 -174 625 -174 602.176689785 -174 c 0,3,4
EndSplineSet
EndChar

